SplineFontDB: 3.0
FontName: CharterishSmallCapsBold
FullName: Charterish Small Caps Bold
FamilyName: Charterish Small Caps
Weight: Bold
Copyright: Copyright (c) 1997-2013, SIL International (http://scripts.sil.org/)
Version: 4.114
ItalicAngle: 0
UnderlinePosition: -230
UnderlineWidth: 120
Ascent: 1638
Descent: 410
sfntRevision: 0x00041c28
LayerCount: 2
Layer: 0 1 "Arri+AOgA-re"  1
Layer: 1 1 "Avant"  0
XUID: [1021 607 50037791 853255]
FSType: 4
OS2Version: 3
OS2_WeightWidthSlopeOnly: 0
OS2_UseTypoMetrics: 1
CreationTime: 1237439356
ModificationTime: 1390651698
PfmFamily: 17
TTFWeight: 700
TTFWidth: 5
LineGap: 0
VLineGap: 0
Panose: 2 0 8 0 7 0 0 2 0 4
OS2TypoAscent: 1561
OS2TypoAOffset: 0
OS2TypoDescent: -487
OS2TypoDOffset: 0
OS2TypoLinegap: 446
OS2WinAscent: 1972
OS2WinAOffset: 0
OS2WinDescent: 483
OS2WinDOffset: 0
HheadAscent: 2007
HheadAOffset: 0
HheadDescent: -487
HheadDOffset: 0
OS2SubXSize: 1331
OS2SubYSize: 1229
OS2SubXOff: 5
OS2SubYOff: 460
OS2SupXSize: 1331
OS2SupYSize: 1229
OS2SupXOff: 5
OS2SupYOff: 785
OS2StrikeYSize: 100
OS2StrikeYPos: 500
OS2Vendor: 'SIL '
OS2CodePages: 20000197.00000000
OS2UnicodeRanges: a00002ff.5200a1ff.02000009.00000000
Lookup: 5 0 0 "'ccmp' Composizione/Decomposizione del glifo lookups0"  {"sous-table 'ccmp' Composizione/Decomposizione del glifo lookups0"  } ['ccmp' ('cyrl' <'dflt' > 'latn' <'IPPH' 'ROM ' 'VIT ' 'dflt' > ) ]
Lookup: 5 0 0 "'ccmp' Composizione/Decomposizione del glifo lookups1"  {"sous-table 'ccmp' Composizione/Decomposizione del glifo lookups1"  } ['ccmp' ('cyrl' <'dflt' > 'latn' <'IPPH' 'ROM ' 'VIT ' 'dflt' > ) ]

StartChar: .notdef
Encoding: 65536 -1 0
Width: 748
Flags: W
LayerCount: 2
Fore
SplineSet
68 0 m 1,0,-1
 68 1365 l 1,1,-1
 612 1365 l 1,2,-1
 612 0 l 1,3,-1
 68 0 l 1,0,-1
136 68 m 1,4,-1
 544 68 l 1,5,-1
 544 1297 l 1,6,-1
 136 1297 l 1,7,-1
 136 68 l 1,4,-1
EndSplineSet
EndChar

StartChar: exclam
Encoding: 33 33 4
Width: 696
GlyphClass: 2
Flags: W
LayerCount: 2
Fore
SplineSet
182 1241 m 1,0,1
 182 1284 182 1284 195.5 1315.5 c 128,-1,2
 209 1347 209 1347 231.5 1367 c 128,-1,3
 254 1387 254 1387 284.5 1397 c 128,-1,4
 315 1407 315 1407 350 1407 c 0,5,6
 384 1407 384 1407 414.5 1397.5 c 128,-1,7
 445 1388 445 1388 467.5 1368 c 128,-1,8
 490 1348 490 1348 503 1316.5 c 128,-1,9
 516 1285 516 1285 516 1241 c 1,10,-1
 406 426 l 1,11,-1
 295 426 l 1,12,-1
 182 1241 l 1,0,1
184 143 m 0,13,14
 184 183 184 183 199 213.5 c 128,-1,15
 214 244 214 244 238 264 c 128,-1,16
 262 284 262 284 291.5 294.5 c 128,-1,17
 321 305 321 305 350 305 c 0,18,19
 378 305 378 305 407.5 294 c 128,-1,20
 437 283 437 283 460.5 262 c 128,-1,21
 484 241 484 241 499 211 c 128,-1,22
 514 181 514 181 514 143 c 0,23,24
 514 108 514 108 500.5 77 c 128,-1,25
 487 46 487 46 464.5 23.5 c 128,-1,26
 442 1 442 1 412.5 -12 c 128,-1,27
 383 -25 383 -25 350 -25 c 0,28,29
 325 -25 325 -25 296 -15.5 c 128,-1,30
 267 -6 267 -6 242 14 c 128,-1,31
 217 34 217 34 200.5 66 c 128,-1,32
 184 98 184 98 184 143 c 0,13,14
EndSplineSet
EndChar

StartChar: quotedbl
Encoding: 34 34 5
Width: 803
GlyphClass: 2
Flags: W
LayerCount: 2
Fore
SplineSet
82 1333 m 1,0,1
 82 1390 82 1390 109.5 1426 c 128,-1,2
 137 1462 137 1462 199 1462 c 256,3,4
 261 1462 261 1462 289 1426 c 128,-1,5
 317 1390 317 1390 317 1333 c 1,6,-1
 238 854 l 1,7,-1
 162 854 l 1,8,-1
 82 1333 l 1,0,1
483 1333 m 1,9,10
 483 1390 483 1390 510.5 1426 c 128,-1,11
 538 1462 538 1462 600 1462 c 0,12,13
 663 1462 663 1462 692 1426 c 128,-1,14
 721 1390 721 1390 721 1333 c 1,15,-1
 639 854 l 1,16,-1
 563 854 l 1,17,-1
 483 1333 l 1,9,10
EndSplineSet
EndChar

StartChar: numbersign
Encoding: 35 35 6
Width: 1518
GlyphClass: 2
Flags: W
LayerCount: 2
Fore
SplineSet
127 449 m 1,0,-1
 127 578 l 1,1,-1
 442 578 l 1,2,-1
 530 848 l 1,3,-1
 227 848 l 1,4,-1
 227 983 l 1,5,-1
 573 983 l 1,6,-1
 731 1454 l 1,7,-1
 868 1417 l 1,8,-1
 717 983 l 1,9,-1
 983 983 l 1,10,-1
 1135 1454 l 1,11,-1
 1276 1415 l 1,12,-1
 1122 983 l 1,13,-1
 1391 983 l 1,14,-1
 1391 848 l 1,15,-1
 1079 848 l 1,16,-1
 991 578 l 1,17,-1
 1309 578 l 1,18,-1
 1309 449 l 1,19,-1
 946 449 l 1,20,-1
 791 -49 l 1,21,-1
 649 -14 l 1,22,-1
 801 449 l 1,23,-1
 545 449 l 1,24,-1
 385 -49 l 1,25,-1
 248 -12 l 1,26,-1
 401 449 l 1,27,-1
 127 449 l 1,0,-1
588 578 m 1,28,-1
 842 578 l 1,29,-1
 936 848 l 1,30,-1
 678 848 l 1,31,-1
 588 578 l 1,28,-1
EndSplineSet
EndChar

StartChar: dollar
Encoding: 36 36 7
Width: 1202
GlyphClass: 2
Flags: W
LayerCount: 2
Fore
SplineSet
111 68 m 1,0,-1
 111 422 l 1,1,-1
 256 422 l 1,2,-1
 299 182 l 1,3,4
 331 162 331 162 371 151 c 128,-1,5
 411 140 411 140 446 135 c 0,6,7
 487 129 487 129 530 127 c 1,8,-1
 530 578 l 1,9,10
 492 589 492 589 447 604 c 128,-1,11
 402 619 402 619 356.5 640 c 128,-1,12
 311 661 311 661 269 690.5 c 128,-1,13
 227 720 227 720 194.5 760.5 c 128,-1,14
 162 801 162 801 142.5 854.5 c 128,-1,15
 123 908 123 908 123 977 c 0,16,17
 123 1047 123 1047 140.5 1101 c 128,-1,18
 158 1155 158 1155 186.5 1196 c 128,-1,19
 215 1237 215 1237 251.5 1265.5 c 128,-1,20
 288 1294 288 1294 326 1313 c 0,21,22
 416 1358 416 1358 530 1368 c 1,23,-1
 530 1520 l 1,24,-1
 651 1520 l 1,25,-1
 651 1368 l 1,26,27
 714 1368 714 1368 779.5 1358.5 c 128,-1,28
 845 1349 845 1349 899 1338 c 0,29,30
 962 1325 962 1325 1022 1309 c 1,31,-1
 1022 967 l 1,32,-1
 881 967 l 1,33,-1
 842 1194 l 2,34,35
 840 1201 840 1201 814.5 1209.5 c 128,-1,36
 789 1218 789 1218 756.5 1225.5 c 128,-1,37
 724 1233 724 1233 693.5 1238 c 128,-1,38
 663 1243 663 1243 651 1243 c 1,39,-1
 651 821 l 1,40,41
 685 812 685 812 731 798.5 c 128,-1,42
 777 785 777 785 826 764.5 c 128,-1,43
 875 744 875 744 923 714.5 c 128,-1,44
 971 685 971 685 1009 643.5 c 128,-1,45
 1047 602 1047 602 1070.5 547 c 128,-1,46
 1094 492 1094 492 1094 420 c 0,47,48
 1094 332 1094 332 1061.5 261 c 128,-1,49
 1029 190 1029 190 970 137 c 128,-1,50
 911 84 911 84 829.5 50 c 128,-1,51
 748 16 748 16 651 2 c 1,52,-1
 651 -209 l 1,53,-1
 530 -209 l 1,54,-1
 530 0 l 1,55,56
 459 3 459 3 386 12 c 0,57,58
 323 20 323 20 250 33 c 128,-1,59
 177 46 177 46 111 68 c 1,0,-1
383 1051 m 0,60,61
 383 988 383 988 405.5 949 c 128,-1,62
 428 910 428 910 456 888 c 0,63,64
 489 862 489 862 530 850 c 1,65,-1
 530 1237 l 1,66,67
 489 1231 489 1231 456 1210 c 0,68,69
 428 1191 428 1191 405.5 1154 c 128,-1,70
 383 1117 383 1117 383 1051 c 0,60,61
651 133 m 1,71,72
 702 140 702 140 742 165 c 0,73,74
 759 175 759 175 775.5 191 c 128,-1,75
 792 207 792 207 805 228.5 c 128,-1,76
 818 250 818 250 826 279 c 128,-1,77
 834 308 834 308 834 346 c 0,78,79
 834 397 834 397 815 432 c 128,-1,80
 796 467 796 467 768.5 490 c 128,-1,81
 741 513 741 513 709 526.5 c 128,-1,82
 677 540 677 540 651 547 c 1,83,-1
 651 133 l 1,71,72
EndSplineSet
EndChar

StartChar: percent
Encoding: 37 37 8
Width: 1831
GlyphClass: 2
Flags: W
LayerCount: 2
Fore
SplineSet
59 979 m 256,0,1
 59 1079 59 1079 81 1158 c 128,-1,2
 103 1237 103 1237 147.5 1292.5 c 128,-1,3
 192 1348 192 1348 258 1377.5 c 128,-1,4
 324 1407 324 1407 412 1407 c 0,5,6
 499 1407 499 1407 565 1377.5 c 128,-1,7
 631 1348 631 1348 674.5 1292.5 c 128,-1,8
 718 1237 718 1237 740 1158 c 128,-1,9
 762 1079 762 1079 762 979 c 256,10,11
 762 879 762 879 740 799.5 c 128,-1,12
 718 720 718 720 674.5 664.5 c 128,-1,13
 631 609 631 609 565 579 c 128,-1,14
 499 549 499 549 412 549 c 0,15,16
 324 549 324 549 258 579 c 128,-1,17
 192 609 192 609 147.5 664.5 c 128,-1,18
 103 720 103 720 81 799.5 c 128,-1,19
 59 879 59 879 59 979 c 256,0,1
266 979 m 0,20,21
 266 884 266 884 278 820 c 128,-1,22
 290 756 290 756 310.5 717 c 128,-1,23
 331 678 331 678 357 661.5 c 128,-1,24
 383 645 383 645 412 645 c 0,25,26
 439 645 439 645 463 661.5 c 128,-1,27
 487 678 487 678 504 717 c 128,-1,28
 521 756 521 756 531 820 c 128,-1,29
 541 884 541 884 541 979 c 0,30,31
 541 1073 541 1073 531 1137 c 128,-1,32
 521 1201 521 1201 504 1239.5 c 128,-1,33
 487 1278 487 1278 463 1294.5 c 128,-1,34
 439 1311 439 1311 412 1311 c 0,35,36
 383 1311 383 1311 357 1294.5 c 128,-1,37
 331 1278 331 1278 310.5 1239.5 c 128,-1,38
 290 1201 290 1201 278 1137 c 128,-1,39
 266 1073 266 1073 266 979 c 0,20,21
418 0 m 1,40,-1
 1268 1374 l 1,41,-1
 1415 1374 l 1,42,-1
 563 0 l 1,43,-1
 418 0 l 1,40,-1
1071 395 m 256,44,45
 1071 495 1071 495 1092.5 574.5 c 128,-1,46
 1114 654 1114 654 1157.5 709 c 128,-1,47
 1201 764 1201 764 1266.5 793.5 c 128,-1,48
 1332 823 1332 823 1419 823 c 0,49,50
 1507 823 1507 823 1573 793.5 c 128,-1,51
 1639 764 1639 764 1683 709 c 128,-1,52
 1727 654 1727 654 1749.5 574.5 c 128,-1,53
 1772 495 1772 495 1772 395 c 256,54,55
 1772 295 1772 295 1749.5 216 c 128,-1,56
 1727 137 1727 137 1683 81.5 c 128,-1,57
 1639 26 1639 26 1573 -3.5 c 128,-1,58
 1507 -33 1507 -33 1419 -33 c 0,59,60
 1332 -33 1332 -33 1266.5 -3.5 c 128,-1,61
 1201 26 1201 26 1157.5 81.5 c 128,-1,62
 1114 137 1114 137 1092.5 216 c 128,-1,63
 1071 295 1071 295 1071 395 c 256,44,45
1280 395 m 0,64,65
 1280 300 1280 300 1291.5 236.5 c 128,-1,66
 1303 173 1303 173 1322 134.5 c 128,-1,67
 1341 96 1341 96 1366.5 79.5 c 128,-1,68
 1392 63 1392 63 1419 63 c 0,69,70
 1447 63 1447 63 1471 79.5 c 128,-1,71
 1495 96 1495 96 1512 134.5 c 128,-1,72
 1529 173 1529 173 1538.5 236.5 c 128,-1,73
 1548 300 1548 300 1548 395 c 0,74,75
 1548 489 1548 489 1538.5 553 c 128,-1,76
 1529 617 1529 617 1512 655.5 c 128,-1,77
 1495 694 1495 694 1471 710.5 c 128,-1,78
 1447 727 1447 727 1419 727 c 0,79,80
 1392 727 1392 727 1366.5 710.5 c 128,-1,81
 1341 694 1341 694 1322 655.5 c 128,-1,82
 1303 617 1303 617 1291.5 553 c 128,-1,83
 1280 489 1280 489 1280 395 c 0,64,65
EndSplineSet
EndChar

StartChar: ampersand
Encoding: 38 38 9
Width: 1505
GlyphClass: 2
Flags: W
LayerCount: 2
Fore
SplineSet
78 377 m 0,0,1
 78 450 78 450 98.5 506 c 128,-1,2
 119 562 119 562 157 605 c 128,-1,3
 195 648 195 648 248 678 c 128,-1,4
 301 708 301 708 365 729 c 1,5,6
 362 731 362 731 349 741 c 0,7,8
 334 752 334 752 313 771.5 c 128,-1,9
 292 791 292 791 268 818.5 c 128,-1,10
 244 846 244 846 223.5 881.5 c 128,-1,11
 203 917 203 917 189.5 960 c 128,-1,12
 176 1003 176 1003 176 1053 c 0,13,14
 176 1138 176 1138 211.5 1203 c 128,-1,15
 247 1268 247 1268 307.5 1312 c 128,-1,16
 368 1356 368 1356 449 1378.5 c 128,-1,17
 530 1401 530 1401 621 1401 c 0,18,19
 661 1401 661 1401 706.5 1395 c 128,-1,20
 752 1389 752 1389 797 1374 c 128,-1,21
 842 1359 842 1359 883.5 1335 c 128,-1,22
 925 1311 925 1311 956.5 1275.5 c 128,-1,23
 988 1240 988 1240 1007 1191 c 128,-1,24
 1026 1142 1026 1142 1026 1079 c 0,25,26
 1026 1010 1026 1010 1005 959 c 128,-1,27
 984 908 984 908 952 870.5 c 128,-1,28
 920 833 920 833 882 808.5 c 128,-1,29
 844 784 844 784 810 769.5 c 128,-1,30
 776 755 776 755 750.5 748.5 c 128,-1,31
 725 742 725 742 719 741 c 1,32,-1
 1034 414 l 1,33,34
 1058 445 1058 445 1079 481 c 0,35,36
 1097 512 1097 512 1115 553.5 c 128,-1,37
 1133 595 1133 595 1143 643 c 0,38,39
 1144 652 1144 652 1136 664 c 128,-1,40
 1128 676 1128 676 1122 678 c 2,41,-1
 1016 696 l 1,42,-1
 1016 793 l 1,43,-1
 1446 793 l 1,44,-1
 1446 696 l 1,45,-1
 1305 668 l 1,46,47
 1280 587 1280 587 1247 524 c 128,-1,48
 1214 461 1214 461 1185 417 c 0,49,50
 1150 366 1150 366 1114 328 c 1,51,-1
 1307 121 l 1,52,-1
 1473 104 l 1,53,-1
 1473 0 l 1,54,-1
 1026 0 l 1,55,-1
 1026 49 l 1,56,-1
 940 145 l 1,57,58
 892 97 892 97 829 60 c 0,59,60
 802 44 802 44 769 28.5 c 128,-1,61
 736 13 736 13 697 1 c 128,-1,62
 658 -11 658 -11 613.5 -18 c 128,-1,63
 569 -25 569 -25 520 -25 c 0,64,65
 421 -25 421 -25 339.5 4 c 128,-1,66
 258 33 258 33 200 85.5 c 128,-1,67
 142 138 142 138 110 212 c 128,-1,68
 78 286 78 286 78 377 c 0,0,1
354 471 m 0,69,70
 354 384 354 384 380.5 323 c 128,-1,71
 407 262 407 262 450 224 c 128,-1,72
 493 186 493 186 547 169 c 128,-1,73
 601 152 601 152 655 152 c 0,74,75
 707 152 707 152 744.5 164.5 c 128,-1,76
 782 177 782 177 807 192 c 0,77,78
 836 210 836 210 856 233 c 1,79,-1
 451 657 l 1,80,81
 423 638 423 638 402 612 c 0,82,83
 384 589 384 589 369 554 c 128,-1,84
 354 519 354 519 354 471 c 0,69,70
446 1118 m 0,85,86
 446 1084 446 1084 456.5 1050.5 c 128,-1,87
 467 1017 467 1017 490.5 981 c 128,-1,88
 514 945 514 945 551 904 c 128,-1,89
 588 863 588 863 641 815 c 1,90,91
 672 843 672 843 696.5 871 c 128,-1,92
 721 899 721 899 738 929.5 c 128,-1,93
 755 960 755 960 763.5 995.5 c 128,-1,94
 772 1031 772 1031 772 1075 c 0,95,96
 772 1117 772 1117 761 1154 c 128,-1,97
 750 1191 750 1191 729 1218.5 c 128,-1,98
 708 1246 708 1246 678 1262 c 128,-1,99
 648 1278 648 1278 610 1278 c 0,100,101
 575 1278 575 1278 545 1266 c 128,-1,102
 515 1254 515 1254 493 1233 c 128,-1,103
 471 1212 471 1212 458.5 1182.5 c 128,-1,104
 446 1153 446 1153 446 1118 c 0,85,86
EndSplineSet
EndChar

StartChar: quotesingle
Encoding: 39 39 10
Width: 360
GlyphClass: 2
Flags: W
LayerCount: 2
Fore
SplineSet
63 1333 m 1,0,1
 63 1390 63 1390 90 1426 c 128,-1,2
 117 1462 117 1462 180 1462 c 0,3,4
 242 1462 242 1462 270.5 1426 c 128,-1,5
 299 1390 299 1390 299 1333 c 1,6,-1
 217 854 l 1,7,-1
 143 854 l 1,8,-1
 63 1333 l 1,0,1
EndSplineSet
EndChar

StartChar: parenleft
Encoding: 40 40 11
Width: 803
GlyphClass: 2
Flags: W
LayerCount: 2
Fore
SplineSet
121 590 m 0,0,1
 121 790 121 790 160 950.5 c 128,-1,2
 199 1111 199 1111 276 1224.5 c 128,-1,3
 353 1338 353 1338 467.5 1400.5 c 128,-1,4
 582 1463 582 1463 733 1468 c 1,5,-1
 733 1358 l 1,6,7
 625 1343 625 1343 556.5 1280.5 c 128,-1,8
 488 1218 488 1218 449 1117 c 128,-1,9
 410 1016 410 1016 395.5 881.5 c 128,-1,10
 381 747 381 747 381 590 c 0,11,12
 381 432 381 432 395.5 297.5 c 128,-1,13
 410 163 410 163 449 62 c 128,-1,14
 488 -39 488 -39 556.5 -102 c 128,-1,15
 625 -165 625 -165 733 -180 c 1,16,-1
 733 -291 l 1,17,18
 582 -287 582 -287 467.5 -224 c 128,-1,19
 353 -161 353 -161 276 -47 c 128,-1,20
 199 67 199 67 160 228 c 128,-1,21
 121 389 121 389 121 590 c 0,0,1
EndSplineSet
EndChar

StartChar: parenright
Encoding: 41 41 12
Width: 803
GlyphClass: 2
Flags: W
LayerCount: 2
Fore
SplineSet
70 -180 m 1,0,1
 177 -165 177 -165 245.5 -102 c 128,-1,2
 314 -39 314 -39 353 62 c 128,-1,3
 392 163 392 163 407 297.5 c 128,-1,4
 422 432 422 432 422 590 c 0,5,6
 422 747 422 747 407 881.5 c 128,-1,7
 392 1016 392 1016 353 1117 c 128,-1,8
 314 1218 314 1218 245.5 1280.5 c 128,-1,9
 177 1343 177 1343 70 1358 c 1,10,-1
 70 1468 l 1,11,12
 220 1463 220 1463 334.5 1400.5 c 128,-1,13
 449 1338 449 1338 526.5 1224.5 c 128,-1,14
 604 1111 604 1111 643 950.5 c 128,-1,15
 682 790 682 790 682 590 c 0,16,17
 682 389 682 389 643 228 c 128,-1,18
 604 67 604 67 526.5 -47 c 128,-1,19
 449 -161 449 -161 334.5 -224 c 128,-1,20
 220 -287 220 -287 70 -291 c 1,21,-1
 70 -180 l 1,0,1
EndSplineSet
EndChar

StartChar: asterisk
Encoding: 42 42 13
Width: 1024
GlyphClass: 2
Flags: W
LayerCount: 2
Fore
SplineSet
109 1169 m 1,0,-1
 256 1229 l 1,1,-1
 475 1067 l 1,2,-1
 463 1038 l 1,3,-1
 197 1036 l 1,4,-1
 109 1169 l 1,0,-1
256 852 m 1,5,-1
 475 1012 l 1,6,-1
 500 987 l 1,7,-1
 418 733 l 1,8,-1
 262 692 l 1,9,-1
 256 852 l 1,5,-1
410 1348 m 1,10,-1
 512 1470 l 1,11,-1
 614 1348 l 1,12,-1
 528 1092 l 1,13,-1
 494 1092 l 1,14,-1
 410 1348 l 1,10,-1
524 987 m 1,15,-1
 549 1012 l 1,16,-1
 768 852 l 1,17,-1
 762 692 l 1,18,-1
 606 733 l 1,19,-1
 524 987 l 1,15,-1
547 1069 m 1,20,-1
 764 1229 l 1,21,-1
 915 1169 l 1,22,-1
 825 1036 l 1,23,-1
 561 1038 l 1,24,-1
 547 1069 l 1,20,-1
EndSplineSet
EndChar

StartChar: plus
Encoding: 43 43 14
Width: 2048
GlyphClass: 2
Flags: W
LayerCount: 2
Fore
SplineSet
410 551 m 1,0,-1
 410 678 l 1,1,-1
 961 678 l 1,2,-1
 961 1229 l 1,3,-1
 1087 1229 l 1,4,-1
 1087 678 l 1,5,-1
 1638 678 l 1,6,-1
 1638 551 l 1,7,-1
 1087 551 l 1,8,-1
 1087 0 l 1,9,-1
 961 0 l 1,10,-1
 961 551 l 1,11,-1
 410 551 l 1,0,-1
EndSplineSet
EndChar

StartChar: comma
Encoding: 44 44 15
Width: 651
GlyphClass: 2
Flags: W
LayerCount: 2
Fore
SplineSet
72 -260 m 1,0,1
 111 -254 111 -254 155.5 -237.5 c 128,-1,2
 200 -221 200 -221 237 -189 c 128,-1,3
 274 -157 274 -157 297 -107.5 c 128,-1,4
 320 -58 320 -58 317 14 c 1,5,-1
 193 14 l 1,6,7
 174 29 174 29 162 45.5 c 128,-1,8
 150 62 150 62 142.5 79 c 128,-1,9
 135 96 135 96 132 113 c 128,-1,10
 129 130 129 130 129 145 c 0,11,12
 129 184 129 184 143.5 215.5 c 128,-1,13
 158 247 158 247 182 269.5 c 128,-1,14
 206 292 206 292 237 304.5 c 128,-1,15
 268 317 268 317 301 317 c 0,16,17
 394 317 394 317 445 264 c 128,-1,18
 496 211 496 211 496 121 c 0,19,20
 496 57 496 57 478 -2 c 128,-1,21
 460 -61 460 -61 429.5 -113.5 c 128,-1,22
 399 -166 399 -166 357.5 -209.5 c 128,-1,23
 316 -253 316 -253 269 -285.5 c 128,-1,24
 222 -318 222 -318 171.5 -337.5 c 128,-1,25
 121 -357 121 -357 72 -360 c 1,26,-1
 72 -260 l 1,0,1
EndSplineSet
EndChar

StartChar: hyphen
Encoding: 45 45 16
Width: 672
GlyphClass: 2
Flags: W
LayerCount: 2
Fore
SplineSet
68 385 m 1,0,-1
 68 602 l 1,1,-1
 604 602 l 1,2,-1
 604 385 l 1,3,-1
 68 385 l 1,0,-1
EndSplineSet
EndChar

StartChar: period
Encoding: 46 46 17
Width: 651
GlyphClass: 2
Flags: W
LayerCount: 2
Fore
SplineSet
129 145 m 0,0,1
 129 181 129 181 142.5 212 c 128,-1,2
 156 243 156 243 179.5 266.5 c 128,-1,3
 203 290 203 290 234.5 303.5 c 128,-1,4
 266 317 266 317 301 317 c 0,5,6
 337 317 337 317 368 303.5 c 128,-1,7
 399 290 399 290 422 266.5 c 128,-1,8
 445 243 445 243 458 212 c 128,-1,9
 471 181 471 181 471 145 c 0,10,11
 471 110 471 110 458 79 c 128,-1,12
 445 48 445 48 422 25 c 128,-1,13
 399 2 399 2 368 -11.5 c 128,-1,14
 337 -25 337 -25 301 -25 c 0,15,16
 266 -25 266 -25 234.5 -11.5 c 128,-1,17
 203 2 203 2 179.5 25 c 128,-1,18
 156 48 156 48 142.5 79 c 128,-1,19
 129 110 129 110 129 145 c 0,0,1
EndSplineSet
EndChar

StartChar: slash
Encoding: 47 47 18
Width: 1026
GlyphClass: 2
Flags: W
LayerCount: 2
Fore
SplineSet
0 -190 m 1,0,-1
 864 1374 l 1,1,-1
 1026 1374 l 1,2,-1
 160 -190 l 1,3,-1
 0 -190 l 1,0,-1
EndSplineSet
EndChar

StartChar: zero
Encoding: 48 48 19
Width: 1202
GlyphClass: 2
Flags: W
LayerCount: 2
Fore
SplineSet
74 561.575 m 256,0,1
 74 680.375 74 680.375 104 786.8 c 128,-1,2
 134 893.225 134 893.225 198 974.075 c 128,-1,3
 262 1054.92 262 1054.92 361.5 1102.36 c 128,-1,4
 461 1149.8 461 1149.8 600 1149.8 c 0,5,6
 740 1149.8 740 1149.8 840 1102.36 c 128,-1,7
 940 1054.92 940 1054.92 1004.5 974.075 c 128,-1,8
 1069 893.225 1069 893.225 1099.5 786.8 c 128,-1,9
 1130 680.375 1130 680.375 1130 561.575 c 256,10,11
 1130 442.775 1130 442.775 1099.5 335.938 c 128,-1,12
 1069 229.1 1069 229.1 1004.5 149.075 c 128,-1,13
 940 69.0498 940 69.0498 840 22.0254 c 128,-1,14
 740 -25 740 -25 600 -25 c 0,15,16
 461 -25 461 -25 361.5 22.0254 c 128,-1,17
 262 69.0498 262 69.0498 198 149.075 c 128,-1,18
 134 229.1 134 229.1 104 335.938 c 128,-1,19
 74 442.775 74 442.775 74 561.575 c 256,0,1
373 562.1 m 260,20,21
 373 526.55 373 526.55 374.5 478.36 c 132,-1,22
 376 430.17 376 430.17 383 378.425 c 132,-1,23
 390 326.68 390 326.68 404.5 276.12 c 132,-1,24
 419 225.56 419 225.56 444 185.665 c 132,-1,25
 469 145.77 469 145.77 507 120.885 c 132,-1,26
 545 96 545 96 600 96 c 260,27,28
 655 96 655 96 693.5 120.885 c 132,-1,29
 732 145.77 732 145.77 758 185.665 c 132,-1,30
 784 225.56 784 225.56 798.5 276.12 c 132,-1,31
 813 326.68 813 326.68 820 378.425 c 132,-1,32
 827 430.17 827 430.17 829 478.755 c 132,-1,33
 831 527.34 831 527.34 831 562.1 c 260,34,35
 831 596.86 831 596.86 829 645.445 c 132,-1,36
 827 694.03 827 694.03 820 746.17 c 132,-1,37
 813 798.31 813 798.31 798.5 849.265 c 132,-1,38
 784 900.22 784 900.22 758 940.905 c 132,-1,39
 732 981.59 732 981.59 693.5 1006.47 c 132,-1,40
 655 1031.36 655 1031.36 600 1031.36 c 260,41,42
 545 1031.36 545 1031.36 507 1006.47 c 132,-1,43
 469 981.59 469 981.59 444 940.905 c 132,-1,44
 419 900.22 419 900.22 404.5 849.265 c 132,-1,45
 390 798.31 390 798.31 383 746.17 c 132,-1,46
 376 694.03 376 694.03 374.5 645.84 c 132,-1,47
 373 597.65 373 597.65 373 562.1 c 260,20,21
EndSplineSet
EndChar

StartChar: one
Encoding: 49 49 20
Width: 1202
GlyphClass: 2
Flags: W
LayerCount: 2
Fore
SplineSet
152 852 m 5,0,-1
 152 960 l 5,1,-1
 594 1120 l 5,2,-1
 745 1120 l 5,3,-1
 745 158 l 2,4,5
 745 139 745 139 758.5 127 c 128,-1,6
 772 115 772 115 791 113 c 1,7,-1
 952 106 l 1,8,-1
 952 0 l 1,9,-1
 236 0 l 1,10,-1
 236 106 l 1,11,-1
 412 113 l 1,12,13
 430 115 430 115 443.5 127 c 128,-1,14
 457 139 457 139 457 158 c 2,15,-1
 457 895 l 5,16,-1
 152 852 l 5,0,-1
EndSplineSet
EndChar

StartChar: two
Encoding: 50 50 21
Width: 1202
GlyphClass: 2
Flags: W
LayerCount: 2
Fore
SplineSet
88 0 m 1,0,-1
 88 170 l 1,1,2
 129 204 129 204 195.5 252.5 c 128,-1,3
 262 301 262 301 337.5 350.5 c 128,-1,4
 413 400 413 400 489.5 452.5 c 128,-1,5
 566 505 566 505 632.25 565.5 c 128,-1,6
 698.5 626 698.5 626 730.5 669 c 0,7,8
 774.243 727.779 774.243 727.779 768 792 c 0,9,10
 764.5 828 764.5 828 750 864.5 c 0,11,12
 723.583 926.82 723.583 926.82 699 955.5 c 0,13,14
 666 994 666 994 619 1016 c 128,-1,15
 572 1038 572 1038 514 1038 c 0,16,17
 493 1038 493 1038 478.5 1035.5 c 128,-1,18
 464 1033 464 1033 451.5 1029.5 c 128,-1,19
 439 1026 439 1026 426.5 1021 c 128,-1,20
 414 1016 414 1016 397 1011 c 1,21,-1
 397 735 l 1,22,23
 375 724 375 724 352 715 c 0,24,25
 332 707 332 707 307.5 701.5 c 128,-1,26
 283 696 283 696 258 696 c 0,27,28
 183 696 183 696 143.5 737.5 c 128,-1,29
 104 779 104 779 104 847 c 0,30,31
 104 911 104 911 128.5 960.5 c 128,-1,32
 153 1010 153 1010 194 1046.5 c 128,-1,33
 235 1083 235 1083 287.5 1107.5 c 128,-1,34
 340 1132 340 1132 395.5 1147 c 128,-1,35
 451 1162 451 1162 505.5 1168.5 c 128,-1,36
 560 1175 560 1175 604 1175 c 0,37,38
 701 1175 701 1175 786 1146 c 128,-1,39
 871 1117 871 1117 934 1064 c 0,40,41
 992.549 1014.74 992.549 1014.74 1033 936 c 0,42,43
 1070.5 863 1070.5 863 1069 810 c 0,44,45
 1068.21 721.451 1068.21 721.451 1015.5 648.5 c 0,46,47
 995.274 620.618 995.274 620.618 867 522.5 c 0,48,49
 753 435.3 753 435.3 642 373.5 c 0,50,51
 390.611 239.954 390.611 239.954 360 221 c 1,52,-1
 942 221 l 1,53,-1
 981 401 l 1,54,-1
 1112 401 l 1,55,-1
 1112 0 l 1,56,-1
 88 0 l 1,0,-1
EndSplineSet
EndChar

StartChar: three
Encoding: 51 51 22
Width: 1202
GlyphClass: 2
Flags: W
LayerCount: 2
Fore
SplineSet
88 -8 m 4,0,1
 88 35 88 35 102.5 62 c 132,-1,2
 117 89 117 89 139.5 105 c 132,-1,3
 162 121 162 121 189 127 c 132,-1,4
 216 133 216 133 240 133 c 4,5,6
 267 133 267 133 289 127.5 c 132,-1,7
 311 122 311 122 328 114 c 5,8,-1
 393 -117 l 5,9,10
 427 -126 427 -126 464 -139 c 132,-1,11
 501 -152 501 -152 543 -152 c 4,12,13
 596 -152 596 -152 644.5 -129.5 c 132,-1,14
 693 -107 693 -107 730 -68.5 c 132,-1,15
 767 -30 767 -30 789 22.5 c 132,-1,16
 811 75 811 75 811 135 c 4,17,18
 811 183 811 183 793 228.5 c 132,-1,19
 775 274 775 274 739 308.5 c 132,-1,20
 703 343 703 343 649.5 364 c 132,-1,21
 596 385 596 385 524 385 c 4,22,23
 501 385 501 385 476 383.5 c 132,-1,24
 451 382 451 382 430 380 c 4,25,26
 405 377 405 377 381 375 c 5,27,-1
 381 528 l 5,28,29
 398 526 398 526 411 526 c 6,30,-1
 438 526 l 6,31,32
 496 526 496 526 554 537.5 c 132,-1,33
 612 549 612 549 658.5 578 c 132,-1,34
 705 607 705 607 734.5 655.5 c 132,-1,35
 764 704 764 704 764 778 c 4,36,37
 764 827 764 827 744 871.5 c 132,-1,38
 724 916 724 916 689 950 c 132,-1,39
 654 984 654 984 606 1004 c 132,-1,40
 558 1024 558 1024 502 1024 c 4,41,42
 487 1024 487 1024 468.5 1020 c 132,-1,43
 450 1016 450 1016 433 1011 c 4,44,45
 414 1006 414 1006 393 999 c 5,46,-1
 393 747 l 5,47,48
 365 729 365 729 336 724 c 132,-1,49
 307 719 307 719 283 719 c 4,50,51
 251 719 251 719 222 728 c 132,-1,52
 193 737 193 737 171 755 c 132,-1,53
 149 773 149 773 136 800.5 c 132,-1,54
 123 828 123 828 123 866 c 4,55,56
 123 930 123 930 161 984 c 132,-1,57
 199 1038 199 1038 264 1077.5 c 132,-1,58
 329 1117 329 1117 415 1139 c 132,-1,59
 501 1161 501 1161 598 1161 c 4,60,61
 682 1161 682 1161 765 1139 c 132,-1,62
 848 1117 848 1117 914 1072.5 c 132,-1,63
 980 1028 980 1028 1021.5 960.5 c 132,-1,64
 1063 893 1063 893 1063 801 c 4,65,66
 1063 736 1063 736 1041 687 c 132,-1,67
 1019 638 1019 638 985 602.5 c 132,-1,68
 951 567 951 567 909.5 543.5 c 132,-1,69
 868 520 868 520 829.5 505.5 c 132,-1,70
 791 491 791 491 760 484 c 4,71,72
 732 478 732 478 718 477 c 5,73,74
 731 476 731 476 762 474 c 4,75,76
 797 471 797 471 841.5 459.5 c 132,-1,77
 886 448 886 448 933.5 426 c 132,-1,78
 981 404 981 404 1021 367 c 132,-1,79
 1061 330 1061 330 1086.5 276 c 132,-1,80
 1112 222 1112 222 1112 147 c 4,81,82
 1112 80 1112 80 1089.5 23 c 132,-1,83
 1067 -34 1067 -34 1027 -81.5 c 132,-1,84
 987 -129 987 -129 931.5 -166 c 132,-1,85
 876 -203 876 -203 810.5 -228 c 132,-1,86
 745 -253 745 -253 671.5 -266 c 132,-1,87
 598 -279 598 -279 522 -279 c 4,88,89
 422 -279 422 -279 342 -256 c 132,-1,90
 262 -233 262 -233 205.5 -194.5 c 132,-1,91
 149 -156 149 -156 118.5 -107.5 c 132,-1,92
 88 -59 88 -59 88 -8 c 4,0,1
EndSplineSet
EndChar

StartChar: four
Encoding: 52 52 23
Width: 1202
GlyphClass: 2
Flags: W
LayerCount: 2
Fore
SplineSet
74 96 m 5,0,-1
 74 272 l 5,1,-1
 741 1120 l 5,2,-1
 963 1120 l 5,3,-1
 963 264 l 5,4,-1
 1130 264 l 5,5,-1
 1130 98 l 5,6,-1
 963 98 l 5,7,-1
 963 -320 l 5,8,-1
 702 -320 l 5,9,-1
 702 96 l 5,10,-1
 74 96 l 5,0,-1
272 264 m 5,11,-1
 702 264 l 5,12,-1
 702 803 l 5,13,-1
 272 264 l 5,11,-1
EndSplineSet
EndChar

StartChar: five
Encoding: 53 53 24
Width: 1202
GlyphClass: 2
Flags: W
LayerCount: 2
Fore
SplineSet
84 -18 m 4,0,1
 84 5 84 5 93.5 28.5 c 132,-1,2
 103 52 103 52 121.5 71.5 c 132,-1,3
 140 91 140 91 168 103 c 132,-1,4
 196 115 196 115 233 115 c 4,5,6
 253 115 253 115 275.5 110 c 132,-1,7
 298 105 298 105 326 96 c 5,8,-1
 391 -148 l 5,9,10
 416 -152 416 -152 437 -156 c 4,11,12
 455 -159 455 -159 472.5 -161.5 c 132,-1,13
 490 -164 490 -164 498 -164 c 4,14,15
 587 -164 587 -164 649.5 -130 c 132,-1,16
 712 -96 712 -96 751.5 -47.5 c 132,-1,17
 791 1 791 1 809 53 c 132,-1,18
 827 105 827 105 827 141 c 4,19,20
 827 210 827 210 798.5 264.5 c 132,-1,21
 770 319 770 319 720.5 357 c 132,-1,22
 671 395 671 395 604.5 415.5 c 132,-1,23
 538 436 538 436 463 436 c 4,24,25
 410 436 410 436 357 430.5 c 132,-1,26
 304 425 304 425 260 419 c 4,27,28
 209 412 209 412 162 403 c 5,29,-1
 162 1120 l 5,30,-1
 1042 1120 l 5,31,-1
 1042 893 l 5,32,-1
 336 893 l 5,33,-1
 336 563 l 5,34,35
 379 576 379 576 426 587 c 4,36,37
 466 596 466 596 516 604 c 132,-1,38
 566 612 566 612 618 612 c 4,39,40
 728 612 728 612 820 582.5 c 132,-1,41
 912 553 912 553 979 500 c 132,-1,42
 1046 447 1046 447 1083 373.5 c 132,-1,43
 1120 300 1120 300 1120 211 c 4,44,45
 1120 95 1120 95 1068.5 3 c 132,-1,46
 1017 -89 1017 -89 931.5 -153.5 c 132,-1,47
 846 -218 846 -218 735.5 -252.5 c 132,-1,48
 625 -287 625 -287 508 -287 c 4,49,50
 430 -287 430 -287 354 -270 c 132,-1,51
 278 -253 278 -253 218 -219 c 132,-1,52
 158 -185 158 -185 121 -134.5 c 132,-1,53
 84 -84 84 -84 84 -18 c 4,0,1
EndSplineSet
EndChar

StartChar: six
Encoding: 54 54 25
Width: 1202
GlyphClass: 2
Flags: W
LayerCount: 2
Fore
SplineSet
74 596 m 0,0,1
 74 797 74 797 137.5 950 c 128,-1,2
 201 1103 201 1103 317 1205 c 128,-1,3
 433 1307 433 1307 595.5 1358 c 128,-1,4
 758 1409 758 1409 956 1407 c 1,5,-1
 956 1247 l 1,6,-1
 866 1257 l 1,7,8
 755 1249 755 1249 671 1215.5 c 128,-1,9
 587 1182 587 1182 528.5 1124.5 c 128,-1,10
 470 1067 470 1067 434 987 c 128,-1,11
 398 907 398 907 383 807 c 1,12,13
 425 835 425 835 476 858 c 0,14,15
 519 877 519 877 576.5 893 c 128,-1,16
 634 909 634 909 700 909 c 0,17,18
 808 909 808 909 888.5 871.5 c 128,-1,19
 969 834 969 834 1022.5 774.5 c 128,-1,20
 1076 715 1076 715 1103 641 c 128,-1,21
 1130 567 1130 567 1130 494 c 0,22,23
 1130 375 1130 375 1089.5 277.5 c 128,-1,24
 1049 180 1049 180 979 111 c 128,-1,25
 909 42 909 42 816.5 4.5 c 128,-1,26
 724 -33 724 -33 621 -33 c 0,27,28
 492 -33 492 -33 390 8 c 128,-1,29
 288 49 288 49 218 129 c 128,-1,30
 148 209 148 209 111 326.5 c 128,-1,31
 74 444 74 444 74 596 c 0,0,1
366.5 625.5 m 128,-1,33
 366 594 366 594 367 571 c 0,34,35
 368 543 368 543 369 520 c 1,36,37
 369 449 369 449 383 374.5 c 128,-1,38
 397 300 397 300 428 239 c 128,-1,39
 459 178 459 178 507 139 c 128,-1,40
 555 100 555 100 623 100 c 0,41,42
 677 100 677 100 717 127.5 c 128,-1,43
 757 155 757 155 784 201 c 128,-1,44
 811 247 811 247 824.5 307 c 128,-1,45
 838 367 838 367 838 432 c 0,46,47
 838 499 838 499 822 555 c 128,-1,48
 806 611 806 611 773 651 c 128,-1,49
 740 691 740 691 689 713 c 128,-1,50
 638 735 638 735 569 735 c 0,51,52
 525 735 525 735 488.5 728 c 128,-1,53
 452 721 452 721 426 713 c 0,54,55
 395 703 395 703 371 692 c 1,56,32
 367 657 367 657 366.5 625.5 c 128,-1,33
EndSplineSet
EndChar

StartChar: seven
Encoding: 55 55 26
Width: 1202
GlyphClass: 2
Flags: W
LayerCount: 2
Fore
SplineSet
76 684 m 5,0,-1
 76 1120 l 5,1,-1
 1126 1120 l 5,2,-1
 1126 975 l 5,3,-1
 436 -225 l 5,4,-1
 436 -287 l 5,5,-1
 174 -287 l 5,6,-1
 842 874 l 5,7,-1
 250 874 l 5,8,-1
 219 684 l 5,9,-1
 76 684 l 5,0,-1
EndSplineSet
EndChar

StartChar: eight
Encoding: 56 56 27
Width: 1202
GlyphClass: 2
Flags: W
LayerCount: 2
Fore
SplineSet
74 371 m 0,0,1
 74 454 74 454 104 509 c 128,-1,2
 134 564 134 564 177.5 599.5 c 128,-1,3
 221 635 221 635 270.5 654.5 c 128,-1,4
 320 674 320 674 358 686 c 1,5,6
 327 698 327 698 287.5 723.5 c 128,-1,7
 248 749 248 749 212.5 787.5 c 128,-1,8
 177 826 177 826 153 877.5 c 128,-1,9
 129 929 129 929 129 993 c 0,10,11
 129 1109 129 1109 173.5 1188.5 c 128,-1,12
 218 1268 218 1268 290 1316.5 c 128,-1,13
 362 1365 362 1365 451.5 1386 c 128,-1,14
 541 1407 541 1407 631 1407 c 0,15,16
 712 1407 712 1407 791.5 1385 c 128,-1,17
 871 1363 871 1363 934 1318 c 128,-1,18
 997 1273 997 1273 1036 1205.5 c 128,-1,19
 1075 1138 1075 1138 1075 1047 c 0,20,21
 1075 974 1075 974 1050 922.5 c 128,-1,22
 1025 871 1025 871 987 834.5 c 128,-1,23
 949 798 949 798 904.5 773.5 c 128,-1,24
 860 749 860 749 821 731 c 1,25,26
 835 726 835 726 863 716.5 c 128,-1,27
 891 707 891 707 925.5 689.5 c 128,-1,28
 960 672 960 672 995.5 646 c 128,-1,29
 1031 620 1031 620 1060.5 582.5 c 128,-1,30
 1090 545 1090 545 1109 494 c 128,-1,31
 1128 443 1128 443 1128 377 c 0,32,33
 1128 272 1128 272 1082.5 195 c 128,-1,34
 1037 118 1037 118 961.5 67.5 c 128,-1,35
 886 17 886 17 788.5 -8 c 128,-1,36
 691 -33 691 -33 588 -33 c 0,37,38
 477 -33 477 -33 382.5 -2.5 c 128,-1,39
 288 28 288 28 219.5 82 c 128,-1,40
 151 136 151 136 112.5 210 c 128,-1,41
 74 284 74 284 74 371 c 0,0,1
336 391 m 0,42,43
 336 331 336 331 357 277.5 c 128,-1,44
 378 224 378 224 414.5 184.5 c 128,-1,45
 451 145 451 145 500 121.5 c 128,-1,46
 549 98 549 98 604 98 c 0,47,48
 652 98 652 98 696 111.5 c 128,-1,49
 740 125 740 125 774.5 151.5 c 128,-1,50
 809 178 809 178 829.5 216.5 c 128,-1,51
 850 255 850 255 850 305 c 256,52,53
 850 355 850 355 829.5 395 c 128,-1,54
 809 435 809 435 776 466.5 c 128,-1,55
 743 498 743 498 700.5 523 c 128,-1,56
 658 548 658 548 614 567.5 c 128,-1,57
 570 587 570 587 528.5 603.5 c 128,-1,58
 487 620 487 620 455 635 c 1,59,60
 446 623 446 623 426 602.5 c 128,-1,61
 406 582 406 582 386 552 c 128,-1,62
 366 522 366 522 351 482 c 128,-1,63
 336 442 336 442 336 391 c 0,42,43
410 1081 m 0,64,65
 410 1020 410 1020 437 975 c 128,-1,66
 464 930 464 930 508.5 895 c 128,-1,67
 553 860 553 860 609 832.5 c 128,-1,68
 665 805 665 805 723 780 c 1,69,70
 738 796 738 796 755.5 820 c 128,-1,71
 773 844 773 844 788 875.5 c 128,-1,72
 803 907 803 907 813 946 c 128,-1,73
 823 985 823 985 823 1030 c 0,74,75
 823 1078 823 1078 807.5 1122.5 c 128,-1,76
 792 1167 792 1167 763.5 1201.5 c 128,-1,77
 735 1236 735 1236 695 1257 c 128,-1,78
 655 1278 655 1278 606 1278 c 0,79,80
 565 1278 565 1278 529.5 1262.5 c 128,-1,81
 494 1247 494 1247 467.5 1220.5 c 128,-1,82
 441 1194 441 1194 425.5 1158 c 128,-1,83
 410 1122 410 1122 410 1081 c 0,64,65
EndSplineSet
EndChar

StartChar: nine
Encoding: 57 57 28
Width: 1202
GlyphClass: 2
Flags: W
LayerCount: 2
Fore
SplineSet
74 647.916 m 4,0,1
 74 766.916 74 766.916 114.5 864.416 c 132,-1,2
 155 961.916 155 961.916 225 1030.92 c 132,-1,3
 295 1099.92 295 1099.92 387.5 1137.92 c 132,-1,4
 480 1175.92 480 1175.92 584 1175.92 c 4,5,6
 712 1175.92 712 1175.92 813.5 1134.42 c 132,-1,7
 915 1092.92 915 1092.92 985.5 1012.42 c 132,-1,8
 1056 931.916 1056 931.916 1093 814.416 c 132,-1,9
 1130 696.916 1130 696.916 1130 544.916 c 4,10,11
 1130 343.916 1130 343.916 1066.5 191.416 c 132,-1,12
 1003 38.916 1003 38.916 887 -63.084 c 132,-1,13
 771 -165.084 771 -165.084 608.5 -215.584 c 132,-1,14
 446 -266.084 446 -266.084 248 -264.084 c 5,15,-1
 248 -104.084 l 5,16,-1
 338 -114.084 l 5,17,18
 449 -107.084 449 -107.084 532.5 -73.084 c 132,-1,19
 616 -39.084 616 -39.084 674.5 17.916 c 132,-1,20
 733 74.916 733 74.916 768.5 154.416 c 132,-1,21
 804 233.916 804 233.916 819 333.916 c 5,22,23
 777 304.916 777 304.916 727 282.916 c 4,24,25
 684 262.916 684 262.916 627 247.416 c 132,-1,26
 570 231.916 570 231.916 504 231.916 c 4,27,28
 396 231.916 396 231.916 315 269.416 c 132,-1,29
 234 306.916 234 306.916 180.5 366.916 c 132,-1,30
 127 426.916 127 426.916 100.5 500.916 c 132,-1,31
 74 574.916 74 574.916 74 647.916 c 4,0,1
367 708.916 m 4,32,33
 367 640.916 367 640.916 383 585.416 c 132,-1,34
 399 529.916 399 529.916 432 489.916 c 132,-1,35
 465 449.916 465 449.916 515.5 427.916 c 132,-1,36
 566 405.916 566 405.916 635 405.916 c 4,37,38
 678 405.916 678 405.916 715 412.416 c 132,-1,39
 752 418.916 752 418.916 778 426.916 c 4,40,41
 809 436.916 809 436.916 834 448.916 c 5,42,43
 836 482.916 836 482.916 836.5 513.916 c 132,-1,44
 837 544.916 837 544.916 837 568.916 c 4,45,46
 837 596.916 837 596.916 836 620.916 c 5,47,48
 836 693.916 836 693.916 821.5 768.916 c 132,-1,49
 807 843.916 807 843.916 776 904.916 c 132,-1,50
 745 965.916 745 965.916 697 1004.42 c 132,-1,51
 649 1042.92 649 1042.92 582 1042.92 c 4,52,53
 528 1042.92 528 1042.92 487.5 1015.42 c 132,-1,54
 447 987.916 447 987.916 420.5 941.416 c 132,-1,55
 394 894.916 394 894.916 380.5 834.416 c 132,-1,56
 367 773.916 367 773.916 367 708.916 c 4,32,33
EndSplineSet
EndChar

StartChar: colon
Encoding: 58 58 29
Width: 651
GlyphClass: 2
Flags: W
LayerCount: 2
Fore
SplineSet
129 145 m 0,0,1
 129 181 129 181 142.5 212 c 128,-1,2
 156 243 156 243 179.5 266.5 c 128,-1,3
 203 290 203 290 234.5 303.5 c 128,-1,4
 266 317 266 317 301 317 c 0,5,6
 337 317 337 317 368 303.5 c 128,-1,7
 399 290 399 290 422 266.5 c 128,-1,8
 445 243 445 243 458 212 c 128,-1,9
 471 181 471 181 471 145 c 0,10,11
 471 110 471 110 458 79 c 128,-1,12
 445 48 445 48 422 25 c 128,-1,13
 399 2 399 2 368 -11.5 c 128,-1,14
 337 -25 337 -25 301 -25 c 0,15,16
 266 -25 266 -25 234.5 -11.5 c 128,-1,17
 203 2 203 2 179.5 25 c 128,-1,18
 156 48 156 48 142.5 79 c 128,-1,19
 129 110 129 110 129 145 c 0,0,1
129 852 m 0,20,21
 129 887 129 887 142.5 918.5 c 128,-1,22
 156 950 156 950 179.5 973.5 c 128,-1,23
 203 997 203 997 234.5 1010.5 c 128,-1,24
 266 1024 266 1024 301 1024 c 0,25,26
 337 1024 337 1024 368 1010.5 c 128,-1,27
 399 997 399 997 422 973.5 c 128,-1,28
 445 950 445 950 458 918.5 c 128,-1,29
 471 887 471 887 471 852 c 0,30,31
 471 816 471 816 458 785 c 128,-1,32
 445 754 445 754 422 731 c 128,-1,33
 399 708 399 708 368 695 c 128,-1,34
 337 682 337 682 301 682 c 0,35,36
 266 682 266 682 234.5 695 c 128,-1,37
 203 708 203 708 179.5 731 c 128,-1,38
 156 754 156 754 142.5 785 c 128,-1,39
 129 816 129 816 129 852 c 0,20,21
EndSplineSet
EndChar

StartChar: semicolon
Encoding: 59 59 30
Width: 651
GlyphClass: 2
Flags: W
LayerCount: 2
Fore
SplineSet
72 -260 m 1,0,1
 111 -254 111 -254 155.5 -237.5 c 128,-1,2
 200 -221 200 -221 237 -189 c 128,-1,3
 274 -157 274 -157 297 -107.5 c 128,-1,4
 320 -58 320 -58 317 14 c 1,5,-1
 193 14 l 1,6,7
 174 29 174 29 162 45.5 c 128,-1,8
 150 62 150 62 142.5 79 c 128,-1,9
 135 96 135 96 132 113 c 128,-1,10
 129 130 129 130 129 145 c 0,11,12
 129 184 129 184 143.5 215.5 c 128,-1,13
 158 247 158 247 182 269.5 c 128,-1,14
 206 292 206 292 237 304.5 c 128,-1,15
 268 317 268 317 301 317 c 0,16,17
 394 317 394 317 445 264 c 128,-1,18
 496 211 496 211 496 121 c 0,19,20
 496 57 496 57 478 -2 c 128,-1,21
 460 -61 460 -61 429.5 -113.5 c 128,-1,22
 399 -166 399 -166 357.5 -209.5 c 128,-1,23
 316 -253 316 -253 269 -285.5 c 128,-1,24
 222 -318 222 -318 171.5 -337.5 c 128,-1,25
 121 -357 121 -357 72 -360 c 1,26,-1
 72 -260 l 1,0,1
129 852 m 0,27,28
 129 887 129 887 142.5 918.5 c 128,-1,29
 156 950 156 950 179.5 973.5 c 128,-1,30
 203 997 203 997 234.5 1010.5 c 128,-1,31
 266 1024 266 1024 301 1024 c 0,32,33
 337 1024 337 1024 368 1010.5 c 128,-1,34
 399 997 399 997 422 973.5 c 128,-1,35
 445 950 445 950 458 918.5 c 128,-1,36
 471 887 471 887 471 852 c 0,37,38
 471 816 471 816 458 785 c 128,-1,39
 445 754 445 754 422 731 c 128,-1,40
 399 708 399 708 368 695 c 128,-1,41
 337 682 337 682 301 682 c 0,42,43
 266 682 266 682 234.5 695 c 128,-1,44
 203 708 203 708 179.5 731 c 128,-1,45
 156 754 156 754 142.5 785 c 128,-1,46
 129 816 129 816 129 852 c 0,27,28
EndSplineSet
EndChar

StartChar: less
Encoding: 60 60 31
Width: 2048
GlyphClass: 2
Flags: W
LayerCount: 2
Fore
SplineSet
410 551 m 1,0,-1
 410 678 l 1,1,-1
 1638 1149 l 1,2,-1
 1638 1022 l 1,3,-1
 541 614 l 1,4,-1
 1638 207 l 1,5,-1
 1638 80 l 1,6,-1
 410 551 l 1,0,-1
EndSplineSet
EndChar

StartChar: equal
Encoding: 61 61 32
Width: 2048
GlyphClass: 2
Flags: W
LayerCount: 2
Fore
SplineSet
410 365 m 1,0,-1
 410 492 l 1,1,-1
 1638 492 l 1,2,-1
 1638 365 l 1,3,-1
 410 365 l 1,0,-1
410 737 m 1,4,-1
 410 864 l 1,5,-1
 1638 864 l 1,6,-1
 1638 737 l 1,7,-1
 410 737 l 1,4,-1
EndSplineSet
EndChar

StartChar: greater
Encoding: 62 62 33
Width: 2048
GlyphClass: 2
Flags: W
LayerCount: 2
Fore
SplineSet
410 80 m 1,0,-1
 410 207 l 1,1,-1
 1507 614 l 1,2,-1
 410 1022 l 1,3,-1
 410 1149 l 1,4,-1
 1638 678 l 1,5,-1
 1638 551 l 1,6,-1
 410 80 l 1,0,-1
EndSplineSet
EndChar

StartChar: question
Encoding: 63 63 34
Width: 1069
GlyphClass: 2
Flags: W
LayerCount: 2
Fore
SplineSet
90 1163 m 0,0,1
 90 1230 90 1230 126.5 1276.5 c 128,-1,2
 163 1323 163 1323 219 1352 c 128,-1,3
 275 1381 275 1381 343 1394 c 128,-1,4
 411 1407 411 1407 473 1407 c 0,5,6
 572 1407 572 1407 657 1379.5 c 128,-1,7
 742 1352 742 1352 804.5 1301.5 c 128,-1,8
 867 1251 867 1251 902.5 1179 c 128,-1,9
 938 1107 938 1107 938 1018 c 0,10,11
 938 953 938 953 919 899.5 c 128,-1,12
 900 846 900 846 868.5 802.5 c 128,-1,13
 837 759 837 759 797.5 726 c 128,-1,14
 758 693 758 693 716 668 c 0,15,16
 618 610 618 610 494 580 c 1,17,-1
 494 406 l 1,18,-1
 354 406 l 1,19,-1
 354 678 l 1,20,21
 437 700 437 700 502 745 c 0,22,23
 530 764 530 764 556.5 790 c 128,-1,24
 583 816 583 816 604 850 c 128,-1,25
 625 884 625 884 638 926.5 c 128,-1,26
 651 969 651 969 651 1022 c 0,27,28
 651 1080 651 1080 634.5 1127.5 c 128,-1,29
 618 1175 618 1175 584.5 1209.5 c 128,-1,30
 551 1244 551 1244 500.5 1263 c 128,-1,31
 450 1282 450 1282 383 1282 c 1,32,-1
 291 1036 l 2,33,34
 290 1035 290 1035 286 1034 c 0,35,36
 283 1033 283 1033 278.5 1032.5 c 128,-1,37
 274 1032 274 1032 266 1032 c 0,38,39
 246 1032 246 1032 216 1034.5 c 128,-1,40
 186 1037 186 1037 158 1050 c 128,-1,41
 130 1063 130 1063 110 1089 c 128,-1,42
 90 1115 90 1115 90 1163 c 0,0,1
268 141 m 0,43,44
 268 175 268 175 280.5 204.5 c 128,-1,45
 293 234 293 234 314 256.5 c 128,-1,46
 335 279 335 279 364 292 c 128,-1,47
 393 305 393 305 426 305 c 0,48,49
 463 305 463 305 493.5 291 c 128,-1,50
 524 277 524 277 546 253.5 c 128,-1,51
 568 230 568 230 580 198.5 c 128,-1,52
 592 167 592 167 592 133 c 256,53,54
 592 99 592 99 578.5 70 c 128,-1,55
 565 41 565 41 542 20 c 128,-1,56
 519 -1 519 -1 488.5 -13 c 128,-1,57
 458 -25 458 -25 424 -25 c 0,58,59
 391 -25 391 -25 362.5 -11.5 c 128,-1,60
 334 2 334 2 313 25 c 128,-1,61
 292 48 292 48 280 78 c 128,-1,62
 268 108 268 108 268 141 c 0,43,44
EndSplineSet
EndChar

StartChar: at
Encoding: 64 64 35
Width: 1917
GlyphClass: 2
Flags: W
LayerCount: 2
Fore
SplineSet
119 481 m 0,0,1
 119 630 119 630 155 757 c 128,-1,2
 191 884 191 884 255.5 987 c 128,-1,3
 320 1090 320 1090 409 1168.5 c 128,-1,4
 498 1247 498 1247 603.5 1300 c 128,-1,5
 709 1353 709 1353 827.5 1380 c 128,-1,6
 946 1407 946 1407 1069 1407 c 0,7,8
 1235 1407 1235 1407 1370 1363 c 128,-1,9
 1505 1319 1505 1319 1600 1235.5 c 128,-1,10
 1695 1152 1695 1152 1746.5 1030.5 c 128,-1,11
 1798 909 1798 909 1798 754 c 0,12,13
 1798 652 1798 652 1775.5 564.5 c 128,-1,14
 1753 477 1753 477 1714.5 404.5 c 128,-1,15
 1676 332 1676 332 1624.5 275.5 c 128,-1,16
 1573 219 1573 219 1514 180.5 c 128,-1,17
 1455 142 1455 142 1392.5 122 c 128,-1,18
 1330 102 1330 102 1270 102 c 0,19,20
 1223 102 1223 102 1191.5 114 c 128,-1,21
 1160 126 1160 126 1139.5 145.5 c 128,-1,22
 1119 165 1119 165 1108.5 191 c 128,-1,23
 1098 217 1098 217 1094 246 c 1,24,25
 1062 219 1062 219 1029 193.5 c 128,-1,26
 996 168 996 168 961 148 c 128,-1,27
 926 128 926 128 889 116 c 128,-1,28
 852 104 852 104 813 104 c 0,29,30
 743 104 743 104 690 129.5 c 128,-1,31
 637 155 637 155 601 200.5 c 128,-1,32
 565 246 565 246 546.5 308 c 128,-1,33
 528 370 528 370 528 444 c 0,34,35
 528 559 528 559 570.5 660.5 c 128,-1,36
 613 762 613 762 686 838.5 c 128,-1,37
 759 915 759 915 857.5 959.5 c 128,-1,38
 956 1004 956 1004 1067 1004 c 0,39,40
 1091 1004 1091 1004 1115.5 998 c 128,-1,41
 1140 992 1140 992 1164 982.5 c 128,-1,42
 1188 973 1188 973 1210.5 962 c 128,-1,43
 1233 951 1233 951 1253 942 c 1,44,-1
 1280 993 l 1,45,-1
 1452 993 l 1,46,-1
 1442 955 l 2,47,48
 1435 925 1435 925 1424.5 881 c 128,-1,49
 1414 837 1414 837 1401.5 783 c 128,-1,50
 1389 729 1389 729 1376 674 c 0,51,52
 1346 545 1346 545 1309 385 c 0,53,54
 1301 351 1301 351 1297 323 c 128,-1,55
 1293 295 1293 295 1297 275 c 128,-1,56
 1301 255 1301 255 1314.5 244 c 128,-1,57
 1328 233 1328 233 1356 233 c 0,58,59
 1376 233 1376 233 1405.5 248.5 c 128,-1,60
 1435 264 1435 264 1466.5 294 c 128,-1,61
 1498 324 1498 324 1529 368.5 c 128,-1,62
 1560 413 1560 413 1584.5 470.5 c 128,-1,63
 1609 528 1609 528 1624.5 598.5 c 128,-1,64
 1640 669 1640 669 1640 752 c 0,65,66
 1640 849 1640 849 1617 927.5 c 128,-1,67
 1594 1006 1594 1006 1555 1067 c 128,-1,68
 1516 1128 1516 1128 1462.5 1172.5 c 128,-1,69
 1409 1217 1409 1217 1349 1246 c 128,-1,70
 1289 1275 1289 1275 1224 1289 c 128,-1,71
 1159 1303 1159 1303 1096 1303 c 0,72,73
 988 1303 988 1303 889.5 1276.5 c 128,-1,74
 791 1250 791 1250 705.5 1201.5 c 128,-1,75
 620 1153 620 1153 550 1083 c 128,-1,76
 480 1013 480 1013 430 925.5 c 128,-1,77
 380 838 380 838 353 735.5 c 128,-1,78
 326 633 326 633 326 518 c 0,79,80
 326 360 326 360 375 227.5 c 128,-1,81
 424 95 424 95 514 -2 c 128,-1,82
 604 -99 604 -99 731 -153 c 128,-1,83
 858 -207 858 -207 1014 -207 c 0,84,85
 1095 -207 1095 -207 1168 -193.5 c 128,-1,86
 1241 -180 1241 -180 1309 -157 c 128,-1,87
 1377 -134 1377 -134 1442.5 -102.5 c 128,-1,88
 1508 -71 1508 -71 1573 -35 c 1,89,-1
 1616 -137 l 1,90,91
 1547 -173 1547 -173 1473 -206.5 c 128,-1,92
 1399 -240 1399 -240 1319 -265.5 c 128,-1,93
 1239 -291 1239 -291 1150.5 -306.5 c 128,-1,94
 1062 -322 1062 -322 965 -322 c 0,95,96
 845 -322 845 -322 736 -296.5 c 128,-1,97
 627 -271 627 -271 533 -222 c 128,-1,98
 439 -173 439 -173 362.5 -103 c 128,-1,99
 286 -33 286 -33 232 56.5 c 128,-1,100
 178 146 178 146 148.5 252.5 c 128,-1,101
 119 359 119 359 119 481 c 0,0,1
774 463 m 0,102,103
 774 405 774 405 785.5 364.5 c 128,-1,104
 797 324 797 324 816 298.5 c 128,-1,105
 835 273 835 273 858 261.5 c 128,-1,106
 881 250 881 250 905 250 c 0,107,108
 938 250 938 250 964.5 262.5 c 128,-1,109
 991 275 991 275 1012.5 294 c 128,-1,110
 1034 313 1034 313 1052 335 c 128,-1,111
 1070 357 1070 357 1085 375 c 1,112,-1
 1167 795 l 2,113,114
 1170 807 1170 807 1165.5 825.5 c 128,-1,115
 1161 844 1161 844 1150 861 c 128,-1,116
 1139 878 1139 878 1120 890.5 c 128,-1,117
 1101 903 1101 903 1075 903 c 0,118,119
 1013 903 1013 903 958.5 870 c 128,-1,120
 904 837 904 837 863 778.5 c 128,-1,121
 822 720 822 720 798 639 c 128,-1,122
 774 558 774 558 774 463 c 0,102,103
EndSplineSet
EndChar

StartChar: A
Encoding: 65 65 36
Width: 1405
GlyphClass: 2
Flags: W
LayerCount: 2
Fore
SplineSet
10 0 m 1,0,-1
 10 104 l 1,1,-1
 125 121 l 1,2,-1
 584 1407 l 1,3,-1
 817 1407 l 1,4,-1
 1272 158 l 1,5,6
 1280 139 1280 139 1287.5 131.5 c 128,-1,7
 1295 124 1295 124 1317 119 c 2,8,-1
 1395 104 l 1,9,-1
 1395 0 l 1,10,-1
 829 0 l 1,11,-1
 829 104 l 1,12,-1
 950 119 l 2,13,14
 960 121 960 121 967 132 c 128,-1,15
 974 143 974 143 969 154 c 1,16,-1
 858 479 l 1,17,-1
 420 479 l 1,18,-1
 307 162 l 2,19,20
 301 146 301 146 313 133 c 128,-1,21
 325 120 325 120 336 119 c 2,22,-1
 451 104 l 1,23,-1
 451 0 l 1,24,-1
 10 0 l 1,0,-1
459 600 m 1,25,-1
 807 600 l 1,26,-1
 631 1092 l 1,27,-1
 459 600 l 1,25,-1
EndSplineSet
EndChar

StartChar: B
Encoding: 66 66 37
Width: 1309
GlyphClass: 2
Flags: W
LayerCount: 2
Fore
SplineSet
57 0 m 1,0,-1
 57 104 l 1,1,-1
 168 115 l 2,2,3
 187 117 187 117 200 128.5 c 128,-1,4
 213 140 213 140 213 160 c 2,5,-1
 213 1214 l 2,6,7
 213 1234 213 1234 200 1246 c 128,-1,8
 187 1258 187 1258 168 1260 c 2,9,-1
 57 1270 l 1,10,-1
 57 1374 l 1,11,-1
 717 1374 l 2,12,13
 754 1374 754 1374 800.5 1370.5 c 128,-1,14
 847 1367 847 1367 895.5 1355.5 c 128,-1,15
 944 1344 944 1344 990 1323 c 128,-1,16
 1036 1302 1036 1302 1072.5 1266.5 c 128,-1,17
 1109 1231 1109 1231 1131 1179.5 c 128,-1,18
 1153 1128 1153 1128 1153 1057 c 0,19,20
 1153 995 1153 995 1136 948 c 128,-1,21
 1119 901 1119 901 1092 866 c 128,-1,22
 1065 831 1065 831 1032 807 c 128,-1,23
 999 783 999 783 966.5 767 c 128,-1,24
 934 751 934 751 906 742.5 c 128,-1,25
 878 734 878 734 863 731 c 1,26,27
 900 730 900 730 942.5 724 c 128,-1,28
 985 718 985 718 1026 703.5 c 128,-1,29
 1067 689 1067 689 1104.5 665 c 128,-1,30
 1142 641 1142 641 1170.5 604.5 c 128,-1,31
 1199 568 1199 568 1216 517.5 c 128,-1,32
 1233 467 1233 467 1233 399 c 0,33,34
 1233 303 1233 303 1212 236.5 c 128,-1,35
 1191 170 1191 170 1155.5 125.5 c 128,-1,36
 1120 81 1120 81 1072.5 56 c 128,-1,37
 1025 31 1025 31 972.5 18.5 c 128,-1,38
 920 6 920 6 865.5 3 c 128,-1,39
 811 0 811 0 760 0 c 2,40,-1
 57 0 l 1,0,-1
506 121 m 1,41,42
 529 120 529 120 549 119 c 0,43,44
 566 118 566 118 581.5 117.5 c 128,-1,45
 597 117 597 117 602 117 c 0,46,47
 680 117 680 117 740.5 131 c 128,-1,48
 801 145 801 145 842.5 177 c 128,-1,49
 884 209 884 209 905 260 c 128,-1,50
 926 311 926 311 926 385 c 0,51,52
 926 517 926 517 850 581 c 128,-1,53
 774 645 774 645 608 645 c 2,54,-1
 571 645 l 2,55,56
 549 645 549 645 506 643 c 1,57,-1
 506 121 l 1,41,42
506 768 m 1,58,59
 517 767 517 767 528 767 c 1,60,61
 537 766 537 766 545 766 c 2,62,-1
 557 766 l 2,63,64
 645 766 645 766 702 786 c 128,-1,65
 759 806 759 806 792.5 840.5 c 128,-1,66
 826 875 826 875 839 922.5 c 128,-1,67
 852 970 852 970 852 1024 c 0,68,69
 852 1069 852 1069 842 1111.5 c 128,-1,70
 832 1154 832 1154 803.5 1187 c 128,-1,71
 775 1220 775 1220 723.5 1240 c 128,-1,72
 672 1260 672 1260 590 1260 c 2,73,-1
 580 1260 l 2,74,75
 577 1260 577 1260 569.5 1259.5 c 128,-1,76
 562 1259 562 1259 547.5 1258 c 128,-1,77
 533 1257 533 1257 506 1255 c 1,78,-1
 506 768 l 1,58,59
EndSplineSet
EndChar

StartChar: C
Encoding: 67 67 38
Width: 1303
GlyphClass: 2
Flags: W
LayerCount: 2
Fore
SplineSet
76 688 m 0,0,1
 76 848 76 848 131.5 980 c 128,-1,2
 187 1112 187 1112 284 1207 c 128,-1,3
 381 1302 381 1302 513 1354.5 c 128,-1,4
 645 1407 645 1407 797 1407 c 0,5,6
 855 1407 855 1407 903 1402 c 128,-1,7
 951 1397 951 1397 999.5 1386.5 c 128,-1,8
 1048 1376 1048 1376 1102.5 1360 c 128,-1,9
 1157 1344 1157 1344 1229 1321 c 1,10,-1
 1229 973 l 1,11,-1
 1069 973 l 1,12,-1
 1024 1202 l 2,13,14
 1024 1207 1024 1207 1016 1218.5 c 128,-1,15
 1008 1230 1008 1230 997 1235 c 0,16,17
 989 1239 989 1239 972.5 1244.5 c 128,-1,18
 956 1250 956 1250 935.5 1255 c 128,-1,19
 915 1260 915 1260 893 1264 c 128,-1,20
 871 1268 871 1268 852 1268 c 0,21,22
 747 1268 747 1268 662.5 1226.5 c 128,-1,23
 578 1185 578 1185 519 1108.5 c 128,-1,24
 460 1032 460 1032 428.5 924.5 c 128,-1,25
 397 817 397 817 397 684 c 0,26,27
 397 612 397 612 408 541 c 128,-1,28
 419 470 419 470 442.5 405 c 128,-1,29
 466 340 466 340 503.5 284.5 c 128,-1,30
 541 229 541 229 593 188 c 128,-1,31
 645 147 645 147 713.5 123.5 c 128,-1,32
 782 100 782 100 868 100 c 0,33,34
 906 100 906 100 938 109.5 c 128,-1,35
 970 119 970 119 987 127 c 0,36,37
 995 130 995 130 1007 143.5 c 128,-1,38
 1019 157 1019 157 1022 166 c 1,39,-1
 1067 408 l 1,40,-1
 1229 408 l 1,41,-1
 1229 49 l 1,42,43
 1210 41 1210 41 1169.5 27.5 c 128,-1,44
 1129 14 1129 14 1072 0.5 c 128,-1,45
 1015 -13 1015 -13 944.5 -23 c 128,-1,46
 874 -33 874 -33 795 -33 c 0,47,48
 690 -33 690 -33 596 -9 c 128,-1,49
 502 15 502 15 422 60 c 128,-1,50
 342 105 342 105 278 169 c 128,-1,51
 214 233 214 233 169 313.5 c 128,-1,52
 124 394 124 394 100 488.5 c 128,-1,53
 76 583 76 583 76 688 c 0,0,1
EndSplineSet
EndChar

StartChar: D
Encoding: 68 68 39
Width: 1483
GlyphClass: 2
Flags: W
LayerCount: 2
Fore
SplineSet
53 0 m 1,0,-1
 53 104 l 1,1,-1
 166 115 l 2,2,3
 184 117 184 117 198.5 128.5 c 128,-1,4
 213 140 213 140 213 160 c 2,5,-1
 213 1214 l 2,6,7
 213 1234 213 1234 198.5 1246 c 128,-1,8
 184 1258 184 1258 166 1260 c 2,9,-1
 53 1270 l 1,10,-1
 53 1374 l 1,11,-1
 680 1374 l 2,12,13
 855 1374 855 1374 990.5 1325 c 128,-1,14
 1126 1276 1126 1276 1218.5 1187.5 c 128,-1,15
 1311 1099 1311 1099 1359 975.5 c 128,-1,16
 1407 852 1407 852 1407 702 c 0,17,18
 1407 526 1407 526 1356.5 394.5 c 128,-1,19
 1306 263 1306 263 1212.5 175 c 128,-1,20
 1119 87 1119 87 987 43.5 c 128,-1,21
 855 0 855 0 692 0 c 2,22,-1
 53 0 l 1,0,-1
506 121 m 1,23,-1
 676 125 l 2,24,25
 720 126 720 126 767 137 c 128,-1,26
 814 148 814 148 858.5 173 c 128,-1,27
 903 198 903 198 942.5 239.5 c 128,-1,28
 982 281 982 281 1012 342.5 c 128,-1,29
 1042 404 1042 404 1059.5 487.5 c 128,-1,30
 1077 571 1077 571 1077 680 c 0,31,32
 1077 798 1077 798 1059 886.5 c 128,-1,33
 1041 975 1041 975 1009.5 1038.5 c 128,-1,34
 978 1102 978 1102 935 1144 c 128,-1,35
 892 1186 892 1186 843 1210.5 c 128,-1,36
 794 1235 794 1235 741 1245 c 128,-1,37
 688 1255 688 1255 635 1255 c 2,38,-1
 506 1255 l 1,39,-1
 506 121 l 1,23,-1
EndSplineSet
EndChar

StartChar: E
Encoding: 69 69 40
Width: 1225
GlyphClass: 2
Flags: W
LayerCount: 2
Fore
SplineSet
53 0 m 1,0,-1
 53 104 l 1,1,-1
 166 115 l 2,2,3
 184 117 184 117 198.5 128.5 c 128,-1,4
 213 140 213 140 213 160 c 2,5,-1
 213 1214 l 2,6,7
 213 1234 213 1234 198.5 1246 c 128,-1,8
 184 1258 184 1258 166 1260 c 2,9,-1
 53 1270 l 1,10,-1
 53 1374 l 1,11,-1
 1098 1374 l 1,12,-1
 1098 1047 l 1,13,-1
 950 1047 l 1,14,-1
 918 1217 l 1,15,16
 914 1232 914 1232 904.5 1243.5 c 128,-1,17
 895 1255 895 1255 881 1255 c 2,18,-1
 500 1255 l 1,19,-1
 500 774 l 1,20,-1
 743 774 l 2,21,22
 757 774 757 774 766.5 787 c 128,-1,23
 776 800 776 800 778 811 c 2,24,-1
 797 950 l 1,25,-1
 924 950 l 1,26,-1
 924 469 l 1,27,-1
 797 469 l 1,28,-1
 778 608 l 2,29,30
 776 619 776 619 766.5 632 c 128,-1,31
 757 645 757 645 743 645 c 2,32,-1
 500 645 l 1,33,-1
 500 123 l 1,34,-1
 946 123 l 2,35,36
 959 123 959 123 970 137 c 128,-1,37
 981 151 981 151 983 162 c 2,38,-1
 1014 375 l 1,39,-1
 1163 375 l 1,40,-1
 1163 0 l 1,41,-1
 53 0 l 1,0,-1
EndSplineSet
EndChar

StartChar: F
Encoding: 70 70 41
Width: 1145
GlyphClass: 2
Flags: W
LayerCount: 2
Fore
SplineSet
49 1270 m 1,0,-1
 49 1374 l 1,1,-1
 1090 1374 l 1,2,-1
 1090 1024 l 1,3,-1
 942 1024 l 1,4,-1
 913 1210 l 2,5,6
 910 1226 910 1226 900.5 1237.5 c 128,-1,7
 891 1249 891 1249 877 1249 c 2,8,-1
 506 1249 l 1,9,-1
 506 745 l 1,10,-1
 760 745 l 2,11,12
 774 745 774 745 783.5 758 c 128,-1,13
 793 771 793 771 795 782 c 2,14,-1
 815 922 l 1,15,-1
 942 922 l 1,16,-1
 942 438 l 1,17,-1
 815 438 l 1,18,-1
 795 578 l 2,19,20
 793 589 793 589 782.5 601.5 c 128,-1,21
 772 614 772 614 760 614 c 2,22,-1
 506 614 l 1,23,-1
 506 160 l 2,24,25
 506 140 506 140 519 128.5 c 128,-1,26
 532 117 532 117 551 115 c 2,27,-1
 684 104 l 1,28,-1
 684 0 l 1,29,-1
 55 0 l 1,30,-1
 55 104 l 1,31,-1
 166 115 l 2,32,33
 184 117 184 117 198.5 128.5 c 128,-1,34
 213 140 213 140 213 160 c 2,35,-1
 213 1214 l 2,36,37
 213 1234 213 1234 198.5 1246 c 128,-1,38
 184 1258 184 1258 166 1260 c 2,39,-1
 49 1270 l 1,0,-1
EndSplineSet
EndChar

StartChar: G
Encoding: 71 71 42
Width: 1466
GlyphClass: 2
Flags: W
LayerCount: 2
Fore
SplineSet
76 690 m 0,0,1
 76 856 76 856 131 989 c 128,-1,2
 186 1122 186 1122 283.5 1215 c 128,-1,3
 381 1308 381 1308 515.5 1357.5 c 128,-1,4
 650 1407 650 1407 809 1407 c 0,5,6
 910 1407 910 1407 994 1394.5 c 128,-1,7
 1078 1382 1078 1382 1140 1367 c 0,8,9
 1212 1349 1212 1349 1270 1327 c 1,10,-1
 1270 973 l 1,11,-1
 1110 973 l 1,12,-1
 1069 1194 l 2,13,14
 1067 1205 1067 1205 1056 1218.5 c 128,-1,15
 1045 1232 1045 1232 1032 1237 c 0,16,17
 984 1255 984 1255 943 1263.5 c 128,-1,18
 902 1272 902 1272 885 1272 c 0,19,20
 796 1272 796 1272 724.5 1249.5 c 128,-1,21
 653 1227 653 1227 598.5 1187.5 c 128,-1,22
 544 1148 544 1148 505 1094 c 128,-1,23
 466 1040 466 1040 441 976 c 128,-1,24
 416 912 416 912 404.5 841.5 c 128,-1,25
 393 771 393 771 393 698 c 0,26,27
 393 566 393 566 426 459.5 c 128,-1,28
 459 353 459 353 522.5 277.5 c 128,-1,29
 586 202 586 202 679 161.5 c 128,-1,30
 772 121 772 121 893 121 c 0,31,32
 907 121 907 121 927.5 119.5 c 128,-1,33
 948 118 948 118 985 121 c 1,34,-1
 985 520 l 2,35,36
 985 540 985 540 971 552.5 c 128,-1,37
 957 565 957 565 938 565 c 1,38,-1
 801 575 l 1,39,-1
 801 680 l 1,40,-1
 1419 680 l 1,41,-1
 1419 575 l 1,42,-1
 1315 565 l 2,43,44
 1296 563 1296 563 1282 551.5 c 128,-1,45
 1268 540 1268 540 1268 520 c 2,46,-1
 1268 63 l 1,47,48
 1207 36 1207 36 1133 15 c 0,49,50
 1069 -3 1069 -3 982.5 -18 c 128,-1,51
 896 -33 896 -33 793 -33 c 0,52,53
 639 -33 639 -33 508 18.5 c 128,-1,54
 377 70 377 70 281 165 c 128,-1,55
 185 260 185 260 130.5 393 c 128,-1,56
 76 526 76 526 76 690 c 0,0,1
EndSplineSet
EndChar

StartChar: H
Encoding: 72 72 43
Width: 1575
GlyphClass: 2
Flags: W
LayerCount: 2
Fore
SplineSet
61 0 m 1,0,-1
 61 104 l 1,1,-1
 168 115 l 2,2,3
 187 117 187 117 200 128.5 c 128,-1,4
 213 140 213 140 213 160 c 2,5,-1
 213 1214 l 2,6,7
 213 1234 213 1234 200 1246 c 128,-1,8
 187 1258 187 1258 168 1260 c 2,9,-1
 61 1270 l 1,10,-1
 61 1374 l 1,11,-1
 659 1374 l 1,12,-1
 659 1270 l 1,13,-1
 551 1260 l 2,14,15
 532 1258 532 1258 519 1246 c 128,-1,16
 506 1234 506 1234 506 1214 c 2,17,-1
 506 786 l 1,18,-1
 1069 786 l 1,19,-1
 1069 1214 l 2,20,21
 1069 1234 1069 1234 1056 1246 c 128,-1,22
 1043 1258 1043 1258 1024 1260 c 2,23,-1
 918 1270 l 1,24,-1
 918 1374 l 1,25,-1
 1513 1374 l 1,26,-1
 1513 1270 l 1,27,-1
 1407 1260 l 2,28,29
 1390 1258 1390 1258 1376 1246 c 128,-1,30
 1362 1234 1362 1234 1362 1214 c 2,31,-1
 1362 160 l 2,32,33
 1362 140 1362 140 1375 128.5 c 128,-1,34
 1388 117 1388 117 1407 115 c 2,35,-1
 1513 104 l 1,36,-1
 1513 0 l 1,37,-1
 918 0 l 1,38,-1
 918 104 l 1,39,-1
 1024 115 l 2,40,41
 1043 117 1043 117 1056 128.5 c 128,-1,42
 1069 140 1069 140 1069 160 c 2,43,-1
 1069 655 l 1,44,-1
 506 655 l 1,45,-1
 506 160 l 2,46,47
 506 140 506 140 519 128.5 c 128,-1,48
 532 117 532 117 551 115 c 2,49,-1
 659 104 l 1,50,-1
 659 0 l 1,51,-1
 61 0 l 1,0,-1
EndSplineSet
EndChar

StartChar: I
Encoding: 73 73 44
Width: 735
GlyphClass: 2
Flags: W
LayerCount: 2
Fore
SplineSet
47 0 m 1,0,-1
 47 104 l 1,1,-1
 174 115 l 2,2,3
 193 117 193 117 206 128.5 c 128,-1,4
 219 140 219 140 219 160 c 2,5,-1
 219 1214 l 2,6,7
 219 1234 219 1234 206 1246 c 128,-1,8
 193 1258 193 1258 174 1260 c 2,9,-1
 47 1270 l 1,10,-1
 47 1374 l 1,11,-1
 686 1374 l 1,12,-1
 686 1270 l 1,13,-1
 559 1260 l 2,14,15
 542 1258 542 1258 527 1246 c 128,-1,16
 512 1234 512 1234 512 1214 c 2,17,-1
 512 160 l 2,18,19
 512 140 512 140 527 128.5 c 128,-1,20
 542 117 542 117 559 115 c 2,21,-1
 686 104 l 1,22,-1
 686 0 l 1,23,-1
 47 0 l 1,0,-1
EndSplineSet
EndChar

StartChar: J
Encoding: 74 74 45
Width: 1049
GlyphClass: 2
Flags: W
LayerCount: 2
Fore
SplineSet
49 25 m 1,0,-1
 49 399 l 1,1,-1
 209 399 l 1,2,-1
 256 125 l 1,3,4
 259 115 259 115 266 107 c 0,5,6
 272 100 272 100 282 95 c 128,-1,7
 292 90 292 90 309 90 c 0,8,9
 366 90 366 90 409.5 111 c 128,-1,10
 453 132 453 132 483 180 c 128,-1,11
 513 228 513 228 528 307 c 128,-1,12
 543 386 543 386 543 502 c 2,13,-1
 543 1214 l 2,14,15
 543 1234 543 1234 529 1246 c 128,-1,16
 515 1258 515 1258 498 1260 c 2,17,-1
 371 1270 l 1,18,-1
 371 1374 l 1,19,-1
 1004 1374 l 1,20,-1
 1004 1270 l 1,21,-1
 879 1260 l 2,22,23
 860 1258 860 1258 847 1246 c 128,-1,24
 834 1234 834 1234 834 1214 c 2,25,-1
 834 496 l 2,26,27
 834 377 834 377 806 280 c 128,-1,28
 778 183 778 183 719.5 113 c 128,-1,29
 661 43 661 43 570.5 5 c 128,-1,30
 480 -33 480 -33 354 -33 c 0,31,32
 312 -33 312 -33 268 -27 c 128,-1,33
 224 -21 224 -21 183.5 -12.5 c 128,-1,34
 143 -4 143 -4 108 6 c 128,-1,35
 73 16 73 16 49 25 c 1,0,-1
EndSplineSet
EndChar

StartChar: K
Encoding: 75 75 46
Width: 1397
GlyphClass: 2
Flags: W
LayerCount: 2
Fore
SplineSet
59 0 m 1,0,-1
 59 104 l 1,1,-1
 168 115 l 2,2,3
 187 117 187 117 200 128.5 c 128,-1,4
 213 140 213 140 213 160 c 2,5,-1
 213 1214 l 2,6,7
 213 1234 213 1234 200 1246 c 128,-1,8
 187 1258 187 1258 168 1260 c 2,9,-1
 59 1270 l 1,10,-1
 59 1374 l 1,11,-1
 659 1374 l 1,12,-1
 659 1270 l 1,13,-1
 551 1260 l 2,14,15
 532 1258 532 1258 519 1246 c 128,-1,16
 506 1234 506 1234 506 1214 c 2,17,-1
 506 698 l 1,18,-1
 563 698 l 1,19,-1
 1004 1235 l 2,20,21
 1009 1241 1009 1241 1006.5 1250.5 c 128,-1,22
 1004 1260 1004 1260 993 1260 c 2,23,-1
 877 1270 l 1,24,-1
 877 1374 l 1,25,-1
 1346 1374 l 1,26,-1
 1346 1270 l 1,27,28
 1324 1268 1324 1268 1299 1266 c 0,29,30
 1278 1264 1278 1264 1252.5 1261.5 c 128,-1,31
 1227 1259 1227 1259 1202 1257 c 1,32,-1
 821 803 l 1,33,-1
 1251 117 l 1,34,-1
 1397 104 l 1,35,-1
 1397 0 l 1,36,-1
 952 0 l 1,37,-1
 952 76 l 1,38,-1
 618 600 l 1,39,-1
 506 600 l 1,40,-1
 506 160 l 2,41,42
 506 140 506 140 519 128.5 c 128,-1,43
 532 117 532 117 551 115 c 2,44,-1
 659 104 l 1,45,-1
 659 0 l 1,46,-1
 59 0 l 1,0,-1
EndSplineSet
EndChar

StartChar: L
Encoding: 76 76 47
Width: 1135
GlyphClass: 2
Flags: W
LayerCount: 2
Fore
SplineSet
55 0 m 1,0,-1
 55 104 l 1,1,-1
 168 115 l 2,2,3
 187 117 187 117 200 128.5 c 128,-1,4
 213 140 213 140 213 160 c 2,5,-1
 213 1214 l 2,6,7
 213 1234 213 1234 200 1246 c 128,-1,8
 187 1258 187 1258 168 1260 c 2,9,-1
 55 1270 l 1,10,-1
 55 1374 l 1,11,-1
 666 1374 l 1,12,-1
 666 1270 l 1,13,-1
 551 1260 l 2,14,15
 532 1258 532 1258 519 1246 c 128,-1,16
 506 1234 506 1234 506 1214 c 2,17,-1
 506 125 l 1,18,-1
 862 125 l 2,19,20
 873 125 873 125 881.5 130 c 128,-1,21
 890 135 890 135 896.5 142.5 c 128,-1,22
 903 150 903 150 906.5 158 c 128,-1,23
 910 166 910 166 911 172 c 2,24,-1
 938 408 l 1,25,-1
 1102 408 l 1,26,-1
 1102 0 l 1,27,-1
 55 0 l 1,0,-1
EndSplineSet
EndChar

StartChar: M
Encoding: 77 77 48
Width: 1849
GlyphClass: 2
Flags: W
LayerCount: 2
Fore
SplineSet
51 0 m 1,0,-1
 51 104 l 1,1,-1
 166 115 l 2,2,3
 184 117 184 117 198.5 128.5 c 128,-1,4
 213 140 213 140 213 160 c 2,5,-1
 213 1214 l 2,6,7
 213 1234 213 1234 198.5 1246 c 128,-1,8
 184 1258 184 1258 166 1260 c 2,9,-1
 51 1270 l 1,10,-1
 51 1374 l 1,11,-1
 639 1374 l 1,12,-1
 639 1317 l 1,13,-1
 928 440 l 1,14,-1
 1214 1317 l 1,15,-1
 1214 1374 l 1,16,-1
 1796 1374 l 1,17,-1
 1796 1270 l 1,18,-1
 1679 1260 l 2,19,20
 1661 1258 1661 1258 1647.5 1246 c 128,-1,21
 1634 1234 1634 1234 1634 1214 c 2,22,-1
 1634 160 l 2,23,24
 1634 140 1634 140 1647.5 128.5 c 128,-1,25
 1661 117 1661 117 1679 115 c 2,26,-1
 1796 104 l 1,27,-1
 1796 0 l 1,28,-1
 1196 0 l 1,29,-1
 1196 104 l 1,30,-1
 1296 115 l 2,31,32
 1313 117 1313 117 1327 128.5 c 128,-1,33
 1341 140 1341 140 1341 160 c 2,34,-1
 1341 1235 l 1,35,-1
 930 0 l 1,36,-1
 772 0 l 1,37,-1
 369 1227 l 1,38,-1
 369 160 l 2,39,40
 369 140 369 140 383 128.5 c 128,-1,41
 397 117 397 117 414 115 c 2,42,-1
 524 104 l 1,43,-1
 524 0 l 1,44,-1
 51 0 l 1,0,-1
EndSplineSet
EndChar

StartChar: N
Encoding: 78 78 49
Width: 1524
GlyphClass: 2
Flags: W
LayerCount: 2
Fore
SplineSet
55 0 m 1,0,-1
 55 104 l 1,1,-1
 168 115 l 2,2,3
 187 117 187 117 200 128.5 c 128,-1,4
 213 140 213 140 213 160 c 2,5,-1
 213 1214 l 2,6,7
 213 1234 213 1234 200 1246 c 128,-1,8
 187 1258 187 1258 168 1260 c 2,9,-1
 57 1270 l 1,10,-1
 57 1374 l 1,11,-1
 563 1374 l 1,12,-1
 563 1319 l 1,13,-1
 1153 395 l 1,14,-1
 1153 1214 l 2,15,16
 1153 1234 1153 1234 1138.5 1246 c 128,-1,17
 1124 1258 1124 1258 1106 1260 c 2,18,-1
 989 1270 l 1,19,-1
 989 1374 l 1,20,-1
 1464 1374 l 1,21,-1
 1464 1270 l 1,22,-1
 1354 1260 l 2,23,24
 1337 1258 1337 1258 1323 1246 c 128,-1,25
 1309 1234 1309 1234 1309 1214 c 2,26,-1
 1309 0 l 1,27,-1
 1059 0 l 1,28,-1
 369 1083 l 1,29,-1
 369 160 l 2,30,31
 369 140 369 140 383 128.5 c 128,-1,32
 397 117 397 117 414 115 c 2,33,-1
 528 104 l 1,34,-1
 528 0 l 1,35,-1
 55 0 l 1,0,-1
EndSplineSet
EndChar

StartChar: O
Encoding: 79 79 50
Width: 1548
GlyphClass: 2
Flags: W
LayerCount: 2
Fore
SplineSet
76 696 m 0,0,1
 76 847 76 847 123 977.5 c 128,-1,2
 170 1108 170 1108 258.5 1203 c 128,-1,3
 347 1298 347 1298 475.5 1352.5 c 128,-1,4
 604 1407 604 1407 768 1407 c 0,5,6
 874 1407 874 1407 968 1380.5 c 128,-1,7
 1062 1354 1062 1354 1140.5 1306.5 c 128,-1,8
 1219 1259 1219 1259 1281 1192.5 c 128,-1,9
 1343 1126 1343 1126 1386 1045 c 128,-1,10
 1429 964 1429 964 1452 871.5 c 128,-1,11
 1475 779 1475 779 1475 680 c 0,12,13
 1475 533 1475 533 1425.5 403.5 c 128,-1,14
 1376 274 1376 274 1285 177 c 128,-1,15
 1194 80 1194 80 1067 23.5 c 128,-1,16
 940 -33 940 -33 786 -33 c 0,17,18
 633 -33 633 -33 502.5 15.5 c 128,-1,19
 372 64 372 64 277.5 157 c 128,-1,20
 183 250 183 250 129.5 386 c 128,-1,21
 76 522 76 522 76 696 c 0,0,1
403 690 m 0,22,23
 403 617 403 617 412.5 545 c 128,-1,24
 422 473 422 473 441 407 c 128,-1,25
 460 341 460 341 490 284 c 128,-1,26
 520 227 520 227 560 185.5 c 128,-1,27
 600 144 600 144 651.5 120 c 128,-1,28
 703 96 703 96 766 96 c 0,29,30
 834 96 834 96 889 120.5 c 128,-1,31
 944 145 944 145 986 187 c 128,-1,32
 1028 229 1028 229 1058 285 c 128,-1,33
 1088 341 1088 341 1107.5 405 c 128,-1,34
 1127 469 1127 469 1136 537.5 c 128,-1,35
 1145 606 1145 606 1145 672 c 0,36,37
 1145 792 1145 792 1122.5 900.5 c 128,-1,38
 1100 1009 1100 1009 1055 1091 c 128,-1,39
 1010 1173 1010 1173 942.5 1221.5 c 128,-1,40
 875 1270 875 1270 786 1270 c 0,41,42
 715 1270 715 1270 659 1246 c 128,-1,43
 603 1222 603 1222 560.5 1180.5 c 128,-1,44
 518 1139 518 1139 488 1083 c 128,-1,45
 458 1027 458 1027 439 962.5 c 128,-1,46
 420 898 420 898 411.5 828.5 c 128,-1,47
 403 759 403 759 403 690 c 0,22,23
EndSplineSet
EndChar

StartChar: P
Encoding: 80 80 51
Width: 1253
GlyphClass: 2
Flags: W
LayerCount: 2
Fore
SplineSet
47 1270 m 1,0,-1
 47 1374 l 1,1,-1
 621 1374 l 2,2,3
 690 1374 690 1374 758 1368.5 c 128,-1,4
 826 1363 826 1363 888 1346.5 c 128,-1,5
 950 1330 950 1330 1003 1301.5 c 128,-1,6
 1056 1273 1056 1273 1095 1226.5 c 128,-1,7
 1134 1180 1134 1180 1156 1114 c 128,-1,8
 1178 1048 1178 1048 1178 958 c 0,9,10
 1178 870 1178 870 1156.5 802.5 c 128,-1,11
 1135 735 1135 735 1097 684.5 c 128,-1,12
 1059 634 1059 634 1007.5 599.5 c 128,-1,13
 956 565 956 565 896.5 544 c 128,-1,14
 837 523 837 523 771.5 513.5 c 128,-1,15
 706 504 706 504 641 504 c 0,16,17
 612 504 612 504 580 504 c 0,18,19
 577 504 577 504 574 503 c 1,20,21
 544 503 544 503 506 508 c 1,22,-1
 506 160 l 2,23,24
 506 140 506 140 519 128.5 c 128,-1,25
 532 117 532 117 551 115 c 2,26,-1
 680 104 l 1,27,-1
 680 0 l 1,28,-1
 53 0 l 1,29,-1
 53 104 l 1,30,-1
 166 115 l 2,31,32
 184 117 184 117 198.5 128.5 c 128,-1,33
 213 140 213 140 213 160 c 2,34,-1
 213 1214 l 2,35,36
 213 1234 213 1234 198.5 1246 c 128,-1,37
 184 1258 184 1258 166 1260 c 2,38,-1
 47 1270 l 1,0,-1
506 631 m 1,39,40
 518 630 518 630 525.5 629.5 c 128,-1,41
 533 629 533 629 538 629 c 2,42,-1
 561 629 l 1,43,44
 632 630 632 630 689.5 647 c 128,-1,45
 747 664 747 664 787.5 702 c 128,-1,46
 828 740 828 740 850 800.5 c 128,-1,47
 872 861 872 861 872 948 c 0,48,49
 872 1020 872 1020 854 1076 c 128,-1,50
 836 1132 836 1132 803 1170.5 c 128,-1,51
 770 1209 770 1209 724 1229 c 128,-1,52
 678 1249 678 1249 621 1249 c 2,53,-1
 506 1249 l 1,54,-1
 506 631 l 1,39,40
EndSplineSet
EndChar

StartChar: Q
Encoding: 81 81 52
Width: 1548
GlyphClass: 2
Flags: W
LayerCount: 2
Fore
SplineSet
76 696 m 0,0,1
 76 847 76 847 123 977.5 c 128,-1,2
 170 1108 170 1108 258.5 1203 c 128,-1,3
 347 1298 347 1298 475.5 1352.5 c 128,-1,4
 604 1407 604 1407 768 1407 c 0,5,6
 874 1407 874 1407 968 1380.5 c 128,-1,7
 1062 1354 1062 1354 1140.5 1306.5 c 128,-1,8
 1219 1259 1219 1259 1281 1192.5 c 128,-1,9
 1343 1126 1343 1126 1386 1045 c 128,-1,10
 1429 964 1429 964 1452 871.5 c 128,-1,11
 1475 779 1475 779 1475 680 c 0,12,13
 1475 552 1475 552 1437 437 c 128,-1,14
 1399 322 1399 322 1329 229.5 c 128,-1,15
 1259 137 1259 137 1159.5 73 c 128,-1,16
 1060 9 1060 9 938 -16 c 1,17,18
 938 -21 938 -21 938 -25 c 0,19,20
 938 -75 938 -75 958 -114 c 0,21,22
 981 -157 981 -157 1019.5 -186.5 c 128,-1,23
 1058 -216 1058 -216 1109.5 -231 c 128,-1,24
 1161 -246 1161 -246 1217 -246 c 0,25,26
 1247 -246 1247 -246 1293 -241.5 c 128,-1,27
 1339 -237 1339 -237 1407 -221 c 1,28,-1
 1407 -330 l 1,29,30
 1301 -354 1301 -354 1214 -365.5 c 128,-1,31
 1127 -377 1127 -377 1044 -377 c 0,32,33
 934 -377 934 -377 856 -351.5 c 128,-1,34
 778 -326 778 -326 729 -279.5 c 128,-1,35
 680 -233 680 -233 657 -167 c 128,-1,36
 634 -101 634 -101 633 -20 c 1,37,38
 509 2 509 2 406.5 59.5 c 128,-1,39
 304 117 304 117 230.5 208 c 128,-1,40
 157 299 157 299 116.5 421.5 c 128,-1,41
 76 544 76 544 76 696 c 0,0,1
403 690 m 0,42,43
 403 617 403 617 412.5 545 c 128,-1,44
 422 473 422 473 441 407 c 128,-1,45
 460 341 460 341 490 284 c 128,-1,46
 520 227 520 227 560 185.5 c 128,-1,47
 600 144 600 144 651.5 120 c 128,-1,48
 703 96 703 96 766 96 c 0,49,50
 834 96 834 96 889 120.5 c 128,-1,51
 944 145 944 145 986 187 c 128,-1,52
 1028 229 1028 229 1058 285 c 128,-1,53
 1088 341 1088 341 1107.5 405 c 128,-1,54
 1127 469 1127 469 1136 537.5 c 128,-1,55
 1145 606 1145 606 1145 672 c 0,56,57
 1145 792 1145 792 1122.5 900.5 c 128,-1,58
 1100 1009 1100 1009 1055 1091 c 128,-1,59
 1010 1173 1010 1173 942.5 1221.5 c 128,-1,60
 875 1270 875 1270 786 1270 c 0,61,62
 715 1270 715 1270 659 1246 c 128,-1,63
 603 1222 603 1222 560.5 1180.5 c 128,-1,64
 518 1139 518 1139 488 1083 c 128,-1,65
 458 1027 458 1027 439 962.5 c 128,-1,66
 420 898 420 898 411.5 828.5 c 128,-1,67
 403 759 403 759 403 690 c 0,42,43
EndSplineSet
EndChar

StartChar: R
Encoding: 82 82 53
Width: 1442
GlyphClass: 2
Flags: W
LayerCount: 2
Fore
SplineSet
57 0 m 1,0,-1
 57 104 l 1,1,-1
 166 115 l 2,2,3
 184 117 184 117 198.5 128.5 c 128,-1,4
 213 140 213 140 213 160 c 2,5,-1
 213 1214 l 2,6,7
 213 1234 213 1234 198.5 1246 c 128,-1,8
 184 1258 184 1258 166 1260 c 2,9,-1
 57 1270 l 1,10,-1
 57 1374 l 1,11,-1
 737 1374 l 2,12,13
 775 1374 775 1374 823 1369 c 128,-1,14
 871 1364 871 1364 920.5 1350.5 c 128,-1,15
 970 1337 970 1337 1017.5 1313 c 128,-1,16
 1065 1289 1065 1289 1102 1251.5 c 128,-1,17
 1139 1214 1139 1214 1161.5 1160.5 c 128,-1,18
 1184 1107 1184 1107 1184 1034 c 0,19,20
 1184 965 1184 965 1165.5 913 c 128,-1,21
 1147 861 1147 861 1116.5 822.5 c 128,-1,22
 1086 784 1086 784 1047.5 757.5 c 128,-1,23
 1009 731 1009 731 969 714.5 c 128,-1,24
 929 698 929 698 892 689 c 128,-1,25
 855 680 855 680 827 676 c 1,26,27
 894 663 894 663 941 637.5 c 128,-1,28
 988 612 988 612 1020 578 c 128,-1,29
 1052 544 1052 544 1072.5 504 c 128,-1,30
 1093 464 1093 464 1107.5 421.5 c 128,-1,31
 1122 379 1122 379 1133.5 337 c 128,-1,32
 1145 295 1145 295 1160 257 c 128,-1,33
 1175 219 1175 219 1195.5 187.5 c 128,-1,34
 1216 156 1216 156 1248 134 c 256,35,36
 1280 112 1280 112 1327 104 c 0,37,38
 1351 100 1351 100 1381 100 c 0,39,40
 1409 100 1409 100 1442 104 c 1,41,-1
 1442 0 l 1,42,43
 1374 -8 1374 -8 1325.5 -20.5 c 128,-1,44
 1277 -33 1277 -33 1239 -33 c 0,45,46
 1140 -33 1140 -33 1074 -5.5 c 128,-1,47
 1008 22 1008 22 964.5 66.5 c 128,-1,48
 921 111 921 111 894 168 c 128,-1,49
 867 225 867 225 845.5 284.5 c 128,-1,50
 824 344 824 344 803 401 c 128,-1,51
 782 458 782 458 750 502.5 c 128,-1,52
 718 547 718 547 670 574.5 c 128,-1,53
 622 602 622 602 547 602 c 2,54,-1
 506 602 l 1,55,-1
 506 160 l 2,56,57
 506 140 506 140 519 128.5 c 128,-1,58
 532 117 532 117 551 115 c 2,59,-1
 664 104 l 1,60,-1
 664 0 l 1,61,-1
 57 0 l 1,0,-1
506 727 m 1,62,63
 532 725 532 725 548.5 724 c 128,-1,64
 565 723 565 723 573 723 c 0,65,66
 621 723 621 723 674.5 732.5 c 128,-1,67
 728 742 728 742 773 771.5 c 128,-1,68
 818 801 818 801 847.5 854.5 c 128,-1,69
 877 908 877 908 877 995 c 0,70,71
 877 1125 877 1125 799 1188 c 128,-1,72
 721 1251 721 1251 571 1251 c 1,73,74
 563 1252 563 1252 552 1252 c 2,75,-1
 531 1252 l 2,76,77
 519 1252 519 1252 506 1251 c 1,78,-1
 506 727 l 1,62,63
EndSplineSet
EndChar

StartChar: S
Encoding: 83 83 54
Width: 1098
GlyphClass: 2
Flags: W
LayerCount: 2
Fore
SplineSet
76 45 m 1,0,-1
 76 420 l 1,1,-1
 238 420 l 1,2,-1
 272 172 l 2,3,4
 274 160 274 160 284 150.5 c 128,-1,5
 294 141 294 141 299 141 c 1,6,7
 323 131 323 131 349 123 c 0,8,9
 372 116 372 116 400 111 c 128,-1,10
 428 106 428 106 457 106 c 0,11,12
 502 106 502 106 549 117 c 128,-1,13
 596 128 596 128 634.5 151 c 128,-1,14
 673 174 673 174 697 211 c 128,-1,15
 721 248 721 248 721 299 c 0,16,17
 721 363 721 363 691 409.5 c 128,-1,18
 661 456 661 456 613 493.5 c 128,-1,19
 565 531 565 531 504.5 562.5 c 128,-1,20
 444 594 444 594 383 627 c 0,21,22
 329 656 329 656 278.5 689.5 c 128,-1,23
 228 723 228 723 189 766 c 128,-1,24
 150 809 150 809 127 864 c 128,-1,25
 104 919 104 919 104 991 c 0,26,27
 104 1091 104 1091 144 1168.5 c 128,-1,28
 184 1246 184 1246 252 1299 c 128,-1,29
 320 1352 320 1352 409.5 1379.5 c 128,-1,30
 499 1407 499 1407 598 1407 c 0,31,32
 676 1407 676 1407 746 1394 c 128,-1,33
 816 1381 816 1381 870 1366 c 0,34,35
 932 1348 932 1348 985 1325 c 1,36,-1
 985 989 l 1,37,-1
 827 989 l 1,38,-1
 793 1208 l 2,39,40
 792 1212 792 1212 787.5 1217 c 128,-1,41
 783 1222 783 1222 778 1227 c 0,42,43
 772 1232 772 1232 764 1237 c 1,44,45
 753 1246 753 1246 735 1253 c 0,46,47
 720 1259 720 1259 697 1264.5 c 128,-1,48
 674 1270 674 1270 641 1270 c 0,49,50
 590 1270 590 1270 544.5 1258 c 128,-1,51
 499 1246 499 1246 464.5 1223 c 128,-1,52
 430 1200 430 1200 409.5 1165 c 128,-1,53
 389 1130 389 1130 389 1085 c 0,54,55
 389 1031 389 1031 412 989.5 c 128,-1,56
 435 948 435 948 473.5 915 c 128,-1,57
 512 882 512 882 562 855 c 128,-1,58
 612 828 612 828 666 801 c 0,59,60
 730 769 730 769 793.5 734 c 128,-1,61
 857 699 857 699 908 653.5 c 128,-1,62
 959 608 959 608 990.5 547 c 128,-1,63
 1022 486 1022 486 1022 401 c 0,64,65
 1022 293 1022 293 977 211.5 c 128,-1,66
 932 130 932 130 856.5 76 c 128,-1,67
 781 22 781 22 682 -5.5 c 128,-1,68
 583 -33 583 -33 475 -33 c 0,69,70
 394 -33 394 -33 322.5 -21 c 128,-1,71
 251 -9 251 -9 196 6 c 0,72,73
 132 23 132 23 76 45 c 1,0,-1
EndSplineSet
EndChar

StartChar: T
Encoding: 84 84 55
Width: 1247
GlyphClass: 2
Flags: W
LayerCount: 2
Fore
SplineSet
33 999 m 1,0,-1
 33 1374 l 1,1,-1
 1214 1374 l 1,2,-1
 1214 999 l 1,3,-1
 1065 999 l 1,4,-1
 1028 1227 l 2,5,6
 1025 1251 1025 1251 999 1251 c 2,7,-1
 770 1251 l 1,8,-1
 770 160 l 2,9,10
 770 140 770 140 783.5 128.5 c 128,-1,11
 797 117 797 117 815 115 c 2,12,-1
 936 104 l 1,13,-1
 936 0 l 1,14,-1
 311 0 l 1,15,-1
 311 104 l 1,16,-1
 430 115 l 2,17,18
 449 117 449 117 463 128.5 c 128,-1,19
 477 140 477 140 477 160 c 2,20,-1
 477 1251 l 1,21,-1
 248 1251 l 2,22,23
 220 1251 220 1251 217 1227 c 2,24,-1
 180 999 l 1,25,-1
 33 999 l 1,0,-1
EndSplineSet
EndChar

StartChar: U
Encoding: 85 85 56
Width: 1493
GlyphClass: 2
Flags: W
LayerCount: 2
Fore
SplineSet
45 1270 m 1,0,-1
 45 1374 l 1,1,-1
 651 1374 l 1,2,-1
 651 1270 l 1,3,-1
 541 1260 l 2,4,5
 524 1258 524 1258 510 1246 c 128,-1,6
 496 1234 496 1234 496 1214 c 2,7,-1
 496 504 l 2,8,9
 496 312 496 312 577 224.5 c 128,-1,10
 658 137 658 137 827 137 c 0,11,12
 908 137 908 137 965 163.5 c 128,-1,13
 1022 190 1022 190 1059 238 c 128,-1,14
 1096 286 1096 286 1113 353.5 c 128,-1,15
 1130 421 1130 421 1130 504 c 2,16,-1
 1130 1214 l 2,17,18
 1130 1234 1130 1234 1117 1246 c 128,-1,19
 1104 1258 1104 1258 1085 1260 c 2,20,-1
 969 1270 l 1,21,-1
 969 1374 l 1,22,-1
 1440 1374 l 1,23,-1
 1440 1270 l 1,24,-1
 1331 1260 l 2,25,26
 1314 1258 1314 1258 1300 1246 c 128,-1,27
 1286 1234 1286 1234 1286 1214 c 2,28,-1
 1286 520 l 2,29,30
 1286 369 1286 369 1252 263.5 c 128,-1,31
 1218 158 1218 158 1149 92 c 128,-1,32
 1080 26 1080 26 974.5 -3.5 c 128,-1,33
 869 -33 869 -33 725 -33 c 0,34,35
 461 -33 461 -33 332 108.5 c 128,-1,36
 203 250 203 250 203 520 c 2,37,-1
 203 1214 l 2,38,39
 203 1234 203 1234 188.5 1246 c 128,-1,40
 174 1258 174 1258 156 1260 c 2,41,-1
 45 1270 l 1,0,-1
EndSplineSet
EndChar

StartChar: V
Encoding: 86 86 57
Width: 1446
GlyphClass: 2
Flags: W
LayerCount: 2
Fore
SplineSet
20 1270 m 1,0,-1
 20 1374 l 1,1,-1
 604 1374 l 1,2,-1
 604 1270 l 1,3,-1
 489 1255 l 2,4,5
 471 1252 471 1252 467.5 1237.5 c 128,-1,6
 464 1223 464 1223 469 1210 c 2,7,-1
 793 319 l 1,8,-1
 1106 1212 l 1,9,10
 1109 1225 1109 1225 1104.5 1238.5 c 128,-1,11
 1100 1252 1100 1252 1077 1255 c 2,12,-1
 967 1270 l 1,13,-1
 967 1374 l 1,14,-1
 1425 1374 l 1,15,-1
 1425 1270 l 1,16,-1
 1296 1253 l 1,17,-1
 825 -33 l 1,18,-1
 631 -33 l 1,19,-1
 152 1251 l 1,20,-1
 20 1270 l 1,0,-1
EndSplineSet
EndChar

StartChar: W
Encoding: 87 87 58
Width: 1978
GlyphClass: 2
Flags: W
LayerCount: 2
Fore
SplineSet
20 1270 m 1,0,-1
 20 1374 l 1,1,-1
 578 1374 l 1,2,-1
 578 1270 l 1,3,-1
 457 1257 l 2,4,5
 438 1255 438 1255 436.5 1241 c 128,-1,6
 435 1227 435 1227 438 1214 c 2,7,-1
 655 403 l 1,8,-1
 942 1374 l 1,9,-1
 1163 1374 l 1,10,-1
 1460 381 l 1,11,-1
 1665 1214 l 2,12,13
 1668 1227 1668 1227 1663 1240.5 c 128,-1,14
 1658 1254 1658 1254 1636 1257 c 2,15,-1
 1505 1270 l 1,16,-1
 1505 1374 l 1,17,-1
 1958 1374 l 1,18,-1
 1958 1270 l 1,19,-1
 1833 1253 l 1,20,-1
 1511 -33 l 1,21,-1
 1317 -33 l 1,22,-1
 997 1032 l 1,23,-1
 684 -33 l 1,24,-1
 487 -33 l 1,25,-1
 145 1253 l 1,26,-1
 20 1270 l 1,0,-1
EndSplineSet
EndChar

StartChar: X
Encoding: 88 88 59
Width: 1374
GlyphClass: 2
Flags: W
LayerCount: 2
Fore
SplineSet
20 0 m 1,0,-1
 20 104 l 1,1,-1
 152 121 l 1,2,-1
 559 655 l 1,3,-1
 176 1251 l 1,4,-1
 47 1270 l 1,5,-1
 47 1374 l 1,6,-1
 647 1374 l 1,7,-1
 647 1270 l 1,8,-1
 539 1260 l 1,9,10
 528 1260 528 1260 522 1245 c 128,-1,11
 516 1230 516 1230 528 1210 c 2,12,-1
 733 887 l 1,13,-1
 985 1212 l 2,14,15
 999 1229 999 1229 993 1245.5 c 128,-1,16
 987 1262 987 1262 973 1262 c 1,17,-1
 864 1270 l 1,18,-1
 864 1374 l 1,19,-1
 1331 1374 l 1,20,-1
 1331 1270 l 1,21,-1
 1202 1251 l 1,22,-1
 819 754 l 1,23,-1
 1225 121 l 1,24,-1
 1354 104 l 1,25,-1
 1354 0 l 1,26,-1
 739 0 l 1,27,-1
 739 104 l 1,28,-1
 864 113 l 2,29,30
 878 115 878 115 882.5 129 c 128,-1,31
 887 143 887 143 874 162 c 2,32,-1
 645 522 l 1,33,-1
 369 164 l 2,34,35
 361 155 361 155 360 146.5 c 128,-1,36
 359 138 359 138 362 131 c 128,-1,37
 365 124 365 124 370.5 120 c 128,-1,38
 376 116 376 116 381 115 c 2,39,-1
 504 104 l 1,40,-1
 504 0 l 1,41,-1
 20 0 l 1,0,-1
EndSplineSet
EndChar

StartChar: Y
Encoding: 89 89 60
Width: 1358
GlyphClass: 2
Flags: W
LayerCount: 2
Fore
SplineSet
20 1270 m 1,0,-1
 20 1374 l 1,1,-1
 602 1374 l 1,2,-1
 602 1270 l 1,3,-1
 494 1260 l 1,4,5
 483 1260 483 1260 477.5 1245 c 128,-1,6
 472 1230 472 1230 483 1210 c 2,7,-1
 741 725 l 1,8,-1
 1020 1212 l 2,9,10
 1031 1231 1031 1231 1027.5 1246.5 c 128,-1,11
 1024 1262 1024 1262 1010 1262 c 2,12,-1
 885 1270 l 1,13,-1
 885 1374 l 1,14,-1
 1337 1374 l 1,15,-1
 1337 1270 l 1,16,-1
 1219 1251 l 1,17,-1
 840 594 l 1,18,-1
 840 160 l 2,19,20
 840 140 840 140 853 128.5 c 128,-1,21
 866 117 866 117 885 115 c 2,22,-1
 1010 104 l 1,23,-1
 1010 0 l 1,24,-1
 375 0 l 1,25,-1
 375 104 l 1,26,-1
 500 115 l 2,27,28
 517 117 517 117 532 128.5 c 128,-1,29
 547 140 547 140 547 160 c 2,30,-1
 547 537 l 1,31,-1
 152 1251 l 1,32,-1
 20 1270 l 1,0,-1
EndSplineSet
EndChar

StartChar: Z
Encoding: 90 90 61
Width: 1190
GlyphClass: 2
Flags: W
LayerCount: 2
Fore
SplineSet
76 0 m 1,0,-1
 76 121 l 1,1,-1
 778 1249 l 1,2,-1
 326 1249 l 2,3,4
 300 1249 300 1249 297 1225 c 2,5,-1
 260 1001 l 1,6,-1
 111 1001 l 1,7,-1
 111 1374 l 1,8,-1
 1104 1374 l 1,9,-1
 1104 1253 l 1,10,-1
 403 127 l 1,11,-1
 893 127 l 2,12,13
 918 127 918 127 924 150 c 1,14,-1
 965 403 l 1,15,-1
 1114 403 l 1,16,-1
 1114 0 l 1,17,-1
 76 0 l 1,0,-1
EndSplineSet
EndChar

StartChar: bracketleft
Encoding: 91 91 62
Width: 1122
GlyphClass: 2
Flags: W
LayerCount: 2
Fore
SplineSet
480 -270 m 1,0,-1
 480 1450 l 1,1,-1
 1048 1450 l 1,2,-1
 1048 1327 l 1,3,-1
 734 1327 l 1,4,-1
 734 -152 l 1,5,-1
 1048 -152 l 1,6,-1
 1048 -270 l 1,7,-1
 480 -270 l 1,0,-1
EndSplineSet
EndChar

StartChar: backslash
Encoding: 92 92 63
Width: 1012
GlyphClass: 2
Flags: W
LayerCount: 2
Fore
SplineSet
0 1374 m 1,0,-1
 160 1374 l 1,1,-1
 1012 -190 l 1,2,-1
 852 -190 l 1,3,-1
 0 1374 l 1,0,-1
EndSplineSet
EndChar

StartChar: bracketright
Encoding: 93 93 64
Width: 1206
GlyphClass: 2
Flags: W
LayerCount: 2
Fore
SplineSet
74 -152 m 1,0,-1
 387 -152 l 1,1,-1
 387 1327 l 1,2,-1
 74 1327 l 1,3,-1
 74 1450 l 1,4,-1
 641 1450 l 1,5,-1
 641 -270 l 1,6,-1
 74 -270 l 1,7,-1
 74 -152 l 1,0,-1
EndSplineSet
EndChar

StartChar: asciicircum
Encoding: 94 94 65
Width: 696
GlyphClass: 2
Flags: W
LayerCount: 2
Fore
SplineSet
0 1128 m 1,0,-1
 227 1479 l 1,1,-1
 469 1479 l 1,2,-1
 696 1128 l 1,3,-1
 526 1128 l 1,4,-1
 348 1323 l 1,5,-1
 170 1128 l 1,6,-1
 0 1128 l 1,0,-1
EndSplineSet
EndChar

StartChar: underscore
Encoding: 95 95 66
Width: 696
GlyphClass: 2
Flags: W
LayerCount: 2
Fore
SplineSet
0 -175 m 1,0,-1
 696 -175 l 1,1,-1
 696 -340 l 1,2,-1
 0 -340 l 1,3,-1
 0 -175 l 1,0,-1
EndSplineSet
EndChar

StartChar: grave
Encoding: 96 96 67
Width: 766
GlyphClass: 2
Flags: W
LayerCount: 2
Fore
SplineSet
0 1395 m 0,0,1
 0 1413 0 1413 6 1432.5 c 128,-1,2
 12 1452 12 1452 25.5 1467.5 c 128,-1,3
 39 1483 39 1483 61.5 1493 c 128,-1,4
 84 1503 84 1503 117 1503 c 0,5,6
 138 1503 138 1503 154 1500 c 128,-1,7
 170 1497 170 1497 184.5 1489.5 c 128,-1,8
 199 1482 199 1482 213.5 1469.5 c 128,-1,9
 228 1457 228 1457 246 1438 c 2,10,-1
 526 1128 l 1,11,-1
 383 1128 l 1,12,-1
 51 1309 l 2,13,14
 40 1315 40 1315 31 1325.5 c 128,-1,15
 22 1336 22 1336 15 1348 c 128,-1,16
 8 1360 8 1360 4 1372.5 c 128,-1,17
 0 1385 0 1385 0 1395 c 0,0,1
EndSplineSet
EndChar

StartChar: a
Encoding: 97 97 68
Width: 1293
GlyphClass: 2
Flags: W
LayerCount: 2
Fore
SplineSet
16 0 m 1,0,-1
 16 100 l 1,1,-1
 119 113 l 1,2,-1
 119 107 l 1,3,-1
 535 1147 l 1,4,-1
 741 1147 l 1,5,-1
 1154 138 l 1,6,-1
 1154 139 l 1,7,8
 1159 127 1159 127 1166.5 121 c 128,-1,9
 1174 115 1174 115 1194 112 c 2,10,-1
 1264 100 l 1,11,-1
 1264 0 l 1,12,-1
 754 0 l 1,13,-1
 754 100 l 1,14,-1
 863 112 l 2,15,16
 871 113 871 113 876.5 118 c 128,-1,17
 882 123 882 123 880 129 c 2,18,-1
 780 390 l 1,19,-1
 780 385 l 1,20,-1
 385 385 l 1,21,-1
 385 390 l 1,22,-1
 283 135 l 2,23,24
 280 127 280 127 290.5 120 c 128,-1,25
 301 113 301 113 309 112 c 2,26,-1
 413 100 l 1,27,-1
 413 0 l 1,28,-1
 16 0 l 1,0,-1
424 499 m 1,29,-1
 730 499 l 1,30,-1
 575 883 l 1,31,32
 537 785 537 785 499.5 690.5 c 128,-1,33
 462 596 462 596 424 499 c 1,29,-1
EndSplineSet
EndChar

StartChar: b
Encoding: 98 98 69
Width: 1204
GlyphClass: 2
Flags: W
LayerCount: 2
Fore
SplineSet
57 0 m 1,0,-1
 57 100 l 1,1,-1
 157 108 l 2,2,3
 174 110 174 110 186 117.5 c 128,-1,4
 198 125 198 125 198 137 c 2,5,-1
 198 984 l 2,6,7
 198 996 198 996 186 1003.5 c 128,-1,8
 174 1011 174 1011 157 1013 c 2,9,-1
 57 1021 l 1,10,-1
 57 1120 l 1,11,-1
 652 1120 l 2,12,13
 685 1120 685 1120 727 1117 c 128,-1,14
 769 1114 769 1114 813 1104.5 c 128,-1,15
 857 1095 857 1095 899 1077.5 c 128,-1,16
 941 1060 941 1060 973.5 1031 c 128,-1,17
 1006 1002 1006 1002 1026 959.5 c 128,-1,18
 1046 917 1046 917 1046 858 c 0,19,20
 1046 797 1046 797 1024.5 753 c 128,-1,21
 1003 709 1003 709 971 678.5 c 128,-1,22
 939 648 939 648 902 629 c 128,-1,23
 865 610 865 610 834 600 c 1,24,25
 883 595 883 595 933.5 580 c 128,-1,26
 984 565 984 565 1025 533.5 c 128,-1,27
 1066 502 1066 502 1092 452.5 c 128,-1,28
 1118 403 1118 403 1118 329 c 0,29,30
 1118 250 1118 250 1099 195 c 128,-1,31
 1080 140 1080 140 1048 103.5 c 128,-1,32
 1016 67 1016 67 973 46 c 128,-1,33
 930 25 930 25 883 15 c 128,-1,34
 836 5 836 5 786.5 2.5 c 128,-1,35
 737 0 737 0 691 0 c 2,36,-1
 57 0 l 1,0,-1
462 113 m 1,37,38
 467 113 467 113 479.5 112.5 c 128,-1,39
 492 112 492 112 506.5 111.5 c 128,-1,40
 521 111 521 111 533 110.5 c 128,-1,41
 545 110 545 110 548 110 c 0,42,43
 619 110 619 110 673.5 121 c 128,-1,44
 728 132 728 132 765.5 156.5 c 128,-1,45
 803 181 803 181 822 220.5 c 128,-1,46
 841 260 841 260 841 317 c 0,47,48
 841 420 841 420 772.5 469 c 128,-1,49
 704 518 704 518 554 518 c 2,50,-1
 520 518 l 2,51,52
 500 518 500 518 462 517 c 1,53,-1
 462 113 l 1,37,38
462 633 m 1,54,55
 465 633 465 633 471.5 632.5 c 128,-1,56
 478 632 478 632 485.5 632 c 128,-1,57
 493 632 493 632 499 631.5 c 128,-1,58
 505 631 505 631 508 631 c 0,59,60
 587 631 587 631 638.5 646.5 c 128,-1,61
 690 662 690 662 720 689 c 128,-1,62
 750 716 750 716 762 752.5 c 128,-1,63
 774 789 774 789 774 831 c 0,64,65
 774 866 774 866 765 898.5 c 128,-1,66
 756 931 756 931 730 956.5 c 128,-1,67
 704 982 704 982 658 997.5 c 128,-1,68
 612 1013 612 1013 538 1013 c 2,69,-1
 530 1013 l 2,70,71
 527 1013 527 1013 522.5 1012.5 c 128,-1,72
 518 1012 518 1012 510.5 1011.5 c 128,-1,73
 503 1011 503 1011 489 1010 c 2,74,-1
 462 1009 l 1,75,-1
 462 633 l 1,54,55
EndSplineSet
EndChar

StartChar: c
Encoding: 99 99 70
Width: 1199
GlyphClass: 2
Flags: W
LayerCount: 2
Fore
SplineSet
75 561 m 0,0,1
 75 691 75 691 125 799 c 128,-1,2
 175 907 175 907 262.5 984.5 c 128,-1,3
 350 1062 350 1062 469 1104.5 c 128,-1,4
 588 1147 588 1147 725 1147 c 0,5,6
 777 1147 777 1147 820.5 1143 c 128,-1,7
 864 1139 864 1139 907.5 1130.5 c 128,-1,8
 951 1122 951 1122 1000 1109 c 128,-1,9
 1049 1096 1049 1096 1114 1077 c 1,10,-1
 1114 782 l 1,11,-1
 972 782 l 1,12,-1
 929 973 l 2,13,14
 929 975 929 975 922 982.5 c 128,-1,15
 915 990 915 990 905 993 c 0,16,17
 898 996 898 996 883.5 1000.5 c 128,-1,18
 869 1005 869 1005 850.5 1009 c 128,-1,19
 832 1013 832 1013 812.5 1016 c 128,-1,20
 793 1019 793 1019 775 1019 c 0,21,22
 680 1019 680 1019 603.5 986 c 128,-1,23
 527 953 527 953 474 893 c 128,-1,24
 421 833 421 833 392.5 748 c 128,-1,25
 364 663 364 663 364 558 c 0,26,27
 364 473 364 473 386.5 390.5 c 128,-1,28
 409 308 409 308 459.5 242.5 c 128,-1,29
 510 177 510 177 591 137 c 128,-1,30
 672 97 672 97 788 97 c 0,31,32
 823 97 823 97 852.5 104 c 128,-1,33
 882 111 882 111 896 117 c 0,34,35
 904 120 904 120 914.5 129 c 128,-1,36
 925 138 925 138 927 143 c 2,37,-1
 969 344 l 1,38,-1
 1114 344 l 1,39,-1
 1114 40 l 1,40,41
 1096 34 1096 34 1059.5 23 c 128,-1,42
 1023 12 1023 12 971.5 1 c 128,-1,43
 920 -10 920 -10 856.5 -18 c 128,-1,44
 793 -26 793 -26 723 -26 c 0,45,46
 581 -26 581 -26 462 17.5 c 128,-1,47
 343 61 343 61 257 138.5 c 128,-1,48
 171 216 171 216 123 324 c 128,-1,49
 75 432 75 432 75 561 c 0,0,1
EndSplineSet
EndChar

StartChar: d
Encoding: 100 100 71
Width: 1364
GlyphClass: 2
Flags: W
LayerCount: 2
Fore
SplineSet
54 0 m 1,0,-1
 54 100 l 1,1,-1
 156 108 l 2,2,3
 173 110 173 110 186 117.5 c 128,-1,4
 199 125 199 125 199 137 c 2,5,-1
 199 984 l 2,6,7
 199 996 199 996 186 1003.5 c 128,-1,8
 173 1011 173 1011 156 1013 c 2,9,-1
 54 1021 l 1,10,-1
 54 1120 l 1,11,-1
 620 1120 l 2,12,13
 778 1120 778 1120 900 1080.5 c 128,-1,14
 1022 1041 1022 1041 1105.5 969 c 128,-1,15
 1189 897 1189 897 1232 796 c 128,-1,16
 1275 695 1275 695 1275 572 c 0,17,18
 1275 428 1275 428 1229.5 321 c 128,-1,19
 1184 214 1184 214 1100 142.5 c 128,-1,20
 1016 71 1016 71 897 35.5 c 128,-1,21
 778 0 778 0 631 0 c 2,22,-1
 54 0 l 1,0,-1
463 113 m 1,23,-1
 616 116 l 1,24,25
 655 118 655 118 697 128 c 128,-1,26
 739 138 739 138 779.5 158.5 c 128,-1,27
 820 179 820 179 856 212 c 128,-1,28
 892 245 892 245 919 293 c 128,-1,29
 946 341 946 341 962 405.5 c 128,-1,30
 978 470 978 470 978 554 c 0,31,32
 978 694 978 694 942.5 782.5 c 128,-1,33
 907 871 907 871 850 921.5 c 128,-1,34
 793 972 793 972 722 990.5 c 128,-1,35
 651 1009 651 1009 580 1009 c 2,36,-1
 463 1009 l 1,37,-1
 463 113 l 1,23,-1
EndSplineSet
EndChar

StartChar: e
Encoding: 101 101 72
Width: 1127
GlyphClass: 2
Flags: W
LayerCount: 2
Fore
SplineSet
53 0 m 1,0,-1
 53 100 l 1,1,-1
 155 108 l 2,2,3
 172 110 172 110 185 117.5 c 128,-1,4
 198 125 198 125 198 137 c 2,5,-1
 198 984 l 2,6,7
 198 996 198 996 185 1003.5 c 128,-1,8
 172 1011 172 1011 155 1013 c 2,9,-1
 53 1021 l 1,10,-1
 53 1120 l 1,11,-1
 995 1120 l 1,12,-1
 995 841 l 1,13,-1
 863 841 l 1,14,-1
 834 985 l 1,15,16
 830 993 830 993 821 1001 c 128,-1,17
 812 1009 812 1009 800 1009 c 2,18,-1
 456 1009 l 1,19,-1
 456 638 l 1,20,-1
 675 638 l 2,21,22
 689 638 689 638 697.5 646 c 128,-1,23
 706 654 706 654 707 661 c 2,24,-1
 725 780 l 1,25,-1
 839 780 l 1,26,-1
 839 377 l 1,27,-1
 725 377 l 1,28,-1
 707 496 l 2,29,30
 706 503 706 503 697.5 510.5 c 128,-1,31
 689 518 689 518 675 518 c 2,32,-1
 456 518 l 1,33,-1
 456 115 l 1,34,-1
 858 115 l 2,35,36
 871 115 871 115 881 123.5 c 128,-1,37
 891 132 891 132 892 139 c 2,38,-1
 921 317 l 1,39,-1
 1054 317 l 1,40,-1
 1054 0 l 1,41,-1
 53 0 l 1,0,-1
EndSplineSet
EndChar

StartChar: f
Encoding: 102 102 73
Width: 1053
GlyphClass: 2
Flags: W
LayerCount: 2
Fore
SplineSet
50 1021 m 1,0,-1
 50 1120 l 1,1,-1
 988 1120 l 1,2,-1
 988 823 l 1,3,-1
 856 823 l 1,4,-1
 829 980 l 2,5,6
 827 990 827 990 818 997 c 128,-1,7
 809 1004 809 1004 796 1004 c 2,8,-1
 462 1004 l 1,9,-1
 462 615 l 1,10,-1
 691 615 l 2,11,12
 703 615 703 615 711.5 622.5 c 128,-1,13
 720 630 720 630 722 637 c 2,14,-1
 741 757 l 1,15,-1
 855 757 l 1,16,-1
 855 352 l 1,17,-1
 741 352 l 1,18,-1
 722 471 l 2,19,20
 720 479 720 479 711 486.5 c 128,-1,21
 702 494 702 494 691 494 c 2,22,-1
 462 494 l 1,23,-1
 462 137 l 2,24,25
 462 125 462 125 473.5 117.5 c 128,-1,26
 485 110 485 110 502 108 c 2,27,-1
 622 100 l 1,28,-1
 622 0 l 1,29,-1
 55 0 l 1,30,-1
 55 100 l 1,31,-1
 155 108 l 2,32,33
 172 110 172 110 184.5 117.5 c 128,-1,34
 197 125 197 125 197 137 c 2,35,-1
 197 984 l 2,36,37
 197 996 197 996 184.5 1003.5 c 128,-1,38
 172 1011 172 1011 155 1013 c 2,39,-1
 50 1021 l 1,0,-1
EndSplineSet
EndChar

StartChar: g
Encoding: 103 103 74
Width: 1349
GlyphClass: 2
Flags: W
LayerCount: 2
Fore
SplineSet
75 563 m 0,0,1
 75 698 75 698 124.5 806 c 128,-1,2
 174 914 174 914 262 990 c 128,-1,3
 350 1066 350 1066 471.5 1106.5 c 128,-1,4
 593 1147 593 1147 736 1147 c 0,5,6
 827 1147 827 1147 902.5 1136.5 c 128,-1,7
 978 1126 978 1126 1034 1114 c 0,8,9
 1099 1100 1099 1100 1152 1082 c 1,10,-1
 1152 782 l 1,11,-1
 1008 782 l 1,12,-1
 971 966 l 2,13,14
 969 973 969 973 959.5 982.5 c 128,-1,15
 950 992 950 992 937 995 c 1,16,17
 895 1009 895 1009 857.5 1016 c 128,-1,18
 820 1023 820 1023 805 1023 c 0,19,20
 684 1023 684 1023 600 984.5 c 128,-1,21
 516 946 516 946 463 882.5 c 128,-1,22
 410 819 410 819 386 737 c 128,-1,23
 362 655 362 655 362 569 c 0,24,25
 362 465 362 465 391.5 380.5 c 128,-1,26
 421 296 421 296 478 236.5 c 128,-1,27
 535 177 535 177 619 145 c 128,-1,28
 703 113 703 113 812 113 c 0,29,30
 816 113 816 113 819.5 112.5 c 128,-1,31
 823 112 823 112 827 112 c 2,32,-1
 874 112 l 2,33,34
 884 112 884 112 895 113 c 1,35,-1
 895 426 l 2,36,37
 895 439 895 439 882.5 446.5 c 128,-1,38
 870 454 870 454 853 454 c 1,39,-1
 730 462 l 1,40,-1
 730 563 l 1,41,-1
 1286 563 l 1,42,-1
 1286 462 l 1,43,-1
 1192 454 l 2,44,45
 1175 453 1175 453 1162.5 445.5 c 128,-1,46
 1150 438 1150 438 1150 426 c 2,47,-1
 1150 52 l 1,48,49
 1095 30 1095 30 1028 13 c 0,50,51
 971 -2 971 -2 892.5 -14 c 128,-1,52
 814 -26 814 -26 722 -26 c 0,53,54
 583 -26 583 -26 464.5 16 c 128,-1,55
 346 58 346 58 259.5 135 c 128,-1,56
 173 212 173 212 124 320.5 c 128,-1,57
 75 429 75 429 75 563 c 0,0,1
EndSplineSet
EndChar

StartChar: h
Encoding: 104 104 75
Width: 1449
GlyphClass: 2
Flags: W
LayerCount: 2
Fore
SplineSet
63 0 m 1,0,-1
 63 100 l 1,1,-1
 158 108 l 2,2,3
 175 110 175 110 187.5 117.5 c 128,-1,4
 200 125 200 125 200 137 c 2,5,-1
 200 984 l 2,6,7
 200 996 200 996 187.5 1003.5 c 128,-1,8
 175 1011 175 1011 158 1013 c 2,9,-1
 63 1021 l 1,10,-1
 63 1120 l 1,11,-1
 602 1120 l 1,12,-1
 602 1021 l 1,13,-1
 504 1013 l 2,14,15
 487 1011 487 1011 475.5 1003.5 c 128,-1,16
 464 996 464 996 464 984 c 2,17,-1
 464 648 l 1,18,-1
 972 648 l 1,19,-1
 972 984 l 2,20,21
 972 996 972 996 959.5 1003.5 c 128,-1,22
 947 1011 947 1011 930 1013 c 2,23,-1
 835 1021 l 1,24,-1
 835 1120 l 1,25,-1
 1372 1120 l 1,26,-1
 1372 1021 l 1,27,-1
 1276 1013 l 2,28,29
 1260 1011 1260 1011 1248 1003.5 c 128,-1,30
 1236 996 1236 996 1236 984 c 2,31,-1
 1236 137 l 2,32,33
 1236 125 1236 125 1247.5 117.5 c 128,-1,34
 1259 110 1259 110 1276 108 c 2,35,-1
 1372 100 l 1,36,-1
 1372 0 l 1,37,-1
 835 0 l 1,38,-1
 835 100 l 1,39,-1
 930 108 l 2,40,41
 947 110 947 110 959.5 117.5 c 128,-1,42
 972 125 972 125 972 137 c 2,43,-1
 972 526 l 1,44,-1
 464 526 l 1,45,-1
 464 137 l 2,46,47
 464 125 464 125 475.5 117.5 c 128,-1,48
 487 110 487 110 504 108 c 2,49,-1
 602 100 l 1,50,-1
 602 0 l 1,51,-1
 63 0 l 1,0,-1
EndSplineSet
EndChar

StartChar: i
Encoding: 105 105 76
Width: 676
GlyphClass: 2
Flags: W
LayerCount: 2
Fore
SplineSet
46 0 m 1,0,-1
 46 100 l 1,1,-1
 160 108 l 2,2,3
 177 110 177 110 189 117.5 c 128,-1,4
 201 125 201 125 201 137 c 2,5,-1
 201 984 l 2,6,7
 201 996 201 996 189 1003.5 c 128,-1,8
 177 1011 177 1011 160 1013 c 2,9,-1
 46 1021 l 1,10,-1
 46 1120 l 1,11,-1
 622 1120 l 1,12,-1
 622 1021 l 1,13,-1
 508 1013 l 2,14,15
 493 1011 493 1011 479 1003.5 c 128,-1,16
 465 996 465 996 465 984 c 2,17,-1
 465 137 l 2,18,19
 465 125 465 125 479 117.5 c 128,-1,20
 493 110 493 110 508 108 c 0,21,22
 537 106 537 106 565 104 c 128,-1,23
 593 102 593 102 622 100 c 1,24,-1
 622 0 l 1,25,-1
 46 0 l 1,0,-1
EndSplineSet
EndChar

StartChar: j
Encoding: 106 106 77
Width: 965
GlyphClass: 2
Flags: W
LayerCount: 2
Fore
SplineSet
49 20 m 1,0,-1
 49 337 l 1,1,-1
 192 337 l 1,2,-1
 236 110 l 2,3,4
 236 109 236 109 238.5 105.5 c 128,-1,5
 241 102 241 102 246.5 98.5 c 128,-1,6
 252 95 252 95 260.5 92 c 128,-1,7
 269 89 269 89 283 89 c 0,8,9
 334 89 334 89 373.5 105.5 c 128,-1,10
 413 122 413 122 440 159.5 c 128,-1,11
 467 197 467 197 480.5 259 c 128,-1,12
 494 321 494 321 494 412 c 2,13,-1
 494 984 l 2,14,15
 494 996 494 996 481.5 1003.5 c 128,-1,16
 469 1011 469 1011 454 1013 c 2,17,-1
 339 1021 l 1,18,-1
 339 1120 l 1,19,-1
 910 1120 l 1,20,-1
 910 1021 l 1,21,-1
 798 1013 l 2,22,23
 781 1011 781 1011 769 1003.5 c 128,-1,24
 757 996 757 996 757 984 c 2,25,-1
 757 407 l 2,26,27
 757 310 757 310 732 230 c 128,-1,28
 707 150 707 150 654 93 c 128,-1,29
 601 36 601 36 519.5 5 c 128,-1,30
 438 -26 438 -26 324 -26 c 0,31,32
 286 -26 286 -26 247 -21.5 c 128,-1,33
 208 -17 208 -17 171 -10 c 128,-1,34
 134 -3 134 -3 102.5 5 c 128,-1,35
 71 13 71 13 49 20 c 1,0,-1
EndSplineSet
EndChar

StartChar: k
Encoding: 107 107 78
Width: 1285
GlyphClass: 2
Flags: W
LayerCount: 2
Fore
SplineSet
60 0 m 1,0,-1
 60 100 l 1,1,-1
 158 108 l 2,2,3
 175 110 175 110 187 117.5 c 128,-1,4
 199 125 199 125 199 137 c 2,5,-1
 199 984 l 2,6,7
 199 996 199 996 187 1003.5 c 128,-1,8
 175 1011 175 1011 158 1013 c 2,9,-1
 60 1021 l 1,10,-1
 60 1120 l 1,11,-1
 601 1120 l 1,12,-1
 601 1021 l 1,13,-1
 503 1013 l 2,14,15
 486 1011 486 1011 474.5 1003.5 c 128,-1,16
 463 996 463 996 463 984 c 2,17,-1
 463 577 l 1,18,-1
 514 577 l 1,19,-1
 514 574 l 1,20,-1
 912 1005 l 1,21,22
 912 1007 912 1007 909.5 1010 c 128,-1,23
 907 1013 907 1013 903 1013 c 2,24,-1
 798 1021 l 1,25,-1
 798 1120 l 1,26,-1
 1220 1120 l 1,27,-1
 1220 1021 l 1,28,29
 1199 1020 1199 1020 1177 1018 c 0,30,31
 1158 1016 1158 1016 1135.5 1014 c 128,-1,32
 1113 1012 1113 1012 1090 1010 c 1,33,-1
 1090 1014 l 1,34,-1
 751 653 l 1,35,-1
 1134 106 l 1,36,-1
 1134 110 l 1,37,-1
 1266 100 l 1,38,-1
 1266 0 l 1,39,-1
 865 0 l 1,40,-1
 865 65 l 1,41,-1
 564 486 l 1,42,-1
 564 482 l 1,43,-1
 463 482 l 1,44,-1
 463 137 l 2,45,46
 463 125 463 125 474.5 117.5 c 128,-1,47
 486 110 486 110 503 108 c 2,48,-1
 601 100 l 1,49,-1
 601 0 l 1,50,-1
 60 0 l 1,0,-1
EndSplineSet
EndChar

StartChar: l
Encoding: 108 108 79
Width: 1044
GlyphClass: 2
Flags: W
LayerCount: 2
Fore
SplineSet
55 0 m 1,0,-1
 55 100 l 1,1,-1
 156 108 l 2,2,3
 173 110 173 110 185.5 117.5 c 128,-1,4
 198 125 198 125 198 137 c 2,5,-1
 198 984 l 2,6,7
 198 996 198 996 185.5 1003.5 c 128,-1,8
 173 1011 173 1011 156 1013 c 2,9,-1
 55 1021 l 1,10,-1
 55 1120 l 1,11,-1
 606 1120 l 1,12,-1
 606 1021 l 1,13,-1
 502 1013 l 2,14,15
 485 1011 485 1011 473.5 1003.5 c 128,-1,16
 462 996 462 996 462 984 c 2,17,-1
 462 116 l 1,18,-1
 783 116 l 2,19,20
 803 116 803 116 814 127.5 c 128,-1,21
 825 139 825 139 827 147 c 2,22,-1
 852 344 l 1,23,-1
 999 344 l 1,24,-1
 999 0 l 1,25,-1
 55 0 l 1,0,-1
EndSplineSet
EndChar

StartChar: m
Encoding: 109 109 80
Width: 1701
GlyphClass: 2
Flags: W
LayerCount: 2
Fore
SplineSet
54 0 m 1,0,-1
 54 100 l 1,1,-1
 158 108 l 2,2,3
 174 110 174 110 187.5 117.5 c 128,-1,4
 201 125 201 125 201 137 c 2,5,-1
 201 984 l 2,6,7
 201 996 201 996 187.5 1003.5 c 128,-1,8
 174 1011 174 1011 158 1013 c 2,9,-1
 54 1021 l 1,10,-1
 54 1120 l 1,11,-1
 584 1120 l 1,12,-1
 584 1069 l 1,13,-1
 845 364 l 1,14,15
 908 535 908 535 974.5 716.5 c 128,-1,16
 1041 898 1041 898 1103 1069 c 1,17,-1
 1103 1120 l 1,18,-1
 1627 1120 l 1,19,-1
 1627 1021 l 1,20,-1
 1523 1013 l 2,21,22
 1506 1011 1506 1011 1494 1003.5 c 128,-1,23
 1482 996 1482 996 1482 984 c 2,24,-1
 1482 137 l 2,25,26
 1482 125 1482 125 1494 117.5 c 128,-1,27
 1506 110 1506 110 1523 108 c 2,28,-1
 1627 100 l 1,29,-1
 1627 0 l 1,30,-1
 1087 0 l 1,31,-1
 1087 100 l 1,32,-1
 1177 108 l 2,33,34
 1193 110 1193 110 1205.5 117.5 c 128,-1,35
 1218 125 1218 125 1218 137 c 2,36,-1
 1218 998 l 1,37,38
 1127 755 1127 755 1031.5 499 c 128,-1,39
 936 243 936 243 845 0 c 1,40,-1
 707 0 l 1,41,-1
 341 991 l 1,42,-1
 341 137 l 2,43,44
 341 125 341 125 353.5 117.5 c 128,-1,45
 366 110 366 110 382 108 c 0,46,47
 406 106 406 106 431 104 c 2,48,-1
 481 100 l 1,49,-1
 481 0 l 1,50,-1
 54 0 l 1,0,-1
EndSplineSet
EndChar

StartChar: n
Encoding: 110 110 81
Width: 1402
GlyphClass: 2
Flags: W
LayerCount: 2
Fore
SplineSet
56 0 m 1,0,-1
 56 100 l 1,1,-1
 158 108 l 2,2,3
 175 110 175 110 187 117.5 c 128,-1,4
 199 125 199 125 199 137 c 2,5,-1
 199 984 l 2,6,7
 199 996 199 996 187 1003.5 c 128,-1,8
 175 1011 175 1011 158 1013 c 2,9,-1
 58 1021 l 1,10,-1
 58 1120 l 1,11,-1
 514 1120 l 1,12,-1
 514 1073 l 1,13,-1
 1047 330 l 1,14,-1
 1047 984 l 2,15,16
 1047 996 1047 996 1034 1003.5 c 128,-1,17
 1021 1011 1021 1011 1005 1013 c 2,18,-1
 899 1021 l 1,19,-1
 899 1120 l 1,20,-1
 1327 1120 l 1,21,-1
 1327 1021 l 1,22,-1
 1228 1013 l 2,23,24
 1212 1011 1212 1011 1200 1003.5 c 128,-1,25
 1188 996 1188 996 1188 984 c 2,26,-1
 1188 0 l 1,27,-1
 964 0 l 1,28,-1
 339 874 l 1,29,-1
 339 137 l 2,30,31
 339 125 339 125 352 117.5 c 128,-1,32
 365 110 365 110 380 108 c 0,33,34
 406 106 406 106 431.5 104 c 128,-1,35
 457 102 457 102 483 100 c 1,36,-1
 483 0 l 1,37,-1
 56 0 l 1,0,-1
EndSplineSet
EndChar

StartChar: o
Encoding: 111 111 82
Width: 1424
GlyphClass: 2
Flags: W
LayerCount: 2
Fore
SplineSet
75 567 m 0,0,1
 75 691 75 691 117 797 c 128,-1,2
 159 903 159 903 239.5 981 c 128,-1,3
 320 1059 320 1059 436 1103 c 128,-1,4
 552 1147 552 1147 699 1147 c 0,5,6
 843 1147 843 1147 961 1100 c 128,-1,7
 1079 1053 1079 1053 1162.5 972 c 128,-1,8
 1246 891 1246 891 1291.5 783 c 128,-1,9
 1337 675 1337 675 1337 554 c 0,10,11
 1337 435 1337 435 1292 329.5 c 128,-1,12
 1247 224 1247 224 1165.5 145 c 128,-1,13
 1084 66 1084 66 969.5 20 c 128,-1,14
 855 -26 855 -26 716 -26 c 0,15,16
 578 -26 578 -26 460.5 13.5 c 128,-1,17
 343 53 343 53 257.5 128.5 c 128,-1,18
 172 204 172 204 123.5 314.5 c 128,-1,19
 75 425 75 425 75 567 c 0,0,1
371 563 m 0,20,21
 371 477 371 477 390 392.5 c 128,-1,22
 409 308 409 308 449 241.5 c 128,-1,23
 489 175 489 175 550.5 134 c 128,-1,24
 612 93 612 93 697 93 c 0,25,26
 759 93 759 93 808.5 112.5 c 128,-1,27
 858 132 858 132 896 165 c 128,-1,28
 934 198 934 198 961.5 242.5 c 128,-1,29
 989 287 989 287 1006.5 337.5 c 128,-1,30
 1024 388 1024 388 1032 442 c 128,-1,31
 1040 496 1040 496 1040 548 c 0,32,33
 1040 643 1040 643 1019.5 729 c 128,-1,34
 999 815 999 815 958.5 880 c 128,-1,35
 918 945 918 945 857 983 c 128,-1,36
 796 1021 796 1021 716 1021 c 0,37,38
 620 1021 620 1021 554 980 c 128,-1,39
 488 939 488 939 447.5 873.5 c 128,-1,40
 407 808 407 808 389 726 c 128,-1,41
 371 644 371 644 371 563 c 0,20,21
EndSplineSet
EndChar

StartChar: p
Encoding: 112 112 83
Width: 1153
GlyphClass: 2
Flags: W
LayerCount: 2
Fore
SplineSet
48 1021 m 1,0,-1
 48 1120 l 1,1,-1
 566 1120 l 2,2,3
 659 1120 659 1120 749 1108.5 c 128,-1,4
 839 1097 839 1097 910 1060.5 c 128,-1,5
 981 1024 981 1024 1024.5 956.5 c 128,-1,6
 1068 889 1068 889 1068 778 c 0,7,8
 1068 670 1068 670 1025.5 598 c 128,-1,9
 983 526 983 526 914.5 483.5 c 128,-1,10
 846 441 846 441 759 423 c 128,-1,11
 672 405 672 405 583 405 c 2,12,-1
 536 405 l 2,13,14
 520 405 520 405 501 405.5 c 128,-1,15
 482 406 482 406 462 408 c 1,16,-1
 462 137 l 2,17,18
 462 125 462 125 473.5 117.5 c 128,-1,19
 485 110 485 110 502 108 c 0,20,21
 531 106 531 106 560.5 104 c 128,-1,22
 590 102 590 102 619 100 c 1,23,-1
 619 0 l 1,24,-1
 53 0 l 1,25,-1
 53 100 l 1,26,-1
 155 108 l 2,27,28
 172 110 172 110 185 117.5 c 128,-1,29
 198 125 198 125 198 137 c 2,30,-1
 198 984 l 2,31,32
 198 996 198 996 185 1003.5 c 128,-1,33
 172 1011 172 1011 155 1013 c 2,34,-1
 48 1021 l 1,0,-1
462 523 m 1,35,36
 480 522 480 522 490 522 c 2,37,-1
 512 522 l 2,38,39
 576 522 576 522 627.5 535.5 c 128,-1,40
 679 549 679 549 715.5 578 c 128,-1,41
 752 607 752 607 772 654.5 c 128,-1,42
 792 702 792 702 792 770 c 0,43,44
 792 825 792 825 776 868.5 c 128,-1,45
 760 912 760 912 730 942 c 128,-1,46
 700 972 700 972 658.5 988 c 128,-1,47
 617 1004 617 1004 566 1004 c 2,48,-1
 462 1004 l 1,49,-1
 462 523 l 1,35,36
EndSplineSet
EndChar

StartChar: q
Encoding: 113 113 84
Width: 1424
GlyphClass: 2
Flags: W
LayerCount: 2
Fore
SplineSet
75 567 m 0,0,1
 75 691 75 691 117 797 c 128,-1,2
 159 903 159 903 239.5 981 c 128,-1,3
 320 1059 320 1059 436 1103 c 128,-1,4
 552 1147 552 1147 699 1147 c 0,5,6
 843 1147 843 1147 961 1100 c 128,-1,7
 1079 1053 1079 1053 1162.5 972 c 128,-1,8
 1246 891 1246 891 1291.5 783 c 128,-1,9
 1337 675 1337 675 1337 554 c 0,10,11
 1337 451 1337 451 1302 358 c 128,-1,12
 1267 265 1267 265 1203 189.5 c 128,-1,13
 1139 114 1139 114 1050 61.5 c 128,-1,14
 961 9 961 9 853 -13 c 1,15,16
 853 -55 853 -55 873.5 -86.5 c 128,-1,17
 894 -118 894 -118 928.5 -139.5 c 128,-1,18
 963 -161 963 -161 1009 -171.5 c 128,-1,19
 1055 -182 1055 -182 1105 -182 c 0,20,21
 1132 -182 1132 -182 1173.5 -178.5 c 128,-1,22
 1215 -175 1215 -175 1276 -162 c 1,23,-1
 1276 -265 l 1,24,25
 1181 -285 1181 -285 1102.5 -294 c 128,-1,26
 1024 -303 1024 -303 949 -303 c 0,27,28
 851 -303 851 -303 781.5 -282.5 c 128,-1,29
 712 -262 712 -262 667.5 -224.5 c 128,-1,30
 623 -187 623 -187 601.5 -134 c 128,-1,31
 580 -81 580 -81 578 -16 c 1,32,33
 469 3 469 3 376.5 50.5 c 128,-1,34
 284 98 284 98 217 172 c 128,-1,35
 150 246 150 246 112.5 345 c 128,-1,36
 75 444 75 444 75 567 c 0,0,1
371 563 m 0,37,38
 371 477 371 477 390 392.5 c 128,-1,39
 409 308 409 308 449 241.5 c 128,-1,40
 489 175 489 175 550.5 134 c 128,-1,41
 612 93 612 93 697 93 c 0,42,43
 759 93 759 93 808.5 112.5 c 128,-1,44
 858 132 858 132 896 165 c 128,-1,45
 934 198 934 198 961.5 242.5 c 128,-1,46
 989 287 989 287 1006.5 337.5 c 128,-1,47
 1024 388 1024 388 1032 442 c 128,-1,48
 1040 496 1040 496 1040 548 c 0,49,50
 1040 643 1040 643 1019.5 729 c 128,-1,51
 999 815 999 815 958.5 880 c 128,-1,52
 918 945 918 945 857 983 c 128,-1,53
 796 1021 796 1021 716 1021 c 0,54,55
 620 1021 620 1021 554 980 c 128,-1,56
 488 939 488 939 447.5 873.5 c 128,-1,57
 407 808 407 808 389 726 c 128,-1,58
 371 644 371 644 371 563 c 0,37,38
EndSplineSet
EndChar

StartChar: r
Encoding: 114 114 85
Width: 1327
GlyphClass: 2
Flags: W
LayerCount: 2
Fore
SplineSet
58 0 m 1,0,-1
 58 100 l 1,1,-1
 156 108 l 2,2,3
 173 110 173 110 186 117.5 c 128,-1,4
 199 125 199 125 199 137 c 2,5,-1
 199 984 l 2,6,7
 199 996 199 996 186 1003.5 c 128,-1,8
 173 1011 173 1011 156 1013 c 2,9,-1
 58 1021 l 1,10,-1
 58 1120 l 1,11,-1
 672 1120 l 2,12,13
 706 1120 706 1120 749.5 1116 c 128,-1,14
 793 1112 793 1112 837.5 1101 c 128,-1,15
 882 1090 882 1090 925 1070 c 128,-1,16
 968 1050 968 1050 1001 1019 c 128,-1,17
 1034 988 1034 988 1054.5 943.5 c 128,-1,18
 1075 899 1075 899 1075 839 c 0,19,20
 1075 762 1075 762 1046.5 710.5 c 128,-1,21
 1018 659 1018 659 976 626 c 128,-1,22
 934 593 934 593 885 575 c 128,-1,23
 836 557 836 557 795 549 c 1,24,25
 851 532 851 532 890 503 c 128,-1,26
 929 474 929 474 955 439 c 128,-1,27
 981 404 981 404 998 365 c 128,-1,28
 1015 326 1015 326 1027 289 c 0,29,30
 1039 251 1039 251 1053.5 216.5 c 128,-1,31
 1068 182 1068 182 1092 155.5 c 128,-1,32
 1116 129 1116 129 1154.5 113 c 128,-1,33
 1193 97 1193 97 1254 97 c 0,34,35
 1278 97 1278 97 1307 100 c 1,36,-1
 1307 0 l 1,37,38
 1278 -3 1278 -3 1253 -7 c 128,-1,39
 1228 -11 1228 -11 1206 -16 c 1,40,41
 1183 -19 1183 -19 1162.5 -22.5 c 128,-1,42
 1142 -26 1142 -26 1124 -26 c 0,43,44
 1064 -26 1064 -26 1017.5 -14 c 128,-1,45
 971 -2 971 -2 934.5 19 c 128,-1,46
 898 40 898 40 871 68 c 128,-1,47
 844 96 844 96 823.5 128 c 128,-1,48
 803 160 803 160 787.5 194 c 128,-1,49
 772 228 772 228 759 261 c 0,50,51
 742 302 742 302 723 342 c 128,-1,52
 704 382 704 382 675 413.5 c 128,-1,53
 646 445 646 445 604 464.5 c 128,-1,54
 562 484 562 484 500 484 c 2,55,-1
 463 484 l 1,56,-1
 463 137 l 2,57,58
 463 125 463 125 474.5 117.5 c 128,-1,59
 486 110 486 110 503 108 c 2,60,-1
 605 100 l 1,61,-1
 605 0 l 1,62,-1
 58 0 l 1,0,-1
463 600 m 1,63,64
 471 600 471 600 481 600 c 128,-1,65
 491 600 491 600 498 599 c 0,66,67
 507 598 507 598 513 597.5 c 128,-1,68
 519 597 519 597 523 597 c 0,69,70
 566 597 566 597 614.5 604.5 c 128,-1,71
 663 612 663 612 704 634.5 c 128,-1,72
 745 657 745 657 771.5 698.5 c 128,-1,73
 798 740 798 740 798 808 c 0,74,75
 798 908 798 908 727.5 956.5 c 128,-1,76
 657 1005 657 1005 522 1005 c 2,77,-1
 513 1005 l 2,78,79
 509 1005 509 1005 503.5 1005.5 c 128,-1,80
 498 1006 498 1006 492 1006 c 2,81,-1
 478 1006 l 2,82,83
 470 1006 470 1006 463 1005 c 1,84,-1
 463 600 l 1,63,64
EndSplineSet
EndChar

StartChar: s
Encoding: 115 115 86
Width: 1010
GlyphClass: 2
Flags: W
LayerCount: 2
Fore
SplineSet
74 37 m 1,0,-1
 74 353 l 1,1,-1
 219 353 l 1,2,-1
 250 147 l 1,3,4
 252 141 252 141 260.5 135.5 c 128,-1,5
 269 130 269 130 273 130 c 1,6,7
 294 121 294 121 318 115 c 0,8,9
 338 110 338 110 364 105.5 c 128,-1,10
 390 101 390 101 417 101 c 0,11,12
 458 101 458 101 500 109 c 128,-1,13
 542 117 542 117 576.5 135 c 128,-1,14
 611 153 611 153 633 181 c 128,-1,15
 655 209 655 209 655 248 c 0,16,17
 655 291 655 291 633.5 324 c 128,-1,18
 612 357 612 357 577 384.5 c 128,-1,19
 542 412 542 412 496.5 435 c 128,-1,20
 451 458 451 458 402 481 c 2,21,-1
 351 505 l 2,22,23
 302 528 302 528 256.5 555 c 128,-1,24
 211 582 211 582 175.5 617.5 c 128,-1,25
 140 653 140 653 119 698.5 c 128,-1,26
 98 744 98 744 98 804 c 0,27,28
 98 886 98 886 134 950 c 128,-1,29
 170 1014 170 1014 231.5 1057.5 c 128,-1,30
 293 1101 293 1101 374 1124 c 128,-1,31
 455 1147 455 1147 545 1147 c 0,32,33
 614 1147 614 1147 677 1136.5 c 128,-1,34
 740 1126 740 1126 788 1113 c 0,35,36
 844 1098 844 1098 893 1080 c 1,37,-1
 893 795 l 1,38,-1
 752 795 l 1,39,-1
 720 978 l 1,40,41
 718 980 718 980 714 983 c 128,-1,42
 710 986 710 986 706 988 c 0,43,44
 702 991 702 991 697 994 c 0,45,46
 687 1001 687 1001 671 1007 c 0,47,48
 657 1012 657 1012 635.5 1016.5 c 128,-1,49
 614 1021 614 1021 583 1021 c 0,50,51
 537 1021 537 1021 496 1012 c 128,-1,52
 455 1003 455 1003 424 985 c 128,-1,53
 393 967 393 967 374.5 940.5 c 128,-1,54
 356 914 356 914 356 880 c 0,55,56
 356 839 356 839 377 807.5 c 128,-1,57
 398 776 398 776 432.5 750 c 128,-1,58
 467 724 467 724 512 702 c 128,-1,59
 557 680 557 680 605 659 c 0,60,61
 663 633 663 633 720 605 c 128,-1,62
 777 577 777 577 823 539.5 c 128,-1,63
 869 502 869 502 897.5 451.5 c 128,-1,64
 926 401 926 401 926 330 c 0,65,66
 926 241 926 241 885.5 174.5 c 128,-1,67
 845 108 845 108 777 63.5 c 128,-1,68
 709 19 709 19 620 -3.5 c 128,-1,69
 531 -26 531 -26 433 -26 c 0,70,71
 361 -26 361 -26 296.5 -16.5 c 128,-1,72
 232 -7 232 -7 182 5 c 0,73,74
 124 19 124 19 74 37 c 1,0,-1
EndSplineSet
EndChar

StartChar: t
Encoding: 116 116 87
Width: 1147
GlyphClass: 2
Flags: W
LayerCount: 2
Fore
SplineSet
36 803 m 1,0,-1
 36 1120 l 1,1,-1
 1100 1120 l 1,2,-1
 1100 803 l 1,3,-1
 967 803 l 1,4,-1
 933 992 l 1,5,6
 932 1005 932 1005 906 1005 c 2,7,-1
 700 1005 l 1,8,-1
 700 137 l 2,9,10
 700 125 700 125 712 117.5 c 128,-1,11
 724 110 724 110 741 108 c 0,12,13
 767 106 767 106 794.5 104 c 128,-1,14
 822 102 822 102 850 100 c 1,15,-1
 850 0 l 1,16,-1
 286 0 l 1,17,-1
 286 100 l 1,18,-1
 394 108 l 2,19,20
 411 110 411 110 423.5 117.5 c 128,-1,21
 436 125 436 125 436 137 c 2,22,-1
 436 1005 l 1,23,-1
 229 1005 l 2,24,25
 217 1005 217 1005 209.5 1002 c 128,-1,26
 202 999 202 999 201 992 c 2,27,-1
 167 803 l 1,28,-1
 36 803 l 1,0,-1
EndSplineSet
EndChar

StartChar: u
Encoding: 117 117 88
Width: 1374
GlyphClass: 2
Flags: W
LayerCount: 2
Fore
SplineSet
47 1021 m 1,0,-1
 47 1120 l 1,1,-1
 593 1120 l 1,2,-1
 593 1021 l 1,3,-1
 495 1013 l 2,4,5
 479 1011 479 1011 466.5 1003.5 c 128,-1,6
 454 996 454 996 454 984 c 2,7,-1
 454 413 l 2,8,9
 454 263 454 263 527 194.5 c 128,-1,10
 600 126 600 126 753 126 c 0,11,12
 826 126 826 126 877.5 146.5 c 128,-1,13
 929 167 929 167 962 204.5 c 128,-1,14
 995 242 995 242 1010.5 295 c 128,-1,15
 1026 348 1026 348 1026 413 c 2,16,-1
 1026 984 l 2,17,18
 1026 996 1026 996 1014 1003.5 c 128,-1,19
 1002 1011 1002 1011 985 1013 c 2,20,-1
 880 1021 l 1,21,-1
 880 1120 l 1,22,-1
 1305 1120 l 1,23,-1
 1305 1021 l 1,24,-1
 1207 1013 l 2,25,26
 1192 1011 1192 1011 1179.5 1003.5 c 128,-1,27
 1167 996 1167 996 1167 984 c 2,28,-1
 1167 426 l 2,29,30
 1167 303 1167 303 1136.5 217 c 128,-1,31
 1106 131 1106 131 1043.5 77 c 128,-1,32
 981 23 981 23 885.5 -1.5 c 128,-1,33
 790 -26 790 -26 661 -26 c 0,34,35
 422 -26 422 -26 306 89.5 c 128,-1,36
 190 205 190 205 190 426 c 2,37,-1
 190 984 l 2,38,39
 190 996 190 996 177 1003.5 c 128,-1,40
 164 1011 164 1011 147 1013 c 2,41,-1
 47 1021 l 1,0,-1
EndSplineSet
EndChar

StartChar: v
Encoding: 118 118 89
Width: 1330
GlyphClass: 2
Flags: W
LayerCount: 2
Fore
SplineSet
25 1021 m 1,0,-1
 25 1120 l 1,1,-1
 551 1120 l 1,2,-1
 551 1021 l 1,3,-1
 447 1009 l 1,4,5
 435 1005 435 1005 431 997 c 128,-1,6
 427 989 427 989 430 983 c 2,7,-1
 721 266 l 1,8,-1
 1004 985 l 1,9,-1
 1004 984 l 1,10,11
 1006 991 1006 991 1002 998.5 c 128,-1,12
 998 1006 998 1006 978 1009 c 2,13,-1
 879 1021 l 1,14,-1
 879 1120 l 1,15,-1
 1292 1120 l 1,16,-1
 1292 1021 l 1,17,-1
 1175 1007 l 1,18,-1
 1175 1013 l 1,19,-1
 748 -26 l 1,20,-1
 579 -26 l 1,21,-1
 144 1011 l 1,22,-1
 144 1005 l 1,23,-1
 25 1021 l 1,0,-1
EndSplineSet
EndChar

StartChar: w
Encoding: 119 119 90
Width: 1820
GlyphClass: 2
Flags: W
LayerCount: 2
Fore
SplineSet
27 1021 m 1,0,-1
 27 1120 l 1,1,-1
 530 1120 l 1,2,-1
 530 1021 l 1,3,-1
 421 1010 l 2,4,5
 406 1009 406 1009 404 1001 c 128,-1,6
 402 993 402 993 404 986 c 2,7,-1
 600 335 l 1,8,-1
 860 1120 l 1,9,-1
 1056 1120 l 1,10,-1
 1326 317 l 1,11,-1
 1326 316 l 1,12,-1
 1511 986 l 2,13,14
 1513 993 1513 993 1507 1000 c 128,-1,15
 1501 1007 1501 1007 1484 1010 c 1,16,-1
 1366 1021 l 1,17,-1
 1366 1120 l 1,18,-1
 1775 1120 l 1,19,-1
 1775 1021 l 1,20,-1
 1662 1007 l 1,21,-1
 1662 1014 l 1,22,-1
 1370 -26 l 1,23,-1
 1199 -26 l 1,24,-1
 908 835 l 1,25,-1
 624 -26 l 1,26,-1
 450 -26 l 1,27,-1
 140 1013 l 1,28,-1
 140 1007 l 1,29,30
 112 1010 112 1010 83.5 1014 c 128,-1,31
 55 1018 55 1018 27 1021 c 1,0,-1
EndSplineSet
EndChar

StartChar: x
Encoding: 120 120 91
Width: 1264
GlyphClass: 2
Flags: W
LayerCount: 2
Fore
SplineSet
24 0 m 1,0,-1
 24 100 l 1,1,-1
 144 113 l 1,2,-1
 144 110 l 1,3,-1
 507 535 l 1,4,-1
 165 1009 l 1,5,-1
 165 1005 l 1,6,-1
 49 1021 l 1,7,-1
 49 1120 l 1,8,-1
 590 1120 l 1,9,-1
 590 1021 l 1,10,-1
 492 1013 l 2,11,12
 484 1013 484 1013 480 1004.5 c 128,-1,13
 476 996 476 996 482 985 c 1,14,-1
 667 725 l 1,15,-1
 667 726 l 1,16,-1
 894 987 l 2,17,18
 903 997 903 997 898 1005.5 c 128,-1,19
 893 1014 893 1014 883 1014 c 2,20,-1
 786 1021 l 1,21,-1
 786 1120 l 1,22,-1
 1206 1120 l 1,23,-1
 1206 1021 l 1,24,-1
 1090 1005 l 1,25,-1
 1090 1009 l 1,26,-1
 748 613 l 1,27,-1
 1110 109 l 1,28,-1
 1110 113 l 1,29,30
 1140 110 1140 110 1169 106 c 128,-1,31
 1198 102 1198 102 1227 100 c 1,32,-1
 1227 0 l 1,33,-1
 673 0 l 1,34,-1
 673 100 l 1,35,-1
 786 107 l 2,36,37
 794 108 794 108 798 115.5 c 128,-1,38
 802 123 802 123 794 134 c 2,39,-1
 588 424 l 1,40,-1
 588 423 l 1,41,-1
 339 135 l 2,42,43
 330 124 330 124 336 116.5 c 128,-1,44
 342 109 342 109 350 108 c 0,45,46
 377 106 377 106 405 104 c 2,47,-1
 461 100 l 1,48,-1
 461 0 l 1,49,-1
 24 0 l 1,0,-1
EndSplineSet
EndChar

StartChar: y
Encoding: 121 121 92
Width: 1249
GlyphClass: 2
Flags: W
LayerCount: 2
Fore
SplineSet
24 1021 m 1,0,-1
 24 1120 l 1,1,-1
 549 1120 l 1,2,-1
 549 1021 l 1,3,-1
 452 1013 l 2,4,5
 444 1013 444 1013 439.5 1004.5 c 128,-1,6
 435 996 435 996 442 985 c 2,7,-1
 674 594 l 1,8,9
 735 689 735 689 800 790.5 c 128,-1,10
 865 892 865 892 926 986 c 1,11,12
 931 996 931 996 928 1005 c 128,-1,13
 925 1014 925 1014 917 1014 c 2,14,-1
 804 1021 l 1,15,-1
 804 1120 l 1,16,-1
 1212 1120 l 1,17,-1
 1212 1021 l 1,18,-1
 1106 1005 l 1,19,-1
 1106 1009 l 1,20,-1
 764 481 l 1,21,-1
 764 137 l 2,22,23
 764 125 764 125 775.5 117.5 c 128,-1,24
 787 110 787 110 804 108 c 0,25,26
 832 106 832 106 860.5 104 c 128,-1,27
 889 102 889 102 917 100 c 1,28,-1
 917 0 l 1,29,-1
 344 0 l 1,30,-1
 344 100 l 1,31,-1
 457 108 l 2,32,33
 472 110 472 110 486 117.5 c 128,-1,34
 500 125 500 125 500 137 c 2,35,-1
 500 435 l 1,36,37
 457 503 457 503 412 576 c 128,-1,38
 367 649 367 649 321 722.5 c 128,-1,39
 275 796 275 796 230.5 868.5 c 128,-1,40
 186 941 186 941 144 1009 c 1,41,-1
 144 1005 l 1,42,-1
 24 1021 l 1,0,-1
EndSplineSet
EndChar

StartChar: z
Encoding: 122 122 93
Width: 1095
GlyphClass: 2
Flags: W
LayerCount: 2
Fore
SplineSet
74 0 m 1,0,-1
 74 109 l 1,1,-1
 698 1004 l 1,2,-1
 299 1004 l 2,3,4
 274 1004 274 1004 273 991 c 1,5,-1
 239 804 l 1,6,-1
 106 804 l 1,7,-1
 106 1120 l 1,8,-1
 1001 1120 l 1,9,-1
 1001 1011 l 1,10,-1
 377 118 l 1,11,-1
 811 118 l 2,12,13
 834 118 834 118 839 131 c 1,14,-1
 839 130 l 1,15,16
 847 181 847 181 857.5 235 c 128,-1,17
 868 289 868 289 877 340 c 1,18,-1
 1010 340 l 1,19,-1
 1010 0 l 1,20,-1
 74 0 l 1,0,-1
EndSplineSet
EndChar

StartChar: braceleft
Encoding: 123 123 94
Width: 1014
GlyphClass: 2
Flags: W
LayerCount: 2
Fore
SplineSet
84 537 m 1,0,-1
 84 659 l 1,1,2
 126 653 126 653 166 657 c 0,3,4
 201 660 201 660 240 672.5 c 128,-1,5
 279 685 279 685 309 715 c 256,6,7
 339 745 339 745 348.5 793.5 c 128,-1,8
 358 842 358 842 359 900 c 128,-1,9
 360 958 360 958 358.5 1022 c 128,-1,10
 357 1086 357 1086 363.5 1147.5 c 128,-1,11
 370 1209 370 1209 391 1265 c 128,-1,12
 412 1321 412 1321 459 1362 c 0,13,14
 484 1385 484 1385 521 1400 c 128,-1,15
 558 1415 558 1415 599 1424.5 c 128,-1,16
 640 1434 640 1434 682 1438.5 c 128,-1,17
 724 1443 724 1443 760.5 1444.5 c 128,-1,18
 797 1446 797 1446 824 1446 c 2,19,-1
 864 1446 l 1,20,-1
 864 1333 l 1,21,22
 827 1333 827 1333 791 1328 c 0,23,24
 760 1323 760 1323 726.5 1312 c 128,-1,25
 693 1301 693 1301 670 1278 c 0,26,27
 639 1248 639 1248 628 1203.5 c 128,-1,28
 617 1159 617 1159 615 1106.5 c 128,-1,29
 613 1054 613 1054 614 997 c 128,-1,30
 615 940 615 940 609 884.5 c 128,-1,31
 603 829 603 829 584.5 778 c 128,-1,32
 566 727 566 727 524 688 c 0,33,34
 492 657 492 657 457 639 c 128,-1,35
 422 621 422 621 392 612 c 128,-1,36
 362 603 362 603 339 600 c 0,37,38
 322 598 322 598 313 598 c 1,39,40
 322 597 322 597 339 595 c 0,41,42
 362 592 362 592 392 582.5 c 128,-1,43
 422 573 422 573 457 555 c 128,-1,44
 492 537 492 537 524 506 c 0,45,46
 566 466 566 466 584.5 415.5 c 128,-1,47
 603 365 603 365 609 309.5 c 128,-1,48
 615 254 615 254 614 197.5 c 128,-1,49
 613 141 613 141 615 89 c 128,-1,50
 617 37 617 37 628 -7.5 c 128,-1,51
 639 -52 639 -52 670 -82 c 0,52,53
 693 -105 693 -105 726.5 -116 c 128,-1,54
 760 -127 760 -127 791 -132 c 0,55,56
 827 -137 827 -137 864 -137 c 1,57,-1
 864 -250 l 1,58,-1
 824 -250 l 2,59,60
 797 -250 797 -250 760.5 -248.5 c 128,-1,61
 724 -247 724 -247 682 -242.5 c 128,-1,62
 640 -238 640 -238 599 -228.5 c 128,-1,63
 558 -219 558 -219 521 -204 c 128,-1,64
 484 -189 484 -189 459 -166 c 0,65,66
 412 -125 412 -125 391 -69 c 128,-1,67
 370 -13 370 -13 363.5 48.5 c 128,-1,68
 357 110 357 110 358.5 173.5 c 128,-1,69
 360 237 360 237 359 295 c 128,-1,70
 358 353 358 353 348.5 401 c 128,-1,71
 339 449 339 449 309 479 c 256,72,73
 279 509 279 509 240 521.5 c 128,-1,74
 201 534 201 534 166 538 c 0,75,76
 126 542 126 542 84 537 c 1,0,-1
EndSplineSet
EndChar

StartChar: bar
Encoding: 124 124 95
Width: 815
GlyphClass: 2
Flags: W
LayerCount: 2
Fore
SplineSet
320 -528 m 1,0,-1
 320 1630 l 1,1,-1
 495 1630 l 1,2,-1
 495 -528 l 1,3,-1
 320 -528 l 1,0,-1
EndSplineSet
EndChar

StartChar: braceright
Encoding: 125 125 96
Width: 1014
GlyphClass: 2
Flags: W
LayerCount: 2
Fore
SplineSet
150 -137 m 1,0,1
 187 -137 187 -137 223 -132 c 0,2,3
 254 -127 254 -127 287 -116 c 128,-1,4
 320 -105 320 -105 344 -82 c 0,5,6
 375 -52 375 -52 386 -8 c 128,-1,7
 397 36 397 36 399 88 c 128,-1,8
 401 140 401 140 400 196.5 c 128,-1,9
 399 253 399 253 404.5 308.5 c 128,-1,10
 410 364 410 364 428.5 415 c 128,-1,11
 447 466 447 466 489 506 c 0,12,13
 521 536 521 536 555 554 c 128,-1,14
 589 572 589 572 619.5 581.5 c 128,-1,15
 650 591 650 591 673 594 c 128,-1,16
 696 597 696 597 705 598 c 1,17,18
 698 598 698 598 675.5 600 c 128,-1,19
 653 602 653 602 622.5 611 c 128,-1,20
 592 620 592 620 557 638 c 128,-1,21
 522 656 522 656 489 688 c 0,22,23
 447 728 447 728 428.5 779 c 128,-1,24
 410 830 410 830 404.5 885.5 c 128,-1,25
 399 941 399 941 400 998 c 128,-1,26
 401 1055 401 1055 399 1107.5 c 128,-1,27
 397 1160 397 1160 386 1204 c 128,-1,28
 375 1248 375 1248 344 1278 c 0,29,30
 320 1301 320 1301 287 1312 c 128,-1,31
 254 1323 254 1323 223 1328 c 0,32,33
 187 1333 187 1333 150 1333 c 1,34,-1
 150 1446 l 1,35,-1
 189 1446 l 2,36,37
 217 1446 217 1446 253.5 1444.5 c 128,-1,38
 290 1443 290 1443 332 1438.5 c 128,-1,39
 374 1434 374 1434 415 1424.5 c 128,-1,40
 456 1415 456 1415 493 1400 c 128,-1,41
 530 1385 530 1385 555 1362 c 0,42,43
 601 1320 601 1320 621.5 1264.5 c 128,-1,44
 642 1209 642 1209 648.5 1147.5 c 128,-1,45
 655 1086 655 1086 653.5 1022 c 128,-1,46
 652 958 652 958 653.5 900 c 128,-1,47
 655 842 655 842 665 793.5 c 128,-1,48
 675 745 675 745 705 715 c 0,49,50
 734 685 734 685 773 672.5 c 128,-1,51
 812 660 812 660 847 657 c 0,52,53
 887 653 887 653 930 659 c 1,54,-1
 930 537 l 1,55,56
 887 542 887 542 847 538 c 0,57,58
 812 534 812 534 773 521.5 c 128,-1,59
 734 509 734 509 705 479 c 0,60,61
 675 448 675 448 665 400 c 128,-1,62
 655 352 655 352 653.5 294 c 128,-1,63
 652 236 652 236 653.5 172.5 c 128,-1,64
 655 109 655 109 648.5 47.5 c 128,-1,65
 642 -14 642 -14 621.5 -69.5 c 128,-1,66
 601 -125 601 -125 555 -166 c 0,67,68
 529 -189 529 -189 492.5 -204 c 128,-1,69
 456 -219 456 -219 415 -228.5 c 128,-1,70
 374 -238 374 -238 332 -242.5 c 128,-1,71
 290 -247 290 -247 253.5 -248.5 c 128,-1,72
 217 -250 217 -250 189 -250 c 2,73,-1
 150 -250 l 1,74,-1
 150 -137 l 1,0,1
EndSplineSet
EndChar

StartChar: asciitilde
Encoding: 126 126 97
Width: 1706
GlyphClass: 2
Flags: W
LayerCount: 2
Fore
SplineSet
176 412 m 1,0,-1
 176 606 l 1,1,2
 292 694 292 694 392 729 c 128,-1,3
 492 764 492 764 575 764 c 0,4,5
 633 764 633 764 688 751.5 c 128,-1,6
 743 739 743 739 796.5 721 c 128,-1,7
 850 703 850 703 903 682.5 c 128,-1,8
 956 662 956 662 1010 647 c 0,9,10
 1042 638 1042 638 1074 632.5 c 128,-1,11
 1106 627 1106 627 1137 627 c 0,12,13
 1170 627 1170 627 1208 635 c 128,-1,14
 1246 643 1246 643 1293.5 663.5 c 128,-1,15
 1341 684 1341 684 1399 719.5 c 128,-1,16
 1457 755 1457 755 1530 809 c 1,17,-1
 1530 614 l 1,18,19
 1468 570 1468 570 1414.5 540 c 128,-1,20
 1361 510 1361 510 1313.5 492 c 128,-1,21
 1266 474 1266 474 1222 466.5 c 128,-1,22
 1178 459 1178 459 1135 459 c 0,23,24
 1060 459 1060 459 989.5 480.5 c 128,-1,25
 919 502 919 502 849.5 527.5 c 128,-1,26
 780 553 780 553 709 574.5 c 128,-1,27
 638 596 638 596 563 596 c 0,28,29
 492 596 492 596 398 552.5 c 128,-1,30
 304 509 304 509 176 412 c 1,0,-1
EndSplineSet
EndChar

StartChar: exclamdown
Encoding: 161 161 99
Width: 696
GlyphClass: 2
Flags: W
LayerCount: 2
Fore
SplineSet
180 -242 m 1,0,-1
 291 573 l 1,1,-1
 401 573 l 1,2,-1
 514 -242 l 1,3,4
 514 -284 514 -284 500.5 -315 c 128,-1,5
 487 -346 487 -346 464.5 -367 c 128,-1,6
 442 -388 442 -388 411 -398 c 128,-1,7
 380 -408 380 -408 346 -408 c 256,8,9
 312 -408 312 -408 282 -398 c 128,-1,10
 252 -388 252 -388 229.5 -367.5 c 128,-1,11
 207 -347 207 -347 193.5 -316 c 128,-1,12
 180 -285 180 -285 180 -242 c 1,0,-1
182 856 m 0,13,14
 182 891 182 891 195 922 c 128,-1,15
 208 953 208 953 230.5 975.5 c 128,-1,16
 253 998 253 998 283 1011 c 128,-1,17
 313 1024 313 1024 346 1024 c 0,18,19
 371 1024 371 1024 400.5 1015 c 128,-1,20
 430 1006 430 1006 454.5 985.5 c 128,-1,21
 479 965 479 965 495.5 933 c 128,-1,22
 512 901 512 901 512 856 c 0,23,24
 512 816 512 816 497 786 c 128,-1,25
 482 756 482 756 458 735.5 c 128,-1,26
 434 715 434 715 404.5 704.5 c 128,-1,27
 375 694 375 694 346 694 c 256,28,29
 317 694 317 694 288 705 c 128,-1,30
 259 716 259 716 235.5 737 c 128,-1,31
 212 758 212 758 197 788 c 128,-1,32
 182 818 182 818 182 856 c 0,13,14
EndSplineSet
EndChar

StartChar: cent
Encoding: 162 162 100
Width: 1202
GlyphClass: 2
Flags: W
LayerCount: 2
Fore
SplineSet
135 516 m 0,0,1
 135 633 135 633 176.5 730.5 c 128,-1,2
 218 828 218 828 289.5 899 c 128,-1,3
 361 970 361 970 456.5 1009.5 c 128,-1,4
 552 1049 552 1049 659 1049 c 1,5,-1
 659 1260 l 1,6,-1
 776 1260 l 1,7,-1
 776 1053 l 1,8,9
 810 1053 810 1053 849.5 1048 c 128,-1,10
 889 1043 889 1043 929 1034.5 c 128,-1,11
 969 1026 969 1026 1005 1014.5 c 128,-1,12
 1041 1003 1041 1003 1067 991 c 1,13,-1
 1067 696 l 1,14,-1
 940 696 l 1,15,-1
 918 844 l 1,16,-1
 918 891 l 1,17,18
 911 896 911 896 895.5 903 c 128,-1,19
 880 910 880 910 860 916.5 c 128,-1,20
 840 923 840 923 818 927.5 c 128,-1,21
 796 932 796 932 776 932 c 1,22,-1
 776 123 l 1,23,24
 811 123 811 123 837.5 128 c 128,-1,25
 864 133 864 133 881 139 c 0,26,27
 901 146 901 146 915 156 c 1,28,-1
 915 197 l 1,29,-1
 940 360 l 1,30,-1
 1067 360 l 1,31,-1
 1067 55 l 1,32,33
 1060 48 1060 48 1039 41 c 128,-1,34
 1018 34 1018 34 989.5 28 c 128,-1,35
 961 22 961 22 928.5 17 c 128,-1,36
 896 12 896 12 865.5 8 c 128,-1,37
 835 4 835 4 811 2 c 128,-1,38
 787 0 787 0 776 0 c 1,39,-1
 776 -211 l 1,40,-1
 659 -211 l 1,41,-1
 659 2 l 1,42,43
 552 2 552 2 457 41.5 c 128,-1,44
 362 81 362 81 290.5 150.5 c 128,-1,45
 219 220 219 220 177 314 c 128,-1,46
 135 408 135 408 135 516 c 0,0,1
418 516 m 0,47,48
 418 434 418 434 438.5 367 c 128,-1,49
 459 300 459 300 492.5 250.5 c 128,-1,50
 526 201 526 201 569.5 170 c 128,-1,51
 613 139 613 139 659 127 c 1,52,-1
 659 928 l 1,53,54
 618 919 618 919 575 892.5 c 128,-1,55
 532 866 532 866 497 817 c 128,-1,56
 462 768 462 768 440 694 c 128,-1,57
 418 620 418 620 418 516 c 0,47,48
EndSplineSet
EndChar

StartChar: sterling
Encoding: 163 163 101
Width: 1202
GlyphClass: 2
Flags: W
LayerCount: 2
Fore
SplineSet
86 0 m 1,0,-1
 86 156 l 1,1,2
 96 160 96 160 116 164 c 128,-1,3
 136 168 136 168 160 178.5 c 128,-1,4
 184 189 184 189 209.5 209.5 c 128,-1,5
 235 230 235 230 255.5 269 c 128,-1,6
 276 308 276 308 288 368 c 128,-1,7
 300 428 300 428 299 518 c 2,8,-1
 297 608 l 1,9,-1
 154 608 l 1,10,-1
 154 739 l 1,11,-1
 295 739 l 1,12,-1
 291 775 l 2,13,14
 289 791 289 791 288 808.5 c 128,-1,15
 287 826 287 826 287 842 c 0,16,17
 287 962 287 962 314 1065.5 c 128,-1,18
 341 1169 341 1169 399 1245 c 128,-1,19
 457 1321 457 1321 547 1364 c 128,-1,20
 637 1407 637 1407 762 1407 c 0,21,22
 816 1407 816 1407 878 1393 c 128,-1,23
 940 1379 940 1379 992.5 1349 c 128,-1,24
 1045 1319 1045 1319 1079.5 1272.5 c 128,-1,25
 1114 1226 1114 1226 1114 1161 c 0,26,27
 1114 1126 1114 1126 1100 1099 c 128,-1,28
 1086 1072 1086 1072 1062.5 1054 c 128,-1,29
 1039 1036 1039 1036 1009 1027 c 128,-1,30
 979 1018 979 1018 948 1018 c 0,31,32
 934 1018 934 1018 919.5 1020.5 c 128,-1,33
 905 1023 905 1023 891 1027 c 0,34,35
 875 1031 875 1031 860 1036 c 1,36,-1
 860 1286 l 1,37,38
 855 1288 855 1288 847 1290 c 0,39,40
 840 1292 840 1292 828 1293 c 128,-1,41
 816 1294 816 1294 799 1294 c 0,42,43
 737 1294 737 1294 695 1270 c 128,-1,44
 653 1246 653 1246 626.5 1208 c 128,-1,45
 600 1170 600 1170 586 1121.5 c 128,-1,46
 572 1073 572 1073 566 1023.5 c 128,-1,47
 560 974 560 974 559.5 928.5 c 128,-1,48
 559 883 559 883 559 850 c 0,49,50
 559 825 559 825 559.5 804.5 c 128,-1,51
 560 784 560 784 561 770 c 0,52,53
 562 752 562 752 563 739 c 1,54,-1
 934 739 l 1,55,-1
 934 608 l 1,56,-1
 567 608 l 1,57,58
 567 554 567 554 559.5 501.5 c 128,-1,59
 552 449 552 449 529 398.5 c 128,-1,60
 506 348 506 348 462 298.5 c 128,-1,61
 418 249 418 249 346 201 c 1,62,63
 381 205 381 205 409 209 c 0,64,65
 433 212 433 212 454.5 214.5 c 128,-1,66
 476 217 476 217 481 217 c 2,67,-1
 1114 217 l 1,68,-1
 1114 0 l 1,69,-1
 86 0 l 1,0,-1
EndSplineSet
EndChar

StartChar: currency
Encoding: 164 164 102
Width: 1249
GlyphClass: 2
Flags: W
LayerCount: 2
Fore
SplineSet
82 401 m 1,0,-1
 293 612 l 1,1,2
 248 668 248 668 225.5 735 c 128,-1,3
 203 802 203 802 203 874 c 0,4,5
 203 910 203 910 208.5 946.5 c 128,-1,6
 214 983 214 983 225.5 1018 c 128,-1,7
 237 1053 237 1053 254.5 1085.5 c 128,-1,8
 272 1118 272 1118 297 1145 c 1,9,-1
 82 1360 l 1,10,-1
 156 1434 l 1,11,-1
 371 1219 l 1,12,13
 426 1264 426 1264 496.5 1286.5 c 128,-1,14
 567 1309 567 1309 639 1309 c 0,15,16
 710 1309 710 1309 777 1285.5 c 128,-1,17
 844 1262 844 1262 897 1217 c 1,18,-1
 1114 1434 l 1,19,-1
 1188 1360 l 1,20,-1
 975 1147 l 1,21,22
 1018 1093 1018 1093 1042.5 1021 c 128,-1,23
 1067 949 1067 949 1067 877 c 0,24,25
 1067 804 1067 804 1045 736 c 128,-1,26
 1023 668 1023 668 977 612 c 1,27,-1
 1188 401 l 1,28,-1
 1114 328 l 1,29,-1
 903 539 l 1,30,31
 847 491 847 491 778.5 466.5 c 128,-1,32
 710 442 710 442 639 442 c 0,33,34
 562 442 562 442 493 465.5 c 128,-1,35
 424 489 424 489 367 539 c 1,36,-1
 156 328 l 1,37,-1
 82 401 l 1,0,-1
319 874 m 0,38,39
 319 808 319 808 344 750.5 c 128,-1,40
 369 693 369 693 412.5 650.5 c 128,-1,41
 456 608 456 608 514.5 583.5 c 128,-1,42
 573 559 573 559 639 559 c 0,43,44
 704 559 704 559 761 584.5 c 128,-1,45
 818 610 818 610 860 653.5 c 128,-1,46
 902 697 902 697 926 754.5 c 128,-1,47
 950 812 950 812 950 877 c 0,48,49
 950 941 950 941 925.5 998 c 128,-1,50
 901 1055 901 1055 859 1098 c 128,-1,51
 817 1141 817 1141 760 1166.5 c 128,-1,52
 703 1192 703 1192 639 1192 c 0,53,54
 572 1192 572 1192 514 1167.5 c 128,-1,55
 456 1143 456 1143 412.5 1100 c 128,-1,56
 369 1057 369 1057 344 999 c 128,-1,57
 319 941 319 941 319 874 c 0,38,39
EndSplineSet
EndChar

StartChar: yen
Encoding: 165 165 103
Width: 1300
GlyphClass: 2
Flags: W
LayerCount: 2
Fore
SplineSet
14 1270 m 1,0,-1
 14 1374 l 1,1,-1
 578 1374 l 1,2,-1
 578 1270 l 1,3,-1
 483 1262 l 2,4,5
 468 1260 468 1260 458.5 1246 c 128,-1,6
 449 1232 449 1232 457 1217 c 2,7,-1
 713 725 l 1,8,-1
 975 1206 l 2,9,10
 978 1211 978 1211 979.5 1217.5 c 128,-1,11
 981 1224 981 1224 978.5 1230.5 c 128,-1,12
 976 1237 976 1237 969 1242.5 c 128,-1,13
 962 1248 962 1248 948 1251 c 2,14,-1
 848 1272 l 1,15,-1
 848 1374 l 1,16,-1
 1286 1374 l 1,17,-1
 1286 1270 l 1,18,-1
 1169 1247 l 1,19,-1
 967 883 l 1,20,-1
 1233 883 l 1,21,-1
 1233 776 l 1,22,-1
 903 776 l 1,23,-1
 797 584 l 1,24,-1
 1233 584 l 1,25,-1
 1233 479 l 1,26,-1
 803 479 l 1,27,-1
 803 162 l 2,28,29
 803 151 803 151 815.5 135.5 c 128,-1,30
 828 120 828 120 856 117 c 2,31,-1
 977 106 l 1,32,-1
 977 0 l 1,33,-1
 342 0 l 1,34,-1
 342 106 l 1,35,-1
 465 117 l 2,36,37
 493 120 493 120 504.5 135.5 c 128,-1,38
 516 151 516 151 516 162 c 2,39,-1
 516 479 l 1,40,-1
 78 479 l 1,41,-1
 78 584 l 1,42,-1
 492 584 l 1,43,-1
 393 776 l 1,44,-1
 78 776 l 1,45,-1
 78 883 l 1,46,-1
 328 883 l 1,47,-1
 139 1249 l 1,48,-1
 14 1270 l 1,0,-1
EndSplineSet
EndChar

StartChar: brokenbar
Encoding: 166 166 104
Width: 707
GlyphClass: 2
Flags: W
LayerCount: 2
Fore
SplineSet
301 -406 m 1,0,-1
 301 414 l 1,1,-1
 406 414 l 1,2,-1
 406 -406 l 1,3,-1
 301 -406 l 1,0,-1
301 688 m 1,4,-1
 301 1507 l 1,5,-1
 406 1507 l 1,6,-1
 406 688 l 1,7,-1
 301 688 l 1,4,-1
EndSplineSet
EndChar

StartChar: section
Encoding: 167 167 105
Width: 1024
GlyphClass: 2
Flags: W
LayerCount: 2
Fore
SplineSet
86 586 m 0,0,1
 86 642 86 642 101 686 c 128,-1,2
 116 730 116 730 139 764 c 128,-1,3
 162 798 162 798 190.5 823 c 128,-1,4
 219 848 219 848 245.5 865 c 128,-1,5
 272 882 272 882 294 892.5 c 128,-1,6
 316 903 316 903 326 907 c 1,7,8
 306 919 306 919 272 939 c 128,-1,9
 238 959 238 959 206 990.5 c 128,-1,10
 174 1022 174 1022 150.5 1067.5 c 128,-1,11
 127 1113 127 1113 127 1178 c 0,12,13
 127 1254 127 1254 161 1309.5 c 128,-1,14
 195 1365 195 1365 253 1402 c 128,-1,15
 311 1439 311 1439 386.5 1457 c 128,-1,16
 462 1475 462 1475 545 1475 c 0,17,18
 618 1475 618 1475 678 1467 c 128,-1,19
 738 1459 738 1459 782 1449 c 0,20,21
 833 1438 833 1438 874 1423 c 1,22,-1
 874 1141 l 1,23,-1
 762 1141 l 1,24,-1
 739 1309 l 1,25,26
 717 1324 717 1324 689 1336 c 0,27,28
 665 1347 665 1347 630 1355.5 c 128,-1,29
 595 1364 595 1364 551 1364 c 0,30,31
 516 1364 516 1364 483 1354 c 128,-1,32
 450 1344 450 1344 423.5 1324 c 128,-1,33
 397 1304 397 1304 381 1274.5 c 128,-1,34
 365 1245 365 1245 365 1206 c 0,35,36
 365 1166 365 1166 389.5 1134.5 c 128,-1,37
 414 1103 414 1103 454.5 1076 c 128,-1,38
 495 1049 495 1049 546.5 1024.5 c 128,-1,39
 598 1000 598 1000 651.5 973 c 128,-1,40
 705 946 705 946 756.5 914.5 c 128,-1,41
 808 883 808 883 848.5 842 c 128,-1,42
 889 801 889 801 913.5 748.5 c 128,-1,43
 938 696 938 696 938 627 c 0,44,45
 938 565 938 565 920.5 517 c 128,-1,46
 903 469 903 469 877 432.5 c 128,-1,47
 851 396 851 396 820 370.5 c 128,-1,48
 789 345 789 345 761 328.5 c 128,-1,49
 733 312 733 312 713.5 303.5 c 128,-1,50
 694 295 694 295 690 293 c 1,51,52
 707 282 707 282 741.5 263 c 128,-1,53
 776 244 776 244 810.5 212.5 c 128,-1,54
 845 181 845 181 871 135.5 c 128,-1,55
 897 90 897 90 897 27 c 0,56,57
 897 -62 897 -62 858.5 -123.5 c 128,-1,58
 820 -185 820 -185 759 -222.5 c 128,-1,59
 698 -260 698 -260 622 -276.5 c 128,-1,60
 546 -293 546 -293 471 -293 c 0,61,62
 397 -293 397 -293 335.5 -282.5 c 128,-1,63
 274 -272 274 -272 229 -259 c 0,64,65
 176 -244 176 -244 133 -225 c 1,66,-1
 133 59 l 1,67,-1
 258 59 l 1,68,-1
 285 -131 l 1,69,70
 305 -143 305 -143 331 -152 c 128,-1,71
 357 -161 357 -161 383 -167 c 128,-1,72
 409 -173 409 -173 433.5 -175.5 c 128,-1,73
 458 -178 458 -178 475 -178 c 0,74,75
 514 -178 514 -178 549 -166.5 c 128,-1,76
 584 -155 584 -155 610.5 -134.5 c 128,-1,77
 637 -114 637 -114 652.5 -85 c 128,-1,78
 668 -56 668 -56 668 -20 c 0,79,80
 668 25 668 25 643 58.5 c 128,-1,81
 618 92 618 92 577 120.5 c 128,-1,82
 536 149 536 149 484 174 c 128,-1,83
 432 199 432 199 377 226 c 128,-1,84
 322 253 322 253 270 285.5 c 128,-1,85
 218 318 218 318 177 360 c 128,-1,86
 136 402 136 402 111 457.5 c 128,-1,87
 86 513 86 513 86 586 c 0,0,1
268 651 m 0,88,89
 268 608 268 608 283 574 c 128,-1,90
 298 540 298 540 323.5 512 c 128,-1,91
 349 484 349 484 381.5 461.5 c 128,-1,92
 414 439 414 439 449 420 c 128,-1,93
 484 401 484 401 519 385 c 128,-1,94
 554 369 554 369 584 354 c 1,95,96
 579 351 579 351 589 356 c 128,-1,97
 599 361 599 361 617.5 373 c 128,-1,98
 636 385 636 385 659 403 c 128,-1,99
 682 421 682 421 702 444 c 128,-1,100
 722 467 722 467 736 495.5 c 128,-1,101
 750 524 750 524 750 557 c 0,102,103
 750 603 750 603 730 640.5 c 128,-1,104
 710 678 710 678 679 707.5 c 128,-1,105
 648 737 648 737 611 759.5 c 128,-1,106
 574 782 574 782 539 798.5 c 128,-1,107
 504 815 504 815 476.5 826.5 c 128,-1,108
 449 838 449 838 438 846 c 1,109,110
 436 845 436 845 423 840.5 c 128,-1,111
 410 836 410 836 391 827 c 128,-1,112
 372 818 372 818 350.5 803.5 c 128,-1,113
 329 789 329 789 310.5 767.5 c 128,-1,114
 292 746 292 746 280 717 c 128,-1,115
 268 688 268 688 268 651 c 0,88,89
EndSplineSet
EndChar

StartChar: dieresis
Encoding: 168 168 106
Width: 713
GlyphClass: 2
Flags: W
LayerCount: 2
Fore
SplineSet
0 1339 m 256,0,1
 0 1368 0 1368 11 1394 c 128,-1,2
 22 1420 22 1420 41 1439.5 c 128,-1,3
 60 1459 60 1459 86 1470 c 128,-1,4
 112 1481 112 1481 141 1481 c 256,5,6
 170 1481 170 1481 196 1470 c 128,-1,7
 222 1459 222 1459 241.5 1439.5 c 128,-1,8
 261 1420 261 1420 272 1394 c 128,-1,9
 283 1368 283 1368 283 1339 c 256,10,11
 283 1310 283 1310 272 1284.5 c 128,-1,12
 261 1259 261 1259 241.5 1239.5 c 128,-1,13
 222 1220 222 1220 196 1209 c 128,-1,14
 170 1198 170 1198 141 1198 c 256,15,16
 112 1198 112 1198 86 1209 c 128,-1,17
 60 1220 60 1220 41 1239.5 c 128,-1,18
 22 1259 22 1259 11 1284.5 c 128,-1,19
 0 1310 0 1310 0 1339 c 256,0,1
430 1339 m 256,20,21
 430 1368 430 1368 441 1394 c 128,-1,22
 452 1420 452 1420 471.5 1439.5 c 128,-1,23
 491 1459 491 1459 516.5 1470 c 128,-1,24
 542 1481 542 1481 571 1481 c 256,25,26
 600 1481 600 1481 626 1470 c 128,-1,27
 652 1459 652 1459 671.5 1439.5 c 128,-1,28
 691 1420 691 1420 702 1394 c 128,-1,29
 713 1368 713 1368 713 1339 c 256,30,31
 713 1310 713 1310 702 1284.5 c 128,-1,32
 691 1259 691 1259 671.5 1239.5 c 128,-1,33
 652 1220 652 1220 626 1209 c 128,-1,34
 600 1198 600 1198 571 1198 c 256,35,36
 542 1198 542 1198 516.5 1209 c 128,-1,37
 491 1220 491 1220 471.5 1239.5 c 128,-1,38
 452 1259 452 1259 441 1284.5 c 128,-1,39
 430 1310 430 1310 430 1339 c 256,20,21
EndSplineSet
EndChar

StartChar: copyright
Encoding: 169 169 107
Width: 1714
GlyphClass: 2
Flags: W
LayerCount: 2
Fore
SplineSet
66 717 m 0,0,1
 66 826 66 826 94.5 928 c 128,-1,2
 123 1030 123 1030 174 1118 c 128,-1,3
 225 1206 225 1206 297.5 1279 c 128,-1,4
 370 1352 370 1352 458 1404 c 128,-1,5
 546 1456 546 1456 647.5 1484.5 c 128,-1,6
 749 1513 749 1513 858 1513 c 0,7,8
 966 1513 966 1513 1067 1484.5 c 128,-1,9
 1168 1456 1168 1456 1256.5 1404.5 c 128,-1,10
 1345 1353 1345 1353 1417.5 1280 c 128,-1,11
 1490 1207 1490 1207 1542 1118.5 c 128,-1,12
 1594 1030 1594 1030 1622.5 928.5 c 128,-1,13
 1651 827 1651 827 1651 717 c 256,14,15
 1651 607 1651 607 1622.5 505 c 128,-1,16
 1594 403 1594 403 1542 314.5 c 128,-1,17
 1490 226 1490 226 1417.5 153 c 128,-1,18
 1345 80 1345 80 1256.5 28.5 c 128,-1,19
 1168 -23 1168 -23 1066 -51.5 c 128,-1,20
 964 -80 964 -80 854 -80 c 0,21,22
 746 -80 746 -80 645.5 -51.5 c 128,-1,23
 545 -23 545 -23 457.5 28.5 c 128,-1,24
 370 80 370 80 298 153 c 128,-1,25
 226 226 226 226 174.5 314.5 c 128,-1,26
 123 403 123 403 94.5 505 c 128,-1,27
 66 607 66 607 66 717 c 0,0,1
164 713 m 0,28,29
 164 618 164 618 188.5 529 c 128,-1,30
 213 440 213 440 258 363 c 128,-1,31
 303 286 303 286 366 222 c 128,-1,32
 429 158 429 158 506 112 c 128,-1,33
 583 66 583 66 671.5 41 c 128,-1,34
 760 16 760 16 856 16 c 256,35,36
 952 16 952 16 1041 41.5 c 128,-1,37
 1130 67 1130 67 1207.5 113 c 128,-1,38
 1285 159 1285 159 1348.5 223 c 128,-1,39
 1412 287 1412 287 1457 365 c 128,-1,40
 1502 443 1502 443 1527 532 c 128,-1,41
 1552 621 1552 621 1552 717 c 0,42,43
 1552 814 1552 814 1527 903.5 c 128,-1,44
 1502 993 1502 993 1457 1070.5 c 128,-1,45
 1412 1148 1412 1148 1348.5 1212 c 128,-1,46
 1285 1276 1285 1276 1208 1321.5 c 128,-1,47
 1131 1367 1131 1367 1042.5 1392 c 128,-1,48
 954 1417 954 1417 858 1417 c 0,49,50
 763 1417 763 1417 675 1392.5 c 128,-1,51
 587 1368 587 1368 510 1322.5 c 128,-1,52
 433 1277 433 1277 369 1213 c 128,-1,53
 305 1149 305 1149 259.5 1071 c 128,-1,54
 214 993 214 993 189 902.5 c 128,-1,55
 164 812 164 812 164 713 c 0,28,29
410 717 m 0,56,57
 410 816 410 816 444.5 903.5 c 128,-1,58
 479 991 479 991 544.5 1056.5 c 128,-1,59
 610 1122 610 1122 703.5 1160 c 128,-1,60
 797 1198 797 1198 915 1198 c 0,61,62
 984 1198 984 1198 1038 1189.5 c 128,-1,63
 1092 1181 1092 1181 1129 1170 c 0,64,65
 1172 1158 1172 1158 1204 1143 c 1,66,-1
 1204 895 l 1,67,-1
 1090 895 l 1,68,-1
 1061 1059 l 1,69,70
 1049 1069 1049 1069 1032 1077 c 0,71,72
 1018 1084 1018 1084 996 1090 c 128,-1,73
 974 1096 974 1096 944 1096 c 0,74,75
 863 1096 863 1096 805.5 1061 c 128,-1,76
 748 1026 748 1026 712 971 c 128,-1,77
 676 916 676 916 659.5 848 c 128,-1,78
 643 780 643 780 643 713 c 0,79,80
 643 632 643 632 663 563 c 128,-1,81
 683 494 683 494 721.5 443.5 c 128,-1,82
 760 393 760 393 814.5 364.5 c 128,-1,83
 869 336 869 336 938 336 c 0,84,85
 966 336 966 336 988 340.5 c 128,-1,86
 1010 345 1010 345 1027 350 c 0,87,88
 1045 356 1045 356 1061 365 c 1,89,-1
 1090 541 l 1,90,-1
 1204 541 l 1,91,-1
 1204 285 l 1,92,93
 1167 270 1167 270 1121 259 c 0,94,95
 1082 249 1082 249 1027.5 241 c 128,-1,96
 973 233 973 233 907 233 c 0,97,98
 799 233 799 233 707.5 265.5 c 128,-1,99
 616 298 616 298 550 360.5 c 128,-1,100
 484 423 484 423 447 513 c 128,-1,101
 410 603 410 603 410 717 c 0,56,57
EndSplineSet
EndChar

StartChar: ordfeminine
Encoding: 170 170 108
Width: 735
GlyphClass: 2
Flags: W
LayerCount: 2
Fore
SplineSet
43 928 m 0,0,1
 43 955 43 955 47.5 978.5 c 128,-1,2
 52 1002 52 1002 67 1022.5 c 128,-1,3
 82 1043 82 1043 109.5 1061.5 c 128,-1,4
 137 1080 137 1080 182 1097 c 128,-1,5
 227 1114 227 1114 293 1131.5 c 128,-1,6
 359 1149 359 1149 451 1167 c 1,7,-1
 451 1214 l 1,8,9
 452 1232 452 1232 447.5 1252 c 128,-1,10
 443 1272 443 1272 429.5 1289.5 c 128,-1,11
 416 1307 416 1307 391 1318 c 128,-1,12
 366 1329 366 1329 326 1329 c 0,13,14
 312 1329 312 1329 302 1328.5 c 128,-1,15
 292 1328 292 1328 284 1327 c 0,16,17
 275 1326 275 1326 268 1325 c 1,18,-1
 268 1208 l 1,19,-1
 131 1208 l 1,20,21
 114 1207 114 1207 101 1211 c 0,22,23
 90 1215 90 1215 81 1224 c 128,-1,24
 72 1233 72 1233 72 1253 c 0,25,26
 72 1287 72 1287 98.5 1314 c 128,-1,27
 125 1341 125 1341 167.5 1360 c 128,-1,28
 210 1379 210 1379 263 1389 c 128,-1,29
 316 1399 316 1399 369 1399 c 0,30,31
 426 1399 426 1399 473.5 1391 c 128,-1,32
 521 1383 521 1383 555 1360.5 c 128,-1,33
 589 1338 589 1338 608 1297 c 128,-1,34
 627 1256 627 1256 627 1190 c 2,35,-1
 627 874 l 2,36,37
 627 862 627 862 635 854 c 128,-1,38
 643 846 643 846 655 846 c 2,39,-1
 715 842 l 1,40,-1
 715 784 l 1,41,-1
 465 784 l 1,42,-1
 449 846 l 1,43,44
 416 825 416 825 377 808 c 0,45,46
 344 794 344 794 302 782 c 128,-1,47
 260 770 260 770 215 770 c 0,48,49
 180 770 180 770 148.5 781 c 128,-1,50
 117 792 117 792 93.5 812 c 128,-1,51
 70 832 70 832 56.5 861.5 c 128,-1,52
 43 891 43 891 43 928 c 0,0,1
98 616 m 1,53,-1
 98 688 l 1,54,-1
 711 688 l 1,55,-1
 711 616 l 1,56,-1
 98 616 l 1,53,-1
231 963 m 0,57,58
 231 924 231 924 257.5 898 c 128,-1,59
 284 872 284 872 326 872 c 0,60,61
 347 872 347 872 369 875.5 c 128,-1,62
 391 879 391 879 409 884 c 0,63,64
 430 889 430 889 449 897 c 1,65,-1
 449 1102 l 1,66,67
 384 1090 384 1090 342 1077 c 128,-1,68
 300 1064 300 1064 275 1047.5 c 128,-1,69
 250 1031 250 1031 240.5 1010.5 c 128,-1,70
 231 990 231 990 231 963 c 0,57,58
EndSplineSet
EndChar

StartChar: guillemotleft
Encoding: 171 171 109
Width: 920
GlyphClass: 2
Flags: W
LayerCount: 2
Fore
SplineSet
78 406 m 1,0,-1
 78 580 l 1,1,-1
 436 879 l 1,2,-1
 436 696 l 1,3,-1
 221 492 l 1,4,-1
 436 285 l 1,5,-1
 436 104 l 1,6,-1
 78 406 l 1,0,-1
477 406 m 1,7,-1
 477 580 l 1,8,-1
 838 879 l 1,9,-1
 838 696 l 1,10,-1
 621 492 l 1,11,-1
 838 287 l 1,12,-1
 838 104 l 1,13,-1
 477 406 l 1,7,-1
EndSplineSet
EndChar

StartChar: logicalnot
Encoding: 172 172 110
Width: 1270
GlyphClass: 2
Flags: W
LayerCount: 2
Fore
SplineSet
82 737 m 1,0,-1
 82 860 l 1,1,-1
 1188 860 l 1,2,-1
 1188 387 l 1,3,-1
 1065 387 l 1,4,-1
 1065 737 l 1,5,-1
 82 737 l 1,0,-1
EndSplineSet
EndChar

StartChar: uni00AD
Encoding: 173 173 111
Width: 672
GlyphClass: 2
Flags: W
LayerCount: 2
Fore
SplineSet
68 385 m 1,0,-1
 68 602 l 1,1,-1
 604 602 l 1,2,-1
 604 385 l 1,3,-1
 68 385 l 1,0,-1
EndSplineSet
EndChar

StartChar: registered
Encoding: 174 174 112
Width: 1714
GlyphClass: 2
Flags: W
LayerCount: 2
Fore
SplineSet
66 717 m 0,0,1
 66 826 66 826 94.5 928 c 128,-1,2
 123 1030 123 1030 174 1118 c 128,-1,3
 225 1206 225 1206 297.5 1279 c 128,-1,4
 370 1352 370 1352 458 1404 c 128,-1,5
 546 1456 546 1456 647.5 1484.5 c 128,-1,6
 749 1513 749 1513 858 1513 c 0,7,8
 966 1513 966 1513 1067 1484.5 c 128,-1,9
 1168 1456 1168 1456 1256.5 1404.5 c 128,-1,10
 1345 1353 1345 1353 1417.5 1280 c 128,-1,11
 1490 1207 1490 1207 1542 1118.5 c 128,-1,12
 1594 1030 1594 1030 1622.5 928.5 c 128,-1,13
 1651 827 1651 827 1651 717 c 256,14,15
 1651 607 1651 607 1622.5 505 c 128,-1,16
 1594 403 1594 403 1542 314.5 c 128,-1,17
 1490 226 1490 226 1417.5 153 c 128,-1,18
 1345 80 1345 80 1256.5 28.5 c 128,-1,19
 1168 -23 1168 -23 1066 -51.5 c 128,-1,20
 964 -80 964 -80 854 -80 c 0,21,22
 746 -80 746 -80 645.5 -51.5 c 128,-1,23
 545 -23 545 -23 457.5 28.5 c 128,-1,24
 370 80 370 80 298 153 c 128,-1,25
 226 226 226 226 174.5 314.5 c 128,-1,26
 123 403 123 403 94.5 505 c 128,-1,27
 66 607 66 607 66 717 c 0,0,1
164 713 m 0,28,29
 164 618 164 618 188.5 529 c 128,-1,30
 213 440 213 440 258 363 c 128,-1,31
 303 286 303 286 366 222 c 128,-1,32
 429 158 429 158 506 112 c 128,-1,33
 583 66 583 66 671.5 41 c 128,-1,34
 760 16 760 16 856 16 c 256,35,36
 952 16 952 16 1041 41.5 c 128,-1,37
 1130 67 1130 67 1207.5 113 c 128,-1,38
 1285 159 1285 159 1348.5 223 c 128,-1,39
 1412 287 1412 287 1457 365 c 128,-1,40
 1502 443 1502 443 1527 532 c 128,-1,41
 1552 621 1552 621 1552 717 c 0,42,43
 1552 814 1552 814 1527 903.5 c 128,-1,44
 1502 993 1502 993 1457 1070.5 c 128,-1,45
 1412 1148 1412 1148 1348.5 1212 c 128,-1,46
 1285 1276 1285 1276 1208 1321.5 c 128,-1,47
 1131 1367 1131 1367 1042.5 1392 c 128,-1,48
 954 1417 954 1417 858 1417 c 0,49,50
 763 1417 763 1417 675 1392.5 c 128,-1,51
 587 1368 587 1368 510 1322.5 c 128,-1,52
 433 1277 433 1277 369 1213 c 128,-1,53
 305 1149 305 1149 259.5 1071 c 128,-1,54
 214 993 214 993 189 902.5 c 128,-1,55
 164 812 164 812 164 713 c 0,28,29
424 291 m 1,56,-1
 424 358 l 1,57,-1
 496 365 l 1,58,59
 507 365 507 365 516.5 373 c 128,-1,60
 526 381 526 381 526 395 c 2,61,-1
 526 1083 l 2,62,63
 526 1096 526 1096 516.5 1103 c 128,-1,64
 507 1110 507 1110 496 1112 c 2,65,-1
 424 1120 l 1,66,-1
 424 1188 l 1,67,-1
 879 1188 l 2,68,69
 903 1188 903 1188 934.5 1184.5 c 128,-1,70
 966 1181 966 1181 999 1172 c 128,-1,71
 1032 1163 1032 1163 1063.5 1147.5 c 128,-1,72
 1095 1132 1095 1132 1119.5 1107 c 128,-1,73
 1144 1082 1144 1082 1159 1047 c 128,-1,74
 1174 1012 1174 1012 1174 965 c 0,75,76
 1174 897 1174 897 1147 853.5 c 128,-1,77
 1120 810 1120 810 1082 784 c 128,-1,78
 1044 758 1044 758 1003.5 746.5 c 128,-1,79
 963 735 963 735 936 731 c 1,80,81
 992 720 992 720 1027.5 696.5 c 128,-1,82
 1063 673 1063 673 1085 642.5 c 128,-1,83
 1107 612 1107 612 1119.5 577.5 c 128,-1,84
 1132 543 1132 543 1142 509 c 128,-1,85
 1152 475 1152 475 1163.5 445 c 128,-1,86
 1175 415 1175 415 1196 393.5 c 128,-1,87
 1217 372 1217 372 1250 362 c 128,-1,88
 1283 352 1283 352 1337 358 c 1,89,-1
 1337 291 l 1,90,91
 1291 285 1291 285 1263 284 c 128,-1,92
 1235 283 1235 283 1210 283 c 0,93,94
 1143 283 1143 283 1099 300 c 128,-1,95
 1055 317 1055 317 1025.5 345 c 128,-1,96
 996 373 996 373 978.5 409 c 128,-1,97
 961 445 961 445 947 482.5 c 128,-1,98
 933 520 933 520 919.5 556 c 128,-1,99
 906 592 906 592 885 620 c 128,-1,100
 864 648 864 648 832 665 c 128,-1,101
 800 682 800 682 750 682 c 0,102,103
 742 682 742 682 738 683 c 128,-1,104
 734 684 734 684 723 684 c 1,105,-1
 723 395 l 2,106,107
 723 381 723 381 732 373 c 128,-1,108
 741 365 741 365 754 365 c 1,109,-1
 829 358 l 1,110,-1
 829 291 l 1,111,-1
 424 291 l 1,56,-1
723 741 m 1,112,113
 740 739 740 739 751 739 c 2,114,-1
 768 739 l 2,115,116
 799 739 799 739 834 745.5 c 128,-1,117
 869 752 869 752 899 771.5 c 128,-1,118
 929 791 929 791 949 826 c 128,-1,119
 969 861 969 861 969 918 c 0,120,121
 969 1003 969 1003 917 1044 c 128,-1,122
 865 1085 865 1085 766 1085 c 2,123,-1
 723 1085 l 1,124,-1
 723 741 l 1,112,113
EndSplineSet
EndChar

StartChar: macron
Encoding: 175 175 113
Width: 696
GlyphClass: 2
Flags: W
LayerCount: 2
Fore
SplineSet
0 1200 m 1,0,-1
 0 1365 l 1,1,-1
 696 1365 l 1,2,-1
 696 1200 l 1,3,-1
 0 1200 l 1,0,-1
EndSplineSet
EndChar

StartChar: degree
Encoding: 176 176 114
Width: 655
GlyphClass: 2
Flags: W
LayerCount: 2
Fore
SplineSet
102 1249 m 256,0,1
 102 1296 102 1296 119.5 1337 c 128,-1,2
 137 1378 137 1378 168 1409 c 128,-1,3
 199 1440 199 1440 240 1457.5 c 128,-1,4
 281 1475 281 1475 328 1475 c 256,5,6
 375 1475 375 1475 416 1457.5 c 128,-1,7
 457 1440 457 1440 487.5 1409 c 128,-1,8
 518 1378 518 1378 535.5 1337 c 128,-1,9
 553 1296 553 1296 553 1249 c 256,10,11
 553 1202 553 1202 535.5 1161 c 128,-1,12
 518 1120 518 1120 487.5 1089.5 c 128,-1,13
 457 1059 457 1059 416 1041.5 c 128,-1,14
 375 1024 375 1024 328 1024 c 256,15,16
 281 1024 281 1024 240 1041.5 c 128,-1,17
 199 1059 199 1059 168 1089.5 c 128,-1,18
 137 1120 137 1120 119.5 1161 c 128,-1,19
 102 1202 102 1202 102 1249 c 256,0,1
184 1249 m 256,20,21
 184 1219 184 1219 195 1193 c 128,-1,22
 206 1167 206 1167 225.5 1147.5 c 128,-1,23
 245 1128 245 1128 271.5 1117 c 128,-1,24
 298 1106 298 1106 328 1106 c 256,25,26
 358 1106 358 1106 384 1117 c 128,-1,27
 410 1128 410 1128 429.5 1147.5 c 128,-1,28
 449 1167 449 1167 460 1193 c 128,-1,29
 471 1219 471 1219 471 1249 c 256,30,31
 471 1279 471 1279 460 1305 c 128,-1,32
 449 1331 449 1331 429.5 1350.5 c 128,-1,33
 410 1370 410 1370 384 1381.5 c 128,-1,34
 358 1393 358 1393 328 1393 c 256,35,36
 298 1393 298 1393 271.5 1381.5 c 128,-1,37
 245 1370 245 1370 225.5 1350.5 c 128,-1,38
 206 1331 206 1331 195 1305 c 128,-1,39
 184 1279 184 1279 184 1249 c 256,20,21
EndSplineSet
EndChar

StartChar: plusminus
Encoding: 177 177 115
Width: 2048
GlyphClass: 2
Flags: W
LayerCount: 2
Fore
SplineSet
410 0 m 1,0,-1
 410 127 l 1,1,-1
 1638 127 l 1,2,-1
 1638 0 l 1,3,-1
 410 0 l 1,0,-1
410 733 m 1,4,-1
 410 860 l 1,5,-1
 961 860 l 1,6,-1
 961 1229 l 1,7,-1
 1087 1229 l 1,8,-1
 1087 860 l 1,9,-1
 1638 860 l 1,10,-1
 1638 733 l 1,11,-1
 1087 733 l 1,12,-1
 1087 365 l 1,13,-1
 961 365 l 1,14,-1
 961 733 l 1,15,-1
 410 733 l 1,4,-1
EndSplineSet
EndChar

StartChar: uni00B2
Encoding: 178 178 116
Width: 780
GlyphClass: 2
Flags: W
LayerCount: 2
Fore
SplineSet
57 784 m 1,0,-1
 57 887 l 1,1,2
 84 907 84 907 127 936 c 128,-1,3
 170 965 170 965 219.5 1001.5 c 128,-1,4
 269 1038 269 1038 319 1080 c 128,-1,5
 369 1122 369 1122 409 1169.5 c 128,-1,6
 449 1217 449 1217 474.5 1268.5 c 128,-1,7
 500 1320 500 1320 500 1374 c 0,8,9
 500 1410 500 1410 488 1441.5 c 128,-1,10
 476 1473 476 1473 454.5 1496 c 128,-1,11
 433 1519 433 1519 403 1532.5 c 128,-1,12
 373 1546 373 1546 336 1546 c 0,13,14
 322 1546 322 1546 312.5 1544.5 c 128,-1,15
 303 1543 303 1543 294.5 1541 c 128,-1,16
 286 1539 286 1539 278 1536 c 128,-1,17
 270 1533 270 1533 258 1530 c 1,18,-1
 258 1364 l 1,19,20
 243 1357 243 1357 228 1352 c 0,21,22
 215 1347 215 1347 199 1344 c 128,-1,23
 183 1341 183 1341 168 1341 c 0,24,25
 118 1341 118 1341 93 1365.5 c 128,-1,26
 68 1390 68 1390 68 1432 c 0,27,28
 68 1470 68 1470 84 1499.5 c 128,-1,29
 100 1529 100 1529 126.5 1551 c 128,-1,30
 153 1573 153 1573 187 1587.5 c 128,-1,31
 221 1602 221 1602 257 1611 c 128,-1,32
 293 1620 293 1620 328.5 1624 c 128,-1,33
 364 1628 364 1628 393 1628 c 0,34,35
 456 1628 456 1628 511 1610.5 c 128,-1,36
 566 1593 566 1593 606.5 1561.5 c 128,-1,37
 647 1530 647 1530 670.5 1484.5 c 128,-1,38
 694 1439 694 1439 694 1384 c 0,39,40
 694 1318 694 1318 659 1259.5 c 128,-1,41
 624 1201 624 1201 562.5 1145 c 128,-1,42
 501 1089 501 1089 416.5 1033.5 c 128,-1,43
 332 978 332 978 233 918 c 1,44,-1
 612 918 l 1,45,-1
 637 1024 l 1,46,-1
 723 1024 l 1,47,-1
 723 784 l 1,48,-1
 57 784 l 1,0,-1
EndSplineSet
EndChar

StartChar: uni00B3
Encoding: 179 179 117
Width: 780
GlyphClass: 2
Flags: W
LayerCount: 2
Fore
SplineSet
57 928 m 0,0,1
 57 953 57 953 66.5 969.5 c 128,-1,2
 76 986 76 986 91 995.5 c 128,-1,3
 106 1005 106 1005 123.5 1008.5 c 128,-1,4
 141 1012 141 1012 156 1012 c 0,5,6
 173 1012 173 1012 187.5 1008 c 128,-1,7
 202 1004 202 1004 213 999 c 1,8,-1
 256 860 l 1,9,10
 278 855 278 855 302 847.5 c 128,-1,11
 326 840 326 840 352 840 c 0,12,13
 386 840 386 840 418 853.5 c 128,-1,14
 450 867 450 867 474.5 891 c 128,-1,15
 499 915 499 915 513.5 946.5 c 128,-1,16
 528 978 528 978 528 1014 c 0,17,18
 528 1043 528 1043 516 1070 c 128,-1,19
 504 1097 504 1097 481 1117.5 c 128,-1,20
 458 1138 458 1138 423 1150.5 c 128,-1,21
 388 1163 388 1163 342 1163 c 0,22,23
 326 1163 326 1163 310 1162 c 128,-1,24
 294 1161 294 1161 280 1160 c 0,25,26
 264 1158 264 1158 248 1157 c 1,27,-1
 248 1247 l 1,28,-1
 285 1247 l 2,29,30
 322 1247 322 1247 359.5 1254 c 128,-1,31
 397 1261 397 1261 427.5 1278.5 c 128,-1,32
 458 1296 458 1296 477 1325 c 128,-1,33
 496 1354 496 1354 496 1399 c 0,34,35
 496 1428 496 1428 483 1454.5 c 128,-1,36
 470 1481 470 1481 447.5 1501.5 c 128,-1,37
 425 1522 425 1522 394 1534 c 128,-1,38
 363 1546 363 1546 326 1546 c 0,39,40
 316 1546 316 1546 304.5 1543.5 c 128,-1,41
 293 1541 293 1541 282 1539 c 1,42,43
 270 1535 270 1535 256 1532 c 1,44,-1
 256 1380 l 1,45,46
 237 1369 237 1369 218 1366.5 c 128,-1,47
 199 1364 199 1364 182 1364 c 0,48,49
 161 1364 161 1364 142.5 1369 c 128,-1,50
 124 1374 124 1374 110 1384.5 c 128,-1,51
 96 1395 96 1395 88 1411.5 c 128,-1,52
 80 1428 80 1428 80 1450 c 0,53,54
 80 1489 80 1489 104.5 1521.5 c 128,-1,55
 129 1554 129 1554 171 1578 c 128,-1,56
 213 1602 213 1602 269 1615 c 128,-1,57
 325 1628 325 1628 387 1628 c 0,58,59
 441 1628 441 1628 495.5 1615 c 128,-1,60
 550 1602 550 1602 593 1575 c 128,-1,61
 636 1548 636 1548 663 1507 c 128,-1,62
 690 1466 690 1466 690 1411 c 0,63,64
 690 1373 690 1373 676.5 1344 c 128,-1,65
 663 1315 663 1315 642 1294 c 128,-1,66
 621 1273 621 1273 595 1259 c 128,-1,67
 569 1245 569 1245 544.5 1236.5 c 128,-1,68
 520 1228 520 1228 499 1224 c 0,69,70
 481 1220 481 1220 470 1219 c 1,71,72
 480 1219 480 1219 500 1217 c 0,73,74
 523 1215 523 1215 551.5 1207.5 c 128,-1,75
 580 1200 580 1200 610 1186.5 c 128,-1,76
 640 1173 640 1173 665.5 1151 c 128,-1,77
 691 1129 691 1129 707 1096.5 c 128,-1,78
 723 1064 723 1064 723 1020 c 0,79,80
 723 960 723 960 691 912.5 c 128,-1,81
 659 865 659 865 606 832 c 128,-1,82
 553 799 553 799 484 781.5 c 128,-1,83
 415 764 415 764 340 764 c 0,84,85
 275 764 275 764 222.5 778 c 128,-1,86
 170 792 170 792 133 815 c 128,-1,87
 96 838 96 838 76.5 867.5 c 128,-1,88
 57 897 57 897 57 928 c 0,0,1
EndSplineSet
EndChar

StartChar: acute
Encoding: 180 180 118
Width: 768
GlyphClass: 2
Flags: W
LayerCount: 2
Fore
SplineSet
240 1128 m 1,0,-1
 520 1438 l 2,1,2
 538 1457 538 1457 552.5 1469.5 c 128,-1,3
 567 1482 567 1482 581.5 1489.5 c 128,-1,4
 596 1497 596 1497 612 1500 c 128,-1,5
 628 1503 628 1503 649 1503 c 0,6,7
 682 1503 682 1503 704.5 1493 c 128,-1,8
 727 1483 727 1483 741.5 1467.5 c 128,-1,9
 756 1452 756 1452 762 1432.5 c 128,-1,10
 768 1413 768 1413 768 1395 c 0,11,12
 768 1385 768 1385 763.5 1372.5 c 128,-1,13
 759 1360 759 1360 752 1348 c 128,-1,14
 745 1336 745 1336 735 1325.5 c 128,-1,15
 725 1315 725 1315 715 1309 c 2,16,-1
 383 1128 l 1,17,-1
 240 1128 l 1,0,-1
EndSplineSet
EndChar

StartChar: uni00B5
Encoding: 181 181 119
Width: 1192
GlyphClass: 2
Flags: W
LayerCount: 2
Fore
SplineSet
119 -332 m 0,0,1
 119 -300 119 -300 124 -280 c 128,-1,2
 129 -260 129 -260 136 -241 c 128,-1,3
 143 -222 143 -222 151.5 -197.5 c 128,-1,4
 160 -173 160 -173 167 -132 c 128,-1,5
 174 -91 174 -91 179 -27 c 128,-1,6
 184 37 184 37 184 135 c 2,7,-1
 184 999 l 1,8,-1
 442 999 l 1,9,-1
 442 334 l 2,10,11
 442 287 442 287 447.5 256.5 c 128,-1,12
 453 226 453 226 459 211 c 0,13,14
 466 195 466 195 476 179.5 c 128,-1,15
 486 164 486 164 499 152 c 128,-1,16
 512 140 512 140 526 132.5 c 128,-1,17
 540 125 540 125 555 125 c 0,18,19
 583 125 583 125 606 133.5 c 128,-1,20
 629 142 629 142 650.5 159 c 128,-1,21
 672 176 672 176 695 200 c 128,-1,22
 718 224 718 224 745 256 c 1,23,-1
 745 999 l 1,24,-1
 1008 999 l 1,25,-1
 1008 221 l 2,26,27
 1008 205 1008 205 1010.5 186 c 128,-1,28
 1013 167 1013 167 1018.5 151 c 128,-1,29
 1024 135 1024 135 1032.5 124 c 128,-1,30
 1041 113 1041 113 1053 113 c 0,31,32
 1068 113 1068 113 1080 118.5 c 128,-1,33
 1092 124 1092 124 1102 138.5 c 128,-1,34
 1112 153 1112 153 1120.5 178 c 128,-1,35
 1129 203 1129 203 1137 242 c 1,36,-1
 1202 242 l 1,37,38
 1193 107 1193 107 1133.5 41 c 128,-1,39
 1074 -25 1074 -25 952 -25 c 0,40,41
 925 -25 925 -25 897.5 -13.5 c 128,-1,42
 870 -2 870 -2 845 19 c 128,-1,43
 820 40 820 40 799 70.5 c 128,-1,44
 778 101 778 101 764 139 c 1,45,46
 733 93 733 93 702.5 61.5 c 128,-1,47
 672 30 672 30 638.5 11 c 128,-1,48
 605 -8 605 -8 567 -16.5 c 128,-1,49
 529 -25 529 -25 483 -25 c 0,50,51
 468 -25 468 -25 446 -16 c 128,-1,52
 424 -7 424 -7 401 5.5 c 128,-1,53
 378 18 378 18 357.5 31.5 c 128,-1,54
 337 45 337 45 326 55 c 1,55,-1
 326 10 l 2,56,57
 326 -46 326 -46 336.5 -96.5 c 128,-1,58
 347 -147 347 -147 359.5 -190.5 c 128,-1,59
 372 -234 372 -234 382.5 -269 c 128,-1,60
 393 -304 393 -304 393 -328 c 0,61,62
 393 -355 393 -355 379 -378.5 c 128,-1,63
 365 -402 365 -402 344 -419 c 128,-1,64
 323 -436 323 -436 298 -445.5 c 128,-1,65
 273 -455 273 -455 252 -455 c 0,66,67
 233 -455 233 -455 210 -446 c 128,-1,68
 187 -437 187 -437 166.5 -420.5 c 128,-1,69
 146 -404 146 -404 132.5 -381.5 c 128,-1,70
 119 -359 119 -359 119 -332 c 0,0,1
EndSplineSet
EndChar

StartChar: paragraph
Encoding: 182 182 120
Width: 1065
GlyphClass: 2
Flags: W
LayerCount: 2
Fore
SplineSet
55 961 m 0,0,1
 55 1078 55 1078 90 1157 c 128,-1,2
 125 1236 125 1236 190.5 1284 c 128,-1,3
 256 1332 256 1332 349 1353 c 128,-1,4
 442 1374 442 1374 559 1374 c 2,5,-1
 1010 1374 l 1,6,-1
 1010 1257 l 1,7,-1
 883 1239 l 1,8,-1
 883 -162 l 1,9,-1
 733 -162 l 1,10,-1
 733 1245 l 1,11,-1
 606 1245 l 1,12,-1
 606 551 l 1,13,14
 485 551 485 551 383.5 569 c 128,-1,15
 282 587 282 587 209 633 c 128,-1,16
 136 679 136 679 95.5 758.5 c 128,-1,17
 55 838 55 838 55 961 c 0,0,1
EndSplineSet
EndChar

StartChar: periodcentered
Encoding: 183 183 121
Width: 385
GlyphClass: 2
Flags: W
LayerCount: 2
Fore
SplineSet
72 696 m 256,0,1
 72 721 72 721 81.5 743.5 c 128,-1,2
 91 766 91 766 107 782 c 128,-1,3
 123 798 123 798 145 807.5 c 128,-1,4
 167 817 167 817 193 817 c 0,5,6
 218 817 218 817 240 807.5 c 128,-1,7
 262 798 262 798 278 782 c 128,-1,8
 294 766 294 766 303.5 743.5 c 128,-1,9
 313 721 313 721 313 696 c 256,10,11
 313 671 313 671 303.5 649 c 128,-1,12
 294 627 294 627 278 610.5 c 128,-1,13
 262 594 262 594 240 584.5 c 128,-1,14
 218 575 218 575 193 575 c 0,15,16
 167 575 167 575 145 584.5 c 128,-1,17
 123 594 123 594 107 610.5 c 128,-1,18
 91 627 91 627 81.5 649 c 128,-1,19
 72 671 72 671 72 696 c 256,0,1
EndSplineSet
EndChar

StartChar: cedilla
Encoding: 184 184 122
Width: 504
GlyphClass: 2
Flags: W
LayerCount: 2
Fore
SplineSet
86 -348 m 1,0,1
 109 -353 109 -353 132 -357 c 0,2,3
 152 -360 152 -360 174 -362.5 c 128,-1,4
 196 -365 196 -365 215 -365 c 0,5,6
 235 -365 235 -365 256.5 -362 c 128,-1,7
 278 -359 278 -359 295.5 -351.5 c 128,-1,8
 313 -344 313 -344 324.5 -330 c 128,-1,9
 336 -316 336 -316 336 -295 c 0,10,11
 336 -277 336 -277 328.5 -263.5 c 128,-1,12
 321 -250 321 -250 308.5 -241.5 c 128,-1,13
 296 -233 296 -233 280 -229 c 128,-1,14
 264 -225 264 -225 246 -225 c 0,15,16
 240 -225 240 -225 232.5 -225.5 c 128,-1,17
 225 -226 225 -226 218 -227 c 0,18,19
 210 -228 210 -228 201 -229 c 1,20,-1
 201 2 l 1,21,-1
 303 2 l 1,22,-1
 303 -111 l 1,23,24
 306 -112 306 -112 310 -112 c 0,25,26
 315 -113 315 -113 332 -113 c 0,27,28
 367 -113 367 -113 398.5 -122 c 128,-1,29
 430 -131 430 -131 453.5 -150 c 128,-1,30
 477 -169 477 -169 490.5 -198.5 c 128,-1,31
 504 -228 504 -228 504 -268 c 0,32,33
 504 -318 504 -318 485 -356 c 128,-1,34
 466 -394 466 -394 432.5 -420 c 128,-1,35
 399 -446 399 -446 352.5 -459.5 c 128,-1,36
 306 -473 306 -473 252 -473 c 0,37,38
 220 -473 220 -473 190 -470 c 128,-1,39
 160 -467 160 -467 137 -462 c 1,40,41
 110 -458 110 -458 86 -451 c 1,42,-1
 86 -348 l 1,0,1
EndSplineSet
EndChar

StartChar: uni00B9
Encoding: 185 185 123
Width: 780
GlyphClass: 2
Flags: W
LayerCount: 2
Fore
SplineSet
98 1466 m 1,0,-1
 98 1532 l 1,1,-1
 385 1628 l 1,2,-1
 483 1628 l 1,3,-1
 483 879 l 2,4,5
 483 868 483 868 492 860 c 128,-1,6
 501 852 501 852 512 852 c 2,7,-1
 618 848 l 1,8,-1
 618 784 l 1,9,-1
 154 784 l 1,10,-1
 154 848 l 1,11,-1
 268 852 l 2,12,13
 281 852 281 852 289 860 c 128,-1,14
 297 868 297 868 297 879 c 2,15,-1
 297 1493 l 1,16,-1
 98 1466 l 1,0,-1
EndSplineSet
EndChar

StartChar: ordmasculine
Encoding: 186 186 124
Width: 778
GlyphClass: 2
Flags: W
LayerCount: 2
Fore
SplineSet
43 1081 m 0,0,1
 43 1156 43 1156 69 1215.5 c 128,-1,2
 95 1275 95 1275 141.5 1315.5 c 128,-1,3
 188 1356 188 1356 252.5 1377.5 c 128,-1,4
 317 1399 317 1399 395 1399 c 0,5,6
 477 1399 477 1399 540.5 1375.5 c 128,-1,7
 604 1352 604 1352 647 1310 c 128,-1,8
 690 1268 690 1268 712.5 1209 c 128,-1,9
 735 1150 735 1150 735 1079 c 0,10,11
 735 1011 735 1011 711.5 954 c 128,-1,12
 688 897 688 897 643 856 c 128,-1,13
 598 815 598 815 533 792.5 c 128,-1,14
 468 770 468 770 385 770 c 0,15,16
 309 770 309 770 246 791.5 c 128,-1,17
 183 813 183 813 138 853 c 128,-1,18
 93 893 93 893 68 950.5 c 128,-1,19
 43 1008 43 1008 43 1081 c 0,0,1
84 612 m 1,20,-1
 84 684 l 1,21,-1
 696 684 l 1,22,-1
 696 612 l 1,23,-1
 84 612 l 1,20,-1
242 1085 m 0,24,25
 242 1046 242 1046 247.5 1002.5 c 128,-1,26
 253 959 253 959 269.5 922.5 c 128,-1,27
 286 886 286 886 315 862 c 128,-1,28
 344 838 344 838 391 838 c 0,29,30
 436 838 436 838 465 861 c 128,-1,31
 494 884 494 884 510.5 919 c 128,-1,32
 527 954 527 954 533 997 c 128,-1,33
 539 1040 539 1040 539 1081 c 0,34,35
 539 1120 539 1120 532.5 1164 c 128,-1,36
 526 1208 526 1208 509.5 1244.5 c 128,-1,37
 493 1281 493 1281 463.5 1305 c 128,-1,38
 434 1329 434 1329 389 1329 c 256,39,40
 344 1329 344 1329 315 1306 c 128,-1,41
 286 1283 286 1283 270 1247 c 128,-1,42
 254 1211 254 1211 248 1168 c 128,-1,43
 242 1125 242 1125 242 1085 c 0,24,25
EndSplineSet
EndChar

StartChar: guillemotright
Encoding: 187 187 125
Width: 920
GlyphClass: 2
Flags: W
LayerCount: 2
Fore
SplineSet
82 104 m 1,0,-1
 82 287 l 1,1,-1
 299 492 l 1,2,-1
 82 696 l 1,3,-1
 82 879 l 1,4,-1
 442 578 l 1,5,-1
 442 403 l 1,6,-1
 82 104 l 1,0,-1
483 104 m 1,7,-1
 483 287 l 1,8,-1
 698 492 l 1,9,-1
 483 698 l 1,10,-1
 483 879 l 1,11,-1
 842 578 l 1,12,-1
 842 403 l 1,13,-1
 483 104 l 1,7,-1
EndSplineSet
EndChar

StartChar: onequarter
Encoding: 188 188 126
Width: 1858
GlyphClass: 2
Flags: W
LayerCount: 2
Fore
SplineSet
88 1284 m 1,0,-1
 88 1348 l 1,1,-1
 377 1440 l 1,2,-1
 475 1440 l 1,3,-1
 475 698 l 2,4,5
 475 686 475 686 483 679 c 128,-1,6
 491 672 491 672 504 672 c 2,7,-1
 608 668 l 1,8,-1
 608 604 l 1,9,-1
 143 604 l 1,10,-1
 143 668 l 1,11,-1
 258 672 l 2,12,13
 270 672 270 672 278.5 679 c 128,-1,14
 287 686 287 686 287 698 c 2,15,-1
 287 1309 l 1,16,-1
 88 1284 l 1,0,-1
418 0 m 1,17,-1
 1323 1423 l 1,18,-1
 1473 1423 l 1,19,-1
 567 0 l 1,20,-1
 418 0 l 1,17,-1
1038 219 m 1,21,-1
 1038 324 l 1,22,-1
 1477 831 l 1,23,-1
 1620 831 l 1,24,-1
 1620 319 l 1,25,-1
 1769 319 l 1,26,-1
 1769 219 l 1,27,-1
 1620 219 l 1,28,-1
 1620 -37 l 1,29,-1
 1450 -37 l 1,30,-1
 1450 219 l 1,31,-1
 1038 219 l 1,21,-1
1167 319 m 1,32,-1
 1450 319 l 1,33,-1
 1450 653 l 1,34,-1
 1167 319 l 1,32,-1
EndSplineSet
EndChar

StartChar: onehalf
Encoding: 189 189 127
Width: 1858
GlyphClass: 2
Flags: W
LayerCount: 2
Fore
SplineSet
94 1284 m 1,0,-1
 94 1348 l 1,1,-1
 383 1440 l 1,2,-1
 479 1440 l 1,3,-1
 479 698 l 2,4,5
 479 686 479 686 488.5 679 c 128,-1,6
 498 672 498 672 510 672 c 2,7,-1
 614 668 l 1,8,-1
 614 604 l 1,9,-1
 150 604 l 1,10,-1
 150 668 l 1,11,-1
 264 672 l 2,12,13
 277 672 277 672 285 679 c 128,-1,14
 293 686 293 686 293 698 c 2,15,-1
 293 1309 l 1,16,-1
 94 1284 l 1,0,-1
373 0 m 1,17,-1
 1278 1423 l 1,18,-1
 1427 1423 l 1,19,-1
 522 0 l 1,20,-1
 373 0 l 1,17,-1
1114 0 m 1,21,-1
 1114 102 l 1,22,23
 1141 122 1141 122 1183 151.5 c 128,-1,24
 1225 181 1225 181 1272 217 c 128,-1,25
 1319 253 1319 253 1367 295.5 c 128,-1,26
 1415 338 1415 338 1453.5 385.5 c 128,-1,27
 1492 433 1492 433 1516 484.5 c 128,-1,28
 1540 536 1540 536 1540 590 c 0,29,30
 1540 626 1540 626 1529.5 656.5 c 128,-1,31
 1519 687 1519 687 1499 709.5 c 128,-1,32
 1479 732 1479 732 1449.5 745 c 128,-1,33
 1420 758 1420 758 1382 758 c 0,34,35
 1368 758 1368 758 1360 757 c 128,-1,36
 1352 756 1352 756 1345 754.5 c 128,-1,37
 1338 753 1338 753 1331 750.5 c 128,-1,38
 1324 748 1324 748 1313 745 c 1,39,-1
 1313 580 l 1,40,41
 1299 573 1299 573 1284 568 c 0,42,43
 1271 563 1271 563 1255 560 c 128,-1,44
 1239 557 1239 557 1223 557 c 0,45,46
 1173 557 1173 557 1147.5 582 c 128,-1,47
 1122 607 1122 607 1122 647 c 0,48,49
 1122 686 1122 686 1137.5 715.5 c 128,-1,50
 1153 745 1153 745 1179 766.5 c 128,-1,51
 1205 788 1205 788 1238 802 c 128,-1,52
 1271 816 1271 816 1307 824.5 c 128,-1,53
 1343 833 1343 833 1378 836.5 c 128,-1,54
 1413 840 1413 840 1442 840 c 0,55,56
 1505 840 1505 840 1559.5 823.5 c 128,-1,57
 1614 807 1614 807 1653.5 776.5 c 128,-1,58
 1693 746 1693 746 1716 701.5 c 128,-1,59
 1739 657 1739 657 1739 602 c 0,60,61
 1739 536 1739 536 1705.5 476.5 c 128,-1,62
 1672 417 1672 417 1612.5 360.5 c 128,-1,63
 1553 304 1553 304 1470 247.5 c 128,-1,64
 1387 191 1387 191 1288 131 c 1,65,-1
 1655 131 l 1,66,-1
 1677 242 l 1,67,-1
 1765 242 l 1,68,-1
 1765 0 l 1,69,-1
 1114 0 l 1,21,-1
EndSplineSet
EndChar

StartChar: threequarters
Encoding: 190 190 128
Width: 1858
GlyphClass: 2
Flags: W
LayerCount: 2
Fore
SplineSet
74 750 m 0,0,1
 74 776 74 776 83 792.5 c 128,-1,2
 92 809 92 809 106.5 819 c 128,-1,3
 121 829 121 829 138 832.5 c 128,-1,4
 155 836 155 836 170 836 c 0,5,6
 189 836 189 836 202.5 832 c 128,-1,7
 216 828 216 828 227 823 c 1,8,-1
 270 684 l 1,9,10
 292 678 292 678 312.5 673 c 128,-1,11
 333 668 333 668 360 668 c 0,12,13
 395 668 395 668 425.5 680.5 c 128,-1,14
 456 693 456 693 479 715 c 128,-1,15
 502 737 502 737 515 767.5 c 128,-1,16
 528 798 528 798 528 834 c 0,17,18
 528 863 528 863 517 890 c 128,-1,19
 506 917 506 917 484 937.5 c 128,-1,20
 462 958 462 958 428 970.5 c 128,-1,21
 394 983 394 983 348 983 c 0,22,23
 332 983 332 983 317 982 c 128,-1,24
 302 981 302 981 290 980 c 0,25,26
 276 978 276 978 262 977 c 1,27,-1
 262 1069 l 1,28,29
 273 1067 273 1067 281.5 1068 c 128,-1,30
 290 1069 290 1069 299 1069 c 0,31,32
 336 1069 336 1069 371 1076.5 c 128,-1,33
 406 1084 406 1084 434 1101.5 c 128,-1,34
 462 1119 462 1119 479 1148 c 128,-1,35
 496 1177 496 1177 496 1221 c 0,36,37
 496 1250 496 1250 484 1275.5 c 128,-1,38
 472 1301 472 1301 450.5 1320.5 c 128,-1,39
 429 1340 429 1340 399 1351 c 128,-1,40
 369 1362 369 1362 332 1362 c 0,41,42
 322 1362 322 1362 311.5 1360.5 c 128,-1,43
 301 1359 301 1359 292 1357 c 0,44,45
 281 1354 281 1354 270 1352 c 1,46,-1
 270 1200 l 1,47,48
 252 1189 252 1189 234 1186.5 c 128,-1,49
 216 1184 216 1184 199 1184 c 0,50,51
 157 1184 157 1184 125.5 1205.5 c 128,-1,52
 94 1227 94 1227 94 1272 c 0,53,54
 94 1310 94 1310 117 1342 c 128,-1,55
 140 1374 140 1374 180.5 1396.5 c 128,-1,56
 221 1419 221 1419 275.5 1431.5 c 128,-1,57
 330 1444 330 1444 393 1444 c 0,58,59
 448 1444 448 1444 501 1432 c 128,-1,60
 554 1420 554 1420 596 1394.5 c 128,-1,61
 638 1369 638 1369 664 1329.5 c 128,-1,62
 690 1290 690 1290 690 1235 c 0,63,64
 690 1196 690 1196 676 1166.5 c 128,-1,65
 662 1137 662 1137 639.5 1115.5 c 128,-1,66
 617 1094 617 1094 590.5 1079.5 c 128,-1,67
 564 1065 564 1065 538.5 1056 c 128,-1,68
 513 1047 513 1047 492 1043 c 0,69,70
 474 1039 474 1039 465 1038 c 1,71,72
 474 1038 474 1038 494 1036 c 1,73,74
 517 1035 517 1035 546 1028.5 c 128,-1,75
 575 1022 575 1022 606 1009 c 128,-1,76
 637 996 637 996 663 974 c 128,-1,77
 689 952 689 952 706 919.5 c 128,-1,78
 723 887 723 887 723 842 c 0,79,80
 723 782 723 782 692 735.5 c 128,-1,81
 661 689 661 689 609.5 657 c 128,-1,82
 558 625 558 625 490 608.5 c 128,-1,83
 422 592 422 592 348 592 c 0,84,85
 283 592 283 592 232 605.5 c 128,-1,86
 181 619 181 619 146 641 c 128,-1,87
 111 663 111 663 92.5 691.5 c 128,-1,88
 74 720 74 720 74 750 c 0,0,1
434 0 m 1,89,-1
 1339 1423 l 1,90,-1
 1489 1423 l 1,91,-1
 584 0 l 1,92,-1
 434 0 l 1,89,-1
1057 219 m 1,93,-1
 1057 324 l 1,94,-1
 1493 831 l 1,95,-1
 1636 831 l 1,96,-1
 1636 319 l 1,97,-1
 1786 319 l 1,98,-1
 1786 219 l 1,99,-1
 1636 219 l 1,100,-1
 1636 -37 l 1,101,-1
 1466 -37 l 1,102,-1
 1466 219 l 1,103,-1
 1057 219 l 1,93,-1
1184 319 m 1,104,-1
 1466 319 l 1,105,-1
 1466 653 l 1,106,-1
 1184 319 l 1,104,-1
EndSplineSet
EndChar

StartChar: questiondown
Encoding: 191 191 129
Width: 1069
GlyphClass: 2
Flags: W
LayerCount: 2
Fore
SplineSet
131 -18 m 0,0,1
 131 47 131 47 150 100.5 c 128,-1,2
 169 154 169 154 200.5 197 c 128,-1,3
 232 240 232 240 271.5 273 c 128,-1,4
 311 306 311 306 353 331 c 0,5,6
 451 389 451 389 575 420 c 1,7,-1
 575 594 l 1,8,-1
 715 594 l 1,9,-1
 715 322 l 1,10,11
 631 300 631 300 566 255 c 0,12,13
 538 236 538 236 511.5 210 c 128,-1,14
 485 184 485 184 464 149.5 c 128,-1,15
 443 115 443 115 430.5 72 c 128,-1,16
 418 29 418 29 418 -23 c 0,17,18
 418 -80 418 -80 434.5 -127.5 c 128,-1,19
 451 -175 451 -175 484.5 -209.5 c 128,-1,20
 518 -244 518 -244 568 -263.5 c 128,-1,21
 618 -283 618 -283 686 -283 c 1,22,-1
 778 -37 l 2,23,24
 779 -36 779 -36 783 -35 c 0,25,26
 786 -34 786 -34 790.5 -33.5 c 128,-1,27
 795 -33 795 -33 803 -33 c 0,28,29
 823 -33 823 -33 853 -35.5 c 128,-1,30
 883 -38 883 -38 911 -51 c 128,-1,31
 939 -64 939 -64 959 -90 c 128,-1,32
 979 -116 979 -116 979 -164 c 0,33,34
 979 -231 979 -231 942.5 -277.5 c 128,-1,35
 906 -324 906 -324 849.5 -353 c 128,-1,36
 793 -382 793 -382 725.5 -395 c 128,-1,37
 658 -408 658 -408 596 -408 c 0,38,39
 497 -408 497 -408 412 -380.5 c 128,-1,40
 327 -353 327 -353 264.5 -302 c 128,-1,41
 202 -251 202 -251 166.5 -179 c 128,-1,42
 131 -107 131 -107 131 -18 c 0,0,1
477 866 m 0,43,44
 477 900 477 900 490.5 929 c 128,-1,45
 504 958 504 958 527 979 c 128,-1,46
 550 1000 550 1000 580.5 1012 c 128,-1,47
 611 1024 611 1024 645 1024 c 0,48,49
 678 1024 678 1024 706.5 1010.5 c 128,-1,50
 735 997 735 997 756 974 c 128,-1,51
 777 951 777 951 789 921 c 128,-1,52
 801 891 801 891 801 858 c 0,53,54
 801 824 801 824 788.5 794.5 c 128,-1,55
 776 765 776 765 755 742.5 c 128,-1,56
 734 720 734 720 705 707 c 128,-1,57
 676 694 676 694 643 694 c 0,58,59
 606 694 606 694 575.5 708 c 128,-1,60
 545 722 545 722 523 745.5 c 128,-1,61
 501 769 501 769 489 800 c 128,-1,62
 477 831 477 831 477 866 c 0,43,44
EndSplineSet
EndChar

StartChar: Agrave
Encoding: 192 192 130
Width: 1405
GlyphClass: 2
Flags: W
LayerCount: 2
Fore
SplineSet
10 0 m 1,0,-1
 10 104 l 1,1,-1
 125 121 l 1,2,-1
 584 1407 l 1,3,-1
 817 1407 l 1,4,-1
 1272 158 l 1,5,6
 1280 139 1280 139 1287.5 131.5 c 128,-1,7
 1295 124 1295 124 1317 119 c 2,8,-1
 1395 104 l 1,9,-1
 1395 0 l 1,10,-1
 829 0 l 1,11,-1
 829 104 l 1,12,-1
 950 119 l 2,13,14
 960 121 960 121 967 132 c 128,-1,15
 974 143 974 143 969 154 c 1,16,-1
 858 479 l 1,17,-1
 420 479 l 1,18,-1
 307 162 l 2,19,20
 301 146 301 146 313 133 c 128,-1,21
 325 120 325 120 336 119 c 2,22,-1
 451 104 l 1,23,-1
 451 0 l 1,24,-1
 10 0 l 1,0,-1
370 1795 m 0,25,26
 370 1813 370 1813 376 1832.5 c 128,-1,27
 382 1852 382 1852 395.5 1867.5 c 128,-1,28
 409 1883 409 1883 431.5 1893 c 128,-1,29
 454 1903 454 1903 487 1903 c 0,30,31
 508 1903 508 1903 524 1900 c 128,-1,32
 540 1897 540 1897 554.5 1889.5 c 128,-1,33
 569 1882 569 1882 583.5 1869.5 c 128,-1,34
 598 1857 598 1857 616 1838 c 2,35,-1
 896 1528 l 1,36,-1
 753 1528 l 1,37,-1
 421 1709 l 2,38,39
 410 1715 410 1715 401 1725.5 c 128,-1,40
 392 1736 392 1736 385 1748 c 128,-1,41
 378 1760 378 1760 374 1772.5 c 128,-1,42
 370 1785 370 1785 370 1795 c 0,25,26
459 600 m 1,43,-1
 807 600 l 1,44,-1
 631 1092 l 1,45,-1
 459 600 l 1,43,-1
EndSplineSet
EndChar

StartChar: Aacute
Encoding: 193 193 131
Width: 1405
GlyphClass: 2
Flags: W
LayerCount: 2
Fore
SplineSet
10 0 m 1,0,-1
 10 104 l 1,1,-1
 125 121 l 1,2,-1
 584 1407 l 1,3,-1
 817 1407 l 1,4,-1
 1272 158 l 1,5,6
 1280 139 1280 139 1287.5 131.5 c 128,-1,7
 1295 124 1295 124 1317 119 c 2,8,-1
 1395 104 l 1,9,-1
 1395 0 l 1,10,-1
 829 0 l 1,11,-1
 829 104 l 1,12,-1
 950 119 l 2,13,14
 960 121 960 121 967 132 c 128,-1,15
 974 143 974 143 969 154 c 1,16,-1
 858 479 l 1,17,-1
 420 479 l 1,18,-1
 307 162 l 2,19,20
 301 146 301 146 313 133 c 128,-1,21
 325 120 325 120 336 119 c 2,22,-1
 451 104 l 1,23,-1
 451 0 l 1,24,-1
 10 0 l 1,0,-1
459 600 m 1,25,-1
 807 600 l 1,26,-1
 631 1092 l 1,27,-1
 459 600 l 1,25,-1
497 1528 m 1,28,-1
 777 1838 l 2,29,30
 795 1857 795 1857 809.5 1869.5 c 128,-1,31
 824 1882 824 1882 838.5 1889.5 c 128,-1,32
 853 1897 853 1897 869 1900 c 128,-1,33
 885 1903 885 1903 906 1903 c 0,34,35
 939 1903 939 1903 961.5 1893 c 128,-1,36
 984 1883 984 1883 998.5 1867.5 c 128,-1,37
 1013 1852 1013 1852 1019 1832.5 c 128,-1,38
 1025 1813 1025 1813 1025 1795 c 0,39,40
 1025 1785 1025 1785 1020.5 1772.5 c 128,-1,41
 1016 1760 1016 1760 1009 1748 c 128,-1,42
 1002 1736 1002 1736 992 1725.5 c 128,-1,43
 982 1715 982 1715 972 1709 c 2,44,-1
 640 1528 l 1,45,-1
 497 1528 l 1,28,-1
EndSplineSet
EndChar

StartChar: Acircumflex
Encoding: 194 194 132
Width: 1405
GlyphClass: 2
Flags: W
LayerCount: 2
Fore
SplineSet
10 0 m 1,0,-1
 10 104 l 1,1,-1
 125 121 l 1,2,-1
 584 1407 l 1,3,-1
 817 1407 l 1,4,-1
 1272 158 l 1,5,6
 1280 139 1280 139 1287.5 131.5 c 128,-1,7
 1295 124 1295 124 1317 119 c 2,8,-1
 1395 104 l 1,9,-1
 1395 0 l 1,10,-1
 829 0 l 1,11,-1
 829 104 l 1,12,-1
 950 119 l 2,13,14
 960 121 960 121 967 132 c 128,-1,15
 974 143 974 143 969 154 c 1,16,-1
 858 479 l 1,17,-1
 420 479 l 1,18,-1
 307 162 l 2,19,20
 301 146 301 146 313 133 c 128,-1,21
 325 120 325 120 336 119 c 2,22,-1
 451 104 l 1,23,-1
 451 0 l 1,24,-1
 10 0 l 1,0,-1
347 1528 m 1,25,-1
 574 1879 l 1,26,-1
 816 1879 l 1,27,-1
 1043 1528 l 1,28,-1
 873 1528 l 1,29,-1
 695 1723 l 1,30,-1
 517 1528 l 1,31,-1
 347 1528 l 1,25,-1
459 600 m 1,32,-1
 807 600 l 1,33,-1
 631 1092 l 1,34,-1
 459 600 l 1,32,-1
EndSplineSet
EndChar

StartChar: Atilde
Encoding: 195 195 133
Width: 1405
GlyphClass: 2
Flags: W
LayerCount: 2
Fore
SplineSet
10 0 m 1,0,-1
 10 104 l 1,1,-1
 125 121 l 1,2,-1
 584 1407 l 1,3,-1
 817 1407 l 1,4,-1
 1272 158 l 1,5,6
 1280 139 1280 139 1287.5 131.5 c 128,-1,7
 1295 124 1295 124 1317 119 c 2,8,-1
 1395 104 l 1,9,-1
 1395 0 l 1,10,-1
 829 0 l 1,11,-1
 829 104 l 1,12,-1
 950 119 l 2,13,14
 960 121 960 121 967 132 c 128,-1,15
 974 143 974 143 969 154 c 1,16,-1
 858 479 l 1,17,-1
 420 479 l 1,18,-1
 307 162 l 2,19,20
 301 146 301 146 313 133 c 128,-1,21
 325 120 325 120 336 119 c 2,22,-1
 451 104 l 1,23,-1
 451 0 l 1,24,-1
 10 0 l 1,0,-1
336 1598 m 1,25,26
 349 1651 349 1651 370 1697 c 128,-1,27
 391 1743 391 1743 421 1777.5 c 128,-1,28
 451 1812 451 1812 491 1832 c 128,-1,29
 531 1852 531 1852 582 1852 c 0,30,31
 622 1852 622 1852 653 1837 c 128,-1,32
 684 1822 684 1822 713.5 1804 c 128,-1,33
 743 1786 743 1786 776 1771 c 128,-1,34
 809 1756 809 1756 854 1756 c 0,35,36
 870 1756 870 1756 885.5 1763.5 c 128,-1,37
 901 1771 901 1771 913 1784 c 128,-1,38
 925 1797 925 1797 933.5 1814.5 c 128,-1,39
 942 1832 942 1832 944 1852 c 1,40,-1
 1055 1852 l 1,41,42
 1042 1799 1042 1799 1021 1753 c 128,-1,43
 1000 1707 1000 1707 970 1672.5 c 128,-1,44
 940 1638 940 1638 899.5 1618 c 128,-1,45
 859 1598 859 1598 807 1598 c 0,46,47
 767 1598 767 1598 737 1613.5 c 128,-1,48
 707 1629 707 1629 677.5 1647 c 128,-1,49
 648 1665 648 1665 615 1680.5 c 128,-1,50
 582 1696 582 1696 537 1696 c 0,51,52
 503 1696 503 1696 477.5 1668 c 128,-1,53
 452 1640 452 1640 447 1598 c 1,54,-1
 336 1598 l 1,25,26
459 600 m 1,55,-1
 807 600 l 1,56,-1
 631 1092 l 1,57,-1
 459 600 l 1,55,-1
EndSplineSet
EndChar

StartChar: Adieresis
Encoding: 196 196 134
Width: 1405
GlyphClass: 2
Flags: W
LayerCount: 2
Fore
SplineSet
10 0 m 1,0,-1
 10 104 l 1,1,-1
 125 121 l 1,2,-1
 584 1407 l 1,3,-1
 817 1407 l 1,4,-1
 1272 158 l 1,5,6
 1280 139 1280 139 1287.5 131.5 c 128,-1,7
 1295 124 1295 124 1317 119 c 2,8,-1
 1395 104 l 1,9,-1
 1395 0 l 1,10,-1
 829 0 l 1,11,-1
 829 104 l 1,12,-1
 950 119 l 2,13,14
 960 121 960 121 967 132 c 128,-1,15
 974 143 974 143 969 154 c 1,16,-1
 858 479 l 1,17,-1
 420 479 l 1,18,-1
 307 162 l 2,19,20
 301 146 301 146 313 133 c 128,-1,21
 325 120 325 120 336 119 c 2,22,-1
 451 104 l 1,23,-1
 451 0 l 1,24,-1
 10 0 l 1,0,-1
339 1739 m 256,25,26
 339 1768 339 1768 350 1794 c 128,-1,27
 361 1820 361 1820 380 1839.5 c 128,-1,28
 399 1859 399 1859 425 1870 c 128,-1,29
 451 1881 451 1881 480 1881 c 256,30,31
 509 1881 509 1881 535 1870 c 128,-1,32
 561 1859 561 1859 580.5 1839.5 c 128,-1,33
 600 1820 600 1820 611 1794 c 128,-1,34
 622 1768 622 1768 622 1739 c 256,35,36
 622 1710 622 1710 611 1684.5 c 128,-1,37
 600 1659 600 1659 580.5 1639.5 c 128,-1,38
 561 1620 561 1620 535 1609 c 128,-1,39
 509 1598 509 1598 480 1598 c 256,40,41
 451 1598 451 1598 425 1609 c 128,-1,42
 399 1620 399 1620 380 1639.5 c 128,-1,43
 361 1659 361 1659 350 1684.5 c 128,-1,44
 339 1710 339 1710 339 1739 c 256,25,26
459 600 m 1,45,-1
 807 600 l 1,46,-1
 631 1092 l 1,47,-1
 459 600 l 1,45,-1
769 1739 m 256,48,49
 769 1768 769 1768 780 1794 c 128,-1,50
 791 1820 791 1820 810.5 1839.5 c 128,-1,51
 830 1859 830 1859 855.5 1870 c 128,-1,52
 881 1881 881 1881 910 1881 c 256,53,54
 939 1881 939 1881 965 1870 c 128,-1,55
 991 1859 991 1859 1010.5 1839.5 c 128,-1,56
 1030 1820 1030 1820 1041 1794 c 128,-1,57
 1052 1768 1052 1768 1052 1739 c 256,58,59
 1052 1710 1052 1710 1041 1684.5 c 128,-1,60
 1030 1659 1030 1659 1010.5 1639.5 c 128,-1,61
 991 1620 991 1620 965 1609 c 128,-1,62
 939 1598 939 1598 910 1598 c 256,63,64
 881 1598 881 1598 855.5 1609 c 128,-1,65
 830 1620 830 1620 810.5 1639.5 c 128,-1,66
 791 1659 791 1659 780 1684.5 c 128,-1,67
 769 1710 769 1710 769 1739 c 256,48,49
EndSplineSet
EndChar

StartChar: Aring
Encoding: 197 197 135
Width: 1405
GlyphClass: 2
Flags: W
LayerCount: 2
Fore
SplineSet
10 0 m 1,0,-1
 10 104 l 1,1,-1
 125 121 l 1,2,-1
 584 1407 l 1,3,-1
 817 1407 l 1,4,-1
 1272 158 l 1,5,6
 1280 139 1280 139 1287.5 131.5 c 128,-1,7
 1295 124 1295 124 1317 119 c 2,8,-1
 1395 104 l 1,9,-1
 1395 0 l 1,10,-1
 829 0 l 1,11,-1
 829 104 l 1,12,-1
 950 119 l 2,13,14
 960 121 960 121 967 132 c 128,-1,15
 974 143 974 143 969 154 c 1,16,-1
 858 479 l 1,17,-1
 420 479 l 1,18,-1
 307 162 l 2,19,20
 301 146 301 146 313 133 c 128,-1,21
 325 120 325 120 336 119 c 2,22,-1
 451 104 l 1,23,-1
 451 0 l 1,24,-1
 10 0 l 1,0,-1
436 1786 m 256,25,26
 436 1840 436 1840 456.5 1887 c 128,-1,27
 477 1934 477 1934 512 1969.5 c 128,-1,28
 547 2005 547 2005 594 2025 c 128,-1,29
 641 2045 641 2045 694 2045 c 0,30,31
 748 2045 748 2045 795 2025 c 128,-1,32
 842 2005 842 2005 877.5 1969.5 c 128,-1,33
 913 1934 913 1934 933.5 1887 c 128,-1,34
 954 1840 954 1840 954 1786 c 256,35,36
 954 1732 954 1732 933.5 1685 c 128,-1,37
 913 1638 913 1638 877.5 1603 c 128,-1,38
 842 1568 842 1568 795 1548 c 128,-1,39
 748 1528 748 1528 694 1528 c 0,40,41
 641 1528 641 1528 594 1548 c 128,-1,42
 547 1568 547 1568 512 1603 c 128,-1,43
 477 1638 477 1638 456.5 1685 c 128,-1,44
 436 1732 436 1732 436 1786 c 256,25,26
459 600 m 1,45,-1
 807 600 l 1,46,-1
 631 1092 l 1,47,-1
 459 600 l 1,45,-1
565 1786 m 256,48,49
 565 1759 565 1759 575.5 1735.5 c 128,-1,50
 586 1712 586 1712 603.5 1694.5 c 128,-1,51
 621 1677 621 1677 644.5 1667 c 128,-1,52
 668 1657 668 1657 694 1657 c 0,53,54
 721 1657 721 1657 744.5 1667 c 128,-1,55
 768 1677 768 1677 785.5 1694.5 c 128,-1,56
 803 1712 803 1712 813 1735.5 c 128,-1,57
 823 1759 823 1759 823 1786 c 256,58,59
 823 1813 823 1813 813 1836.5 c 128,-1,60
 803 1860 803 1860 785.5 1878 c 128,-1,61
 768 1896 768 1896 744.5 1906 c 128,-1,62
 721 1916 721 1916 694 1916 c 0,63,64
 668 1916 668 1916 644.5 1906 c 128,-1,65
 621 1896 621 1896 603.5 1878 c 128,-1,66
 586 1860 586 1860 575.5 1836.5 c 128,-1,67
 565 1813 565 1813 565 1786 c 256,48,49
EndSplineSet
EndChar

StartChar: AE
Encoding: 198 198 136
Width: 1985
GlyphClass: 2
Flags: W
LayerCount: 2
Fore
SplineSet
10 0 m 1,0,-1
 10 104 l 1,1,-1
 135 119 l 1,2,-1
 786 1217 l 2,3,4
 791 1224 791 1224 789.5 1231.5 c 128,-1,5
 788 1239 788 1239 783.5 1245 c 128,-1,6
 779 1251 779 1251 772 1255 c 128,-1,7
 765 1259 765 1259 758 1260 c 2,8,-1
 657 1270 l 1,9,-1
 657 1374 l 1,10,-1
 1858 1374 l 1,11,-1
 1858 1047 l 1,12,-1
 1710 1047 l 1,13,-1
 1681 1217 l 2,14,15
 1678 1232 1678 1232 1670 1243.5 c 128,-1,16
 1662 1255 1662 1255 1647 1255 c 2,17,-1
 1274 1255 l 1,18,-1
 1274 774 l 1,19,-1
 1501 774 l 2,20,21
 1515 774 1515 774 1525.5 787 c 128,-1,22
 1536 800 1536 800 1538 811 c 2,23,-1
 1556 950 l 1,24,-1
 1683 950 l 1,25,-1
 1683 469 l 1,26,-1
 1556 469 l 1,27,-1
 1538 610 l 2,28,29
 1536 621 1536 621 1525 633 c 128,-1,30
 1514 645 1514 645 1501 645 c 2,31,-1
 1274 645 l 1,32,-1
 1274 123 l 1,33,-1
 1706 123 l 2,34,35
 1718 123 1718 123 1728.5 137 c 128,-1,36
 1739 151 1739 151 1741 162 c 2,37,-1
 1774 375 l 1,38,-1
 1923 375 l 1,39,-1
 1923 0 l 1,40,-1
 821 0 l 1,41,-1
 821 104 l 1,42,-1
 928 113 l 2,43,44
 949 115 949 115 965 129.5 c 128,-1,45
 981 144 981 144 981 158 c 2,46,-1
 981 500 l 1,47,-1
 528 500 l 1,48,-1
 326 158 l 2,49,50
 316 141 316 141 321 129 c 128,-1,51
 326 117 326 117 340 115 c 2,52,-1
 457 104 l 1,53,-1
 457 0 l 1,54,-1
 10 0 l 1,0,-1
604 627 m 1,55,-1
 981 627 l 1,56,-1
 981 1257 l 1,57,-1
 604 627 l 1,55,-1
EndSplineSet
EndChar

StartChar: Ccedilla
Encoding: 199 199 137
Width: 1303
GlyphClass: 2
Flags: W
LayerCount: 2
Fore
SplineSet
76 688 m 0,0,1
 76 848 76 848 131.5 980 c 128,-1,2
 187 1112 187 1112 284 1207 c 128,-1,3
 381 1302 381 1302 513 1354.5 c 128,-1,4
 645 1407 645 1407 797 1407 c 0,5,6
 855 1407 855 1407 903 1402 c 128,-1,7
 951 1397 951 1397 999.5 1386.5 c 128,-1,8
 1048 1376 1048 1376 1102.5 1360 c 128,-1,9
 1157 1344 1157 1344 1229 1321 c 1,10,-1
 1229 973 l 1,11,-1
 1069 973 l 1,12,-1
 1024 1202 l 2,13,14
 1024 1207 1024 1207 1016 1218.5 c 128,-1,15
 1008 1230 1008 1230 997 1235 c 0,16,17
 989 1239 989 1239 972.5 1244.5 c 128,-1,18
 956 1250 956 1250 935.5 1255 c 128,-1,19
 915 1260 915 1260 893 1264 c 128,-1,20
 871 1268 871 1268 852 1268 c 0,21,22
 747 1268 747 1268 662.5 1226.5 c 128,-1,23
 578 1185 578 1185 519 1108.5 c 128,-1,24
 460 1032 460 1032 428.5 924.5 c 128,-1,25
 397 817 397 817 397 684 c 0,26,27
 397 612 397 612 408 541 c 128,-1,28
 419 470 419 470 442.5 405 c 128,-1,29
 466 340 466 340 503.5 284.5 c 128,-1,30
 541 229 541 229 593 188 c 128,-1,31
 645 147 645 147 713.5 123.5 c 128,-1,32
 782 100 782 100 868 100 c 0,33,34
 906 100 906 100 938 109.5 c 128,-1,35
 970 119 970 119 987 127 c 0,36,37
 995 130 995 130 1007 143.5 c 128,-1,38
 1019 157 1019 157 1022 166 c 1,39,-1
 1067 408 l 1,40,-1
 1229 408 l 1,41,-1
 1229 49 l 1,42,43
 1210 41 1210 41 1169.5 27.5 c 128,-1,44
 1129 14 1129 14 1072 0.5 c 128,-1,45
 1015 -13 1015 -13 944.5 -23 c 128,-1,46
 874 -33 874 -33 795 -33 c 1,47,-1
 795 -111 l 1,48,49
 798 -112 798 -112 802 -112 c 0,50,51
 807 -113 807 -113 824 -113 c 0,52,53
 859 -113 859 -113 890.5 -122 c 128,-1,54
 922 -131 922 -131 945.5 -150 c 128,-1,55
 969 -169 969 -169 982.5 -198.5 c 128,-1,56
 996 -228 996 -228 996 -268 c 0,57,58
 996 -318 996 -318 977 -356 c 128,-1,59
 958 -394 958 -394 924.5 -420 c 128,-1,60
 891 -446 891 -446 844.5 -459.5 c 128,-1,61
 798 -473 798 -473 744 -473 c 0,62,63
 712 -473 712 -473 682 -470 c 128,-1,64
 652 -467 652 -467 629 -462 c 1,65,66
 602 -458 602 -458 578 -451 c 1,67,-1
 578 -348 l 1,68,69
 601 -353 601 -353 624 -357 c 0,70,71
 644 -360 644 -360 666 -362.5 c 128,-1,72
 688 -365 688 -365 707 -365 c 0,73,74
 727 -365 727 -365 748.5 -362 c 128,-1,75
 770 -359 770 -359 787.5 -351.5 c 128,-1,76
 805 -344 805 -344 816.5 -330 c 128,-1,77
 828 -316 828 -316 828 -295 c 0,78,79
 828 -277 828 -277 820.5 -263.5 c 128,-1,80
 813 -250 813 -250 800.5 -241.5 c 128,-1,81
 788 -233 788 -233 772 -229 c 128,-1,82
 756 -225 756 -225 738 -225 c 0,83,84
 732 -225 732 -225 724.5 -225.5 c 128,-1,85
 717 -226 717 -226 710 -227 c 0,86,87
 702 -228 702 -228 693 -229 c 1,88,-1
 693 -27 l 1,89,90
 643 -21 643 -21 596 -9 c 0,91,92
 502 15 502 15 422 60 c 128,-1,93
 342 105 342 105 278 169 c 128,-1,94
 214 233 214 233 169 313.5 c 128,-1,95
 124 394 124 394 100 488.5 c 128,-1,96
 76 583 76 583 76 688 c 0,0,1
EndSplineSet
EndChar

StartChar: Egrave
Encoding: 200 200 138
Width: 1225
GlyphClass: 2
Flags: W
LayerCount: 2
Fore
SplineSet
53 0 m 1,0,-1
 53 104 l 1,1,-1
 166 115 l 2,2,3
 184 117 184 117 198.5 128.5 c 128,-1,4
 213 140 213 140 213 160 c 2,5,-1
 213 1214 l 2,6,7
 213 1234 213 1234 198.5 1246 c 128,-1,8
 184 1258 184 1258 166 1260 c 2,9,-1
 53 1270 l 1,10,-1
 53 1374 l 1,11,-1
 1098 1374 l 1,12,-1
 1098 1047 l 1,13,-1
 950 1047 l 1,14,-1
 918 1217 l 1,15,16
 914 1232 914 1232 904.5 1243.5 c 128,-1,17
 895 1255 895 1255 881 1255 c 2,18,-1
 500 1255 l 1,19,-1
 500 774 l 1,20,-1
 743 774 l 2,21,22
 757 774 757 774 766.5 787 c 128,-1,23
 776 800 776 800 778 811 c 2,24,-1
 797 950 l 1,25,-1
 924 950 l 1,26,-1
 924 469 l 1,27,-1
 797 469 l 1,28,-1
 778 608 l 2,29,30
 776 619 776 619 766.5 632 c 128,-1,31
 757 645 757 645 743 645 c 2,32,-1
 500 645 l 1,33,-1
 500 123 l 1,34,-1
 946 123 l 2,35,36
 959 123 959 123 970 137 c 128,-1,37
 981 151 981 151 983 162 c 2,38,-1
 1014 375 l 1,39,-1
 1163 375 l 1,40,-1
 1163 0 l 1,41,-1
 53 0 l 1,0,-1
283 1795 m 0,42,43
 283 1813 283 1813 289 1832.5 c 128,-1,44
 295 1852 295 1852 308.5 1867.5 c 128,-1,45
 322 1883 322 1883 344.5 1893 c 128,-1,46
 367 1903 367 1903 400 1903 c 0,47,48
 421 1903 421 1903 437 1900 c 128,-1,49
 453 1897 453 1897 467.5 1889.5 c 128,-1,50
 482 1882 482 1882 496.5 1869.5 c 128,-1,51
 511 1857 511 1857 529 1838 c 2,52,-1
 809 1528 l 1,53,-1
 666 1528 l 1,54,-1
 334 1709 l 2,55,56
 323 1715 323 1715 314 1725.5 c 128,-1,57
 305 1736 305 1736 298 1748 c 128,-1,58
 291 1760 291 1760 287 1772.5 c 128,-1,59
 283 1785 283 1785 283 1795 c 0,42,43
EndSplineSet
EndChar

StartChar: Eacute
Encoding: 201 201 139
Width: 1225
GlyphClass: 2
Flags: W
LayerCount: 2
Fore
SplineSet
53 0 m 1,0,-1
 53 104 l 1,1,-1
 166 115 l 2,2,3
 184 117 184 117 198.5 128.5 c 128,-1,4
 213 140 213 140 213 160 c 2,5,-1
 213 1214 l 2,6,7
 213 1234 213 1234 198.5 1246 c 128,-1,8
 184 1258 184 1258 166 1260 c 2,9,-1
 53 1270 l 1,10,-1
 53 1374 l 1,11,-1
 1098 1374 l 1,12,-1
 1098 1047 l 1,13,-1
 950 1047 l 1,14,-1
 918 1217 l 1,15,16
 914 1232 914 1232 904.5 1243.5 c 128,-1,17
 895 1255 895 1255 881 1255 c 2,18,-1
 500 1255 l 1,19,-1
 500 774 l 1,20,-1
 743 774 l 2,21,22
 757 774 757 774 766.5 787 c 128,-1,23
 776 800 776 800 778 811 c 2,24,-1
 797 950 l 1,25,-1
 924 950 l 1,26,-1
 924 469 l 1,27,-1
 797 469 l 1,28,-1
 778 608 l 2,29,30
 776 619 776 619 766.5 632 c 128,-1,31
 757 645 757 645 743 645 c 2,32,-1
 500 645 l 1,33,-1
 500 123 l 1,34,-1
 946 123 l 2,35,36
 959 123 959 123 970 137 c 128,-1,37
 981 151 981 151 983 162 c 2,38,-1
 1014 375 l 1,39,-1
 1163 375 l 1,40,-1
 1163 0 l 1,41,-1
 53 0 l 1,0,-1
410 1528 m 1,42,-1
 690 1838 l 2,43,44
 708 1857 708 1857 722.5 1869.5 c 128,-1,45
 737 1882 737 1882 751.5 1889.5 c 128,-1,46
 766 1897 766 1897 782 1900 c 128,-1,47
 798 1903 798 1903 819 1903 c 0,48,49
 852 1903 852 1903 874.5 1893 c 128,-1,50
 897 1883 897 1883 911.5 1867.5 c 128,-1,51
 926 1852 926 1852 932 1832.5 c 128,-1,52
 938 1813 938 1813 938 1795 c 0,53,54
 938 1785 938 1785 933.5 1772.5 c 128,-1,55
 929 1760 929 1760 922 1748 c 128,-1,56
 915 1736 915 1736 905 1725.5 c 128,-1,57
 895 1715 895 1715 885 1709 c 2,58,-1
 553 1528 l 1,59,-1
 410 1528 l 1,42,-1
EndSplineSet
EndChar

StartChar: Ecircumflex
Encoding: 202 202 140
Width: 1225
GlyphClass: 2
Flags: W
LayerCount: 2
Fore
SplineSet
53 0 m 1,0,-1
 53 104 l 1,1,-1
 166 115 l 2,2,3
 184 117 184 117 198.5 128.5 c 128,-1,4
 213 140 213 140 213 160 c 2,5,-1
 213 1214 l 2,6,7
 213 1234 213 1234 198.5 1246 c 128,-1,8
 184 1258 184 1258 166 1260 c 2,9,-1
 53 1270 l 1,10,-1
 53 1374 l 1,11,-1
 1098 1374 l 1,12,-1
 1098 1047 l 1,13,-1
 950 1047 l 1,14,-1
 918 1217 l 1,15,16
 914 1232 914 1232 904.5 1243.5 c 128,-1,17
 895 1255 895 1255 881 1255 c 2,18,-1
 500 1255 l 1,19,-1
 500 774 l 1,20,-1
 743 774 l 2,21,22
 757 774 757 774 766.5 787 c 128,-1,23
 776 800 776 800 778 811 c 2,24,-1
 797 950 l 1,25,-1
 924 950 l 1,26,-1
 924 469 l 1,27,-1
 797 469 l 1,28,-1
 778 608 l 2,29,30
 776 619 776 619 766.5 632 c 128,-1,31
 757 645 757 645 743 645 c 2,32,-1
 500 645 l 1,33,-1
 500 123 l 1,34,-1
 946 123 l 2,35,36
 959 123 959 123 970 137 c 128,-1,37
 981 151 981 151 983 162 c 2,38,-1
 1014 375 l 1,39,-1
 1163 375 l 1,40,-1
 1163 0 l 1,41,-1
 53 0 l 1,0,-1
260 1528 m 1,42,-1
 487 1879 l 1,43,-1
 729 1879 l 1,44,-1
 956 1528 l 1,45,-1
 786 1528 l 1,46,-1
 608 1723 l 1,47,-1
 430 1528 l 1,48,-1
 260 1528 l 1,42,-1
EndSplineSet
EndChar

StartChar: Edieresis
Encoding: 203 203 141
Width: 1225
GlyphClass: 2
Flags: W
LayerCount: 2
Fore
SplineSet
53 0 m 1,0,-1
 53 104 l 1,1,-1
 166 115 l 2,2,3
 184 117 184 117 198.5 128.5 c 128,-1,4
 213 140 213 140 213 160 c 2,5,-1
 213 1214 l 2,6,7
 213 1234 213 1234 198.5 1246 c 128,-1,8
 184 1258 184 1258 166 1260 c 2,9,-1
 53 1270 l 1,10,-1
 53 1374 l 1,11,-1
 1098 1374 l 1,12,-1
 1098 1047 l 1,13,-1
 950 1047 l 1,14,-1
 918 1217 l 1,15,16
 914 1232 914 1232 904.5 1243.5 c 128,-1,17
 895 1255 895 1255 881 1255 c 2,18,-1
 500 1255 l 1,19,-1
 500 774 l 1,20,-1
 743 774 l 2,21,22
 757 774 757 774 766.5 787 c 128,-1,23
 776 800 776 800 778 811 c 2,24,-1
 797 950 l 1,25,-1
 924 950 l 1,26,-1
 924 469 l 1,27,-1
 797 469 l 1,28,-1
 778 608 l 2,29,30
 776 619 776 619 766.5 632 c 128,-1,31
 757 645 757 645 743 645 c 2,32,-1
 500 645 l 1,33,-1
 500 123 l 1,34,-1
 946 123 l 2,35,36
 959 123 959 123 970 137 c 128,-1,37
 981 151 981 151 983 162 c 2,38,-1
 1014 375 l 1,39,-1
 1163 375 l 1,40,-1
 1163 0 l 1,41,-1
 53 0 l 1,0,-1
252 1739 m 256,42,43
 252 1768 252 1768 263 1794 c 128,-1,44
 274 1820 274 1820 293 1839.5 c 128,-1,45
 312 1859 312 1859 338 1870 c 128,-1,46
 364 1881 364 1881 393 1881 c 256,47,48
 422 1881 422 1881 448 1870 c 128,-1,49
 474 1859 474 1859 493.5 1839.5 c 128,-1,50
 513 1820 513 1820 524 1794 c 128,-1,51
 535 1768 535 1768 535 1739 c 256,52,53
 535 1710 535 1710 524 1684.5 c 128,-1,54
 513 1659 513 1659 493.5 1639.5 c 128,-1,55
 474 1620 474 1620 448 1609 c 128,-1,56
 422 1598 422 1598 393 1598 c 256,57,58
 364 1598 364 1598 338 1609 c 128,-1,59
 312 1620 312 1620 293 1639.5 c 128,-1,60
 274 1659 274 1659 263 1684.5 c 128,-1,61
 252 1710 252 1710 252 1739 c 256,42,43
682 1739 m 256,62,63
 682 1768 682 1768 693 1794 c 128,-1,64
 704 1820 704 1820 723.5 1839.5 c 128,-1,65
 743 1859 743 1859 768.5 1870 c 128,-1,66
 794 1881 794 1881 823 1881 c 256,67,68
 852 1881 852 1881 878 1870 c 128,-1,69
 904 1859 904 1859 923.5 1839.5 c 128,-1,70
 943 1820 943 1820 954 1794 c 128,-1,71
 965 1768 965 1768 965 1739 c 256,72,73
 965 1710 965 1710 954 1684.5 c 128,-1,74
 943 1659 943 1659 923.5 1639.5 c 128,-1,75
 904 1620 904 1620 878 1609 c 128,-1,76
 852 1598 852 1598 823 1598 c 256,77,78
 794 1598 794 1598 768.5 1609 c 128,-1,79
 743 1620 743 1620 723.5 1639.5 c 128,-1,80
 704 1659 704 1659 693 1684.5 c 128,-1,81
 682 1710 682 1710 682 1739 c 256,62,63
EndSplineSet
EndChar

StartChar: Igrave
Encoding: 204 204 142
Width: 735
GlyphClass: 2
Flags: W
LayerCount: 2
Fore
SplineSet
41 1795 m 0,0,1
 41 1813 41 1813 47 1832.5 c 128,-1,2
 53 1852 53 1852 66.5 1867.5 c 128,-1,3
 80 1883 80 1883 102.5 1893 c 128,-1,4
 125 1903 125 1903 158 1903 c 0,5,6
 179 1903 179 1903 195 1900 c 128,-1,7
 211 1897 211 1897 225.5 1889.5 c 128,-1,8
 240 1882 240 1882 254.5 1869.5 c 128,-1,9
 269 1857 269 1857 287 1838 c 2,10,-1
 567 1528 l 1,11,-1
 424 1528 l 1,12,-1
 92 1709 l 2,13,14
 81 1715 81 1715 72 1725.5 c 128,-1,15
 63 1736 63 1736 56 1748 c 128,-1,16
 49 1760 49 1760 45 1772.5 c 128,-1,17
 41 1785 41 1785 41 1795 c 0,0,1
47 0 m 1,18,-1
 47 104 l 1,19,-1
 174 115 l 2,20,21
 193 117 193 117 206 128.5 c 128,-1,22
 219 140 219 140 219 160 c 2,23,-1
 219 1214 l 2,24,25
 219 1234 219 1234 206 1246 c 128,-1,26
 193 1258 193 1258 174 1260 c 2,27,-1
 47 1270 l 1,28,-1
 47 1374 l 1,29,-1
 686 1374 l 1,30,-1
 686 1270 l 1,31,-1
 559 1260 l 2,32,33
 542 1258 542 1258 527 1246 c 128,-1,34
 512 1234 512 1234 512 1214 c 2,35,-1
 512 160 l 2,36,37
 512 140 512 140 527 128.5 c 128,-1,38
 542 117 542 117 559 115 c 2,39,-1
 686 104 l 1,40,-1
 686 0 l 1,41,-1
 47 0 l 1,18,-1
EndSplineSet
EndChar

StartChar: Iacute
Encoding: 205 205 143
Width: 735
GlyphClass: 2
Flags: W
LayerCount: 2
Fore
SplineSet
47 0 m 1,0,-1
 47 104 l 1,1,-1
 174 115 l 2,2,3
 193 117 193 117 206 128.5 c 128,-1,4
 219 140 219 140 219 160 c 2,5,-1
 219 1214 l 2,6,7
 219 1234 219 1234 206 1246 c 128,-1,8
 193 1258 193 1258 174 1260 c 2,9,-1
 47 1270 l 1,10,-1
 47 1374 l 1,11,-1
 686 1374 l 1,12,-1
 686 1270 l 1,13,-1
 559 1260 l 2,14,15
 542 1258 542 1258 527 1246 c 128,-1,16
 512 1234 512 1234 512 1214 c 2,17,-1
 512 160 l 2,18,19
 512 140 512 140 527 128.5 c 128,-1,20
 542 117 542 117 559 115 c 2,21,-1
 686 104 l 1,22,-1
 686 0 l 1,23,-1
 47 0 l 1,0,-1
168 1528 m 1,24,-1
 448 1838 l 2,25,26
 466 1857 466 1857 480.5 1869.5 c 128,-1,27
 495 1882 495 1882 509.5 1889.5 c 128,-1,28
 524 1897 524 1897 540 1900 c 128,-1,29
 556 1903 556 1903 577 1903 c 0,30,31
 610 1903 610 1903 632.5 1893 c 128,-1,32
 655 1883 655 1883 669.5 1867.5 c 128,-1,33
 684 1852 684 1852 690 1832.5 c 128,-1,34
 696 1813 696 1813 696 1795 c 0,35,36
 696 1785 696 1785 691.5 1772.5 c 128,-1,37
 687 1760 687 1760 680 1748 c 128,-1,38
 673 1736 673 1736 663 1725.5 c 128,-1,39
 653 1715 653 1715 643 1709 c 2,40,-1
 311 1528 l 1,41,-1
 168 1528 l 1,24,-1
EndSplineSet
EndChar

StartChar: Icircumflex
Encoding: 206 206 144
Width: 735
GlyphClass: 2
Flags: W
LayerCount: 2
Fore
SplineSet
18 1528 m 1,0,-1
 245 1879 l 1,1,-1
 487 1879 l 1,2,-1
 714 1528 l 1,3,-1
 544 1528 l 1,4,-1
 366 1723 l 1,5,-1
 188 1528 l 1,6,-1
 18 1528 l 1,0,-1
47 0 m 1,7,-1
 47 104 l 1,8,-1
 174 115 l 2,9,10
 193 117 193 117 206 128.5 c 128,-1,11
 219 140 219 140 219 160 c 2,12,-1
 219 1214 l 2,13,14
 219 1234 219 1234 206 1246 c 128,-1,15
 193 1258 193 1258 174 1260 c 2,16,-1
 47 1270 l 1,17,-1
 47 1374 l 1,18,-1
 686 1374 l 1,19,-1
 686 1270 l 1,20,-1
 559 1260 l 2,21,22
 542 1258 542 1258 527 1246 c 128,-1,23
 512 1234 512 1234 512 1214 c 2,24,-1
 512 160 l 2,25,26
 512 140 512 140 527 128.5 c 128,-1,27
 542 117 542 117 559 115 c 2,28,-1
 686 104 l 1,29,-1
 686 0 l 1,30,-1
 47 0 l 1,7,-1
EndSplineSet
EndChar

StartChar: Idieresis
Encoding: 207 207 145
Width: 735
GlyphClass: 2
Flags: W
LayerCount: 2
Fore
SplineSet
10 1739 m 256,0,1
 10 1768 10 1768 21 1794 c 128,-1,2
 32 1820 32 1820 51 1839.5 c 128,-1,3
 70 1859 70 1859 96 1870 c 128,-1,4
 122 1881 122 1881 151 1881 c 256,5,6
 180 1881 180 1881 206 1870 c 128,-1,7
 232 1859 232 1859 251.5 1839.5 c 128,-1,8
 271 1820 271 1820 282 1794 c 128,-1,9
 293 1768 293 1768 293 1739 c 256,10,11
 293 1710 293 1710 282 1684.5 c 128,-1,12
 271 1659 271 1659 251.5 1639.5 c 128,-1,13
 232 1620 232 1620 206 1609 c 128,-1,14
 180 1598 180 1598 151 1598 c 256,15,16
 122 1598 122 1598 96 1609 c 128,-1,17
 70 1620 70 1620 51 1639.5 c 128,-1,18
 32 1659 32 1659 21 1684.5 c 128,-1,19
 10 1710 10 1710 10 1739 c 256,0,1
47 0 m 1,20,-1
 47 104 l 1,21,-1
 174 115 l 2,22,23
 193 117 193 117 206 128.5 c 128,-1,24
 219 140 219 140 219 160 c 2,25,-1
 219 1214 l 2,26,27
 219 1234 219 1234 206 1246 c 128,-1,28
 193 1258 193 1258 174 1260 c 2,29,-1
 47 1270 l 1,30,-1
 47 1374 l 1,31,-1
 686 1374 l 1,32,-1
 686 1270 l 1,33,-1
 559 1260 l 2,34,35
 542 1258 542 1258 527 1246 c 128,-1,36
 512 1234 512 1234 512 1214 c 2,37,-1
 512 160 l 2,38,39
 512 140 512 140 527 128.5 c 128,-1,40
 542 117 542 117 559 115 c 2,41,-1
 686 104 l 1,42,-1
 686 0 l 1,43,-1
 47 0 l 1,20,-1
440 1739 m 256,44,45
 440 1768 440 1768 451 1794 c 128,-1,46
 462 1820 462 1820 481.5 1839.5 c 128,-1,47
 501 1859 501 1859 526.5 1870 c 128,-1,48
 552 1881 552 1881 581 1881 c 256,49,50
 610 1881 610 1881 636 1870 c 128,-1,51
 662 1859 662 1859 681.5 1839.5 c 128,-1,52
 701 1820 701 1820 712 1794 c 128,-1,53
 723 1768 723 1768 723 1739 c 256,54,55
 723 1710 723 1710 712 1684.5 c 128,-1,56
 701 1659 701 1659 681.5 1639.5 c 128,-1,57
 662 1620 662 1620 636 1609 c 128,-1,58
 610 1598 610 1598 581 1598 c 256,59,60
 552 1598 552 1598 526.5 1609 c 128,-1,61
 501 1620 501 1620 481.5 1639.5 c 128,-1,62
 462 1659 462 1659 451 1684.5 c 128,-1,63
 440 1710 440 1710 440 1739 c 256,44,45
EndSplineSet
EndChar

StartChar: Eth
Encoding: 208 208 146
Width: 1483
GlyphClass: 2
Flags: W
LayerCount: 2
Fore
SplineSet
29 653 m 1,0,-1
 29 786 l 1,1,-1
 213 786 l 1,2,-1
 213 1214 l 2,3,4
 213 1234 213 1234 198.5 1246 c 128,-1,5
 184 1258 184 1258 166 1260 c 2,6,-1
 53 1270 l 1,7,-1
 53 1374 l 1,8,-1
 680 1374 l 2,9,10
 855 1374 855 1374 990.5 1325 c 128,-1,11
 1126 1276 1126 1276 1218.5 1187.5 c 128,-1,12
 1311 1099 1311 1099 1359 975.5 c 128,-1,13
 1407 852 1407 852 1407 702 c 0,14,15
 1407 526 1407 526 1356.5 394.5 c 128,-1,16
 1306 263 1306 263 1212.5 175 c 128,-1,17
 1119 87 1119 87 987 43.5 c 128,-1,18
 855 0 855 0 692 0 c 2,19,-1
 53 0 l 1,20,-1
 53 104 l 1,21,-1
 166 115 l 2,22,23
 184 117 184 117 198.5 128.5 c 128,-1,24
 213 140 213 140 213 160 c 2,25,-1
 213 653 l 1,26,-1
 29 653 l 1,0,-1
506 121 m 1,27,-1
 676 125 l 2,28,29
 720 126 720 126 767 137 c 128,-1,30
 814 148 814 148 858.5 173 c 128,-1,31
 903 198 903 198 942.5 239.5 c 128,-1,32
 982 281 982 281 1012 342.5 c 128,-1,33
 1042 404 1042 404 1059.5 487.5 c 128,-1,34
 1077 571 1077 571 1077 680 c 0,35,36
 1077 798 1077 798 1059 886.5 c 128,-1,37
 1041 975 1041 975 1009.5 1038.5 c 128,-1,38
 978 1102 978 1102 935 1144 c 128,-1,39
 892 1186 892 1186 843 1210.5 c 128,-1,40
 794 1235 794 1235 741 1245 c 128,-1,41
 688 1255 688 1255 635 1255 c 2,42,-1
 506 1255 l 1,43,-1
 506 786 l 1,44,-1
 812 786 l 1,45,-1
 812 653 l 1,46,-1
 506 653 l 1,47,-1
 506 121 l 1,27,-1
EndSplineSet
EndChar

StartChar: Ntilde
Encoding: 209 209 147
Width: 1524
GlyphClass: 2
Flags: W
LayerCount: 2
Fore
SplineSet
55 0 m 1,0,-1
 55 104 l 1,1,-1
 168 115 l 2,2,3
 187 117 187 117 200 128.5 c 128,-1,4
 213 140 213 140 213 160 c 2,5,-1
 213 1214 l 2,6,7
 213 1234 213 1234 200 1246 c 128,-1,8
 187 1258 187 1258 168 1260 c 2,9,-1
 57 1270 l 1,10,-1
 57 1374 l 1,11,-1
 563 1374 l 1,12,-1
 563 1319 l 1,13,-1
 1153 395 l 1,14,-1
 1153 1214 l 2,15,16
 1153 1234 1153 1234 1138.5 1246 c 128,-1,17
 1124 1258 1124 1258 1106 1260 c 2,18,-1
 989 1270 l 1,19,-1
 989 1374 l 1,20,-1
 1464 1374 l 1,21,-1
 1464 1270 l 1,22,-1
 1354 1260 l 2,23,24
 1337 1258 1337 1258 1323 1246 c 128,-1,25
 1309 1234 1309 1234 1309 1214 c 2,26,-1
 1309 0 l 1,27,-1
 1059 0 l 1,28,-1
 369 1083 l 1,29,-1
 369 160 l 2,30,31
 369 140 369 140 383 128.5 c 128,-1,32
 397 117 397 117 414 115 c 2,33,-1
 528 104 l 1,34,-1
 528 0 l 1,35,-1
 55 0 l 1,0,-1
400 1598 m 1,36,37
 413 1651 413 1651 434 1697 c 128,-1,38
 455 1743 455 1743 485 1777.5 c 128,-1,39
 515 1812 515 1812 555 1832 c 128,-1,40
 595 1852 595 1852 646 1852 c 0,41,42
 686 1852 686 1852 717 1837 c 128,-1,43
 748 1822 748 1822 777.5 1804 c 128,-1,44
 807 1786 807 1786 840 1771 c 128,-1,45
 873 1756 873 1756 918 1756 c 0,46,47
 934 1756 934 1756 949.5 1763.5 c 128,-1,48
 965 1771 965 1771 977 1784 c 128,-1,49
 989 1797 989 1797 997.5 1814.5 c 128,-1,50
 1006 1832 1006 1832 1008 1852 c 1,51,-1
 1119 1852 l 1,52,53
 1106 1799 1106 1799 1085 1753 c 128,-1,54
 1064 1707 1064 1707 1034 1672.5 c 128,-1,55
 1004 1638 1004 1638 963.5 1618 c 128,-1,56
 923 1598 923 1598 871 1598 c 0,57,58
 831 1598 831 1598 801 1613.5 c 128,-1,59
 771 1629 771 1629 741.5 1647 c 128,-1,60
 712 1665 712 1665 679 1680.5 c 128,-1,61
 646 1696 646 1696 601 1696 c 0,62,63
 567 1696 567 1696 541.5 1668 c 128,-1,64
 516 1640 516 1640 511 1598 c 1,65,-1
 400 1598 l 1,36,37
EndSplineSet
EndChar

StartChar: Ograve
Encoding: 210 210 148
Width: 1548
GlyphClass: 2
Flags: W
LayerCount: 2
Fore
SplineSet
76 696 m 0,0,1
 76 847 76 847 123 977.5 c 128,-1,2
 170 1108 170 1108 258.5 1203 c 128,-1,3
 347 1298 347 1298 475.5 1352.5 c 128,-1,4
 604 1407 604 1407 768 1407 c 0,5,6
 874 1407 874 1407 968 1380.5 c 128,-1,7
 1062 1354 1062 1354 1140.5 1306.5 c 128,-1,8
 1219 1259 1219 1259 1281 1192.5 c 128,-1,9
 1343 1126 1343 1126 1386 1045 c 128,-1,10
 1429 964 1429 964 1452 871.5 c 128,-1,11
 1475 779 1475 779 1475 680 c 0,12,13
 1475 533 1475 533 1425.5 403.5 c 128,-1,14
 1376 274 1376 274 1285 177 c 128,-1,15
 1194 80 1194 80 1067 23.5 c 128,-1,16
 940 -33 940 -33 786 -33 c 0,17,18
 633 -33 633 -33 502.5 15.5 c 128,-1,19
 372 64 372 64 277.5 157 c 128,-1,20
 183 250 183 250 129.5 386 c 128,-1,21
 76 522 76 522 76 696 c 0,0,1
403 690 m 0,22,23
 403 617 403 617 412.5 545 c 128,-1,24
 422 473 422 473 441 407 c 128,-1,25
 460 341 460 341 490 284 c 128,-1,26
 520 227 520 227 560 185.5 c 128,-1,27
 600 144 600 144 651.5 120 c 128,-1,28
 703 96 703 96 766 96 c 0,29,30
 834 96 834 96 889 120.5 c 128,-1,31
 944 145 944 145 986 187 c 128,-1,32
 1028 229 1028 229 1058 285 c 128,-1,33
 1088 341 1088 341 1107.5 405 c 128,-1,34
 1127 469 1127 469 1136 537.5 c 128,-1,35
 1145 606 1145 606 1145 672 c 0,36,37
 1145 792 1145 792 1122.5 900.5 c 128,-1,38
 1100 1009 1100 1009 1055 1091 c 128,-1,39
 1010 1173 1010 1173 942.5 1221.5 c 128,-1,40
 875 1270 875 1270 786 1270 c 0,41,42
 715 1270 715 1270 659 1246 c 128,-1,43
 603 1222 603 1222 560.5 1180.5 c 128,-1,44
 518 1139 518 1139 488 1083 c 128,-1,45
 458 1027 458 1027 439 962.5 c 128,-1,46
 420 898 420 898 411.5 828.5 c 128,-1,47
 403 759 403 759 403 690 c 0,22,23
450 1795 m 0,48,49
 450 1813 450 1813 456 1832.5 c 128,-1,50
 462 1852 462 1852 475.5 1867.5 c 128,-1,51
 489 1883 489 1883 511.5 1893 c 128,-1,52
 534 1903 534 1903 567 1903 c 0,53,54
 588 1903 588 1903 604 1900 c 128,-1,55
 620 1897 620 1897 634.5 1889.5 c 128,-1,56
 649 1882 649 1882 663.5 1869.5 c 128,-1,57
 678 1857 678 1857 696 1838 c 2,58,-1
 976 1528 l 1,59,-1
 833 1528 l 1,60,-1
 501 1709 l 2,61,62
 490 1715 490 1715 481 1725.5 c 128,-1,63
 472 1736 472 1736 465 1748 c 128,-1,64
 458 1760 458 1760 454 1772.5 c 128,-1,65
 450 1785 450 1785 450 1795 c 0,48,49
EndSplineSet
EndChar

StartChar: Oacute
Encoding: 211 211 149
Width: 1548
GlyphClass: 2
Flags: W
LayerCount: 2
Fore
SplineSet
76 696 m 0,0,1
 76 847 76 847 123 977.5 c 128,-1,2
 170 1108 170 1108 258.5 1203 c 128,-1,3
 347 1298 347 1298 475.5 1352.5 c 128,-1,4
 604 1407 604 1407 768 1407 c 0,5,6
 874 1407 874 1407 968 1380.5 c 128,-1,7
 1062 1354 1062 1354 1140.5 1306.5 c 128,-1,8
 1219 1259 1219 1259 1281 1192.5 c 128,-1,9
 1343 1126 1343 1126 1386 1045 c 128,-1,10
 1429 964 1429 964 1452 871.5 c 128,-1,11
 1475 779 1475 779 1475 680 c 0,12,13
 1475 533 1475 533 1425.5 403.5 c 128,-1,14
 1376 274 1376 274 1285 177 c 128,-1,15
 1194 80 1194 80 1067 23.5 c 128,-1,16
 940 -33 940 -33 786 -33 c 0,17,18
 633 -33 633 -33 502.5 15.5 c 128,-1,19
 372 64 372 64 277.5 157 c 128,-1,20
 183 250 183 250 129.5 386 c 128,-1,21
 76 522 76 522 76 696 c 0,0,1
403 690 m 0,22,23
 403 617 403 617 412.5 545 c 128,-1,24
 422 473 422 473 441 407 c 128,-1,25
 460 341 460 341 490 284 c 128,-1,26
 520 227 520 227 560 185.5 c 128,-1,27
 600 144 600 144 651.5 120 c 128,-1,28
 703 96 703 96 766 96 c 0,29,30
 834 96 834 96 889 120.5 c 128,-1,31
 944 145 944 145 986 187 c 128,-1,32
 1028 229 1028 229 1058 285 c 128,-1,33
 1088 341 1088 341 1107.5 405 c 128,-1,34
 1127 469 1127 469 1136 537.5 c 128,-1,35
 1145 606 1145 606 1145 672 c 0,36,37
 1145 792 1145 792 1122.5 900.5 c 128,-1,38
 1100 1009 1100 1009 1055 1091 c 128,-1,39
 1010 1173 1010 1173 942.5 1221.5 c 128,-1,40
 875 1270 875 1270 786 1270 c 0,41,42
 715 1270 715 1270 659 1246 c 128,-1,43
 603 1222 603 1222 560.5 1180.5 c 128,-1,44
 518 1139 518 1139 488 1083 c 128,-1,45
 458 1027 458 1027 439 962.5 c 128,-1,46
 420 898 420 898 411.5 828.5 c 128,-1,47
 403 759 403 759 403 690 c 0,22,23
577 1528 m 1,48,-1
 857 1838 l 2,49,50
 875 1857 875 1857 889.5 1869.5 c 128,-1,51
 904 1882 904 1882 918.5 1889.5 c 128,-1,52
 933 1897 933 1897 949 1900 c 128,-1,53
 965 1903 965 1903 986 1903 c 0,54,55
 1019 1903 1019 1903 1041.5 1893 c 128,-1,56
 1064 1883 1064 1883 1078.5 1867.5 c 128,-1,57
 1093 1852 1093 1852 1099 1832.5 c 128,-1,58
 1105 1813 1105 1813 1105 1795 c 0,59,60
 1105 1785 1105 1785 1100.5 1772.5 c 128,-1,61
 1096 1760 1096 1760 1089 1748 c 128,-1,62
 1082 1736 1082 1736 1072 1725.5 c 128,-1,63
 1062 1715 1062 1715 1052 1709 c 2,64,-1
 720 1528 l 1,65,-1
 577 1528 l 1,48,-1
EndSplineSet
EndChar

StartChar: Ocircumflex
Encoding: 212 212 150
Width: 1548
GlyphClass: 2
Flags: W
LayerCount: 2
Fore
SplineSet
76 696 m 0,0,1
 76 847 76 847 123 977.5 c 128,-1,2
 170 1108 170 1108 258.5 1203 c 128,-1,3
 347 1298 347 1298 475.5 1352.5 c 128,-1,4
 604 1407 604 1407 768 1407 c 0,5,6
 874 1407 874 1407 968 1380.5 c 128,-1,7
 1062 1354 1062 1354 1140.5 1306.5 c 128,-1,8
 1219 1259 1219 1259 1281 1192.5 c 128,-1,9
 1343 1126 1343 1126 1386 1045 c 128,-1,10
 1429 964 1429 964 1452 871.5 c 128,-1,11
 1475 779 1475 779 1475 680 c 0,12,13
 1475 533 1475 533 1425.5 403.5 c 128,-1,14
 1376 274 1376 274 1285 177 c 128,-1,15
 1194 80 1194 80 1067 23.5 c 128,-1,16
 940 -33 940 -33 786 -33 c 0,17,18
 633 -33 633 -33 502.5 15.5 c 128,-1,19
 372 64 372 64 277.5 157 c 128,-1,20
 183 250 183 250 129.5 386 c 128,-1,21
 76 522 76 522 76 696 c 0,0,1
403 690 m 0,22,23
 403 617 403 617 412.5 545 c 128,-1,24
 422 473 422 473 441 407 c 128,-1,25
 460 341 460 341 490 284 c 128,-1,26
 520 227 520 227 560 185.5 c 128,-1,27
 600 144 600 144 651.5 120 c 128,-1,28
 703 96 703 96 766 96 c 0,29,30
 834 96 834 96 889 120.5 c 128,-1,31
 944 145 944 145 986 187 c 128,-1,32
 1028 229 1028 229 1058 285 c 128,-1,33
 1088 341 1088 341 1107.5 405 c 128,-1,34
 1127 469 1127 469 1136 537.5 c 128,-1,35
 1145 606 1145 606 1145 672 c 0,36,37
 1145 792 1145 792 1122.5 900.5 c 128,-1,38
 1100 1009 1100 1009 1055 1091 c 128,-1,39
 1010 1173 1010 1173 942.5 1221.5 c 128,-1,40
 875 1270 875 1270 786 1270 c 0,41,42
 715 1270 715 1270 659 1246 c 128,-1,43
 603 1222 603 1222 560.5 1180.5 c 128,-1,44
 518 1139 518 1139 488 1083 c 128,-1,45
 458 1027 458 1027 439 962.5 c 128,-1,46
 420 898 420 898 411.5 828.5 c 128,-1,47
 403 759 403 759 403 690 c 0,22,23
427 1528 m 1,48,-1
 654 1879 l 1,49,-1
 896 1879 l 1,50,-1
 1123 1528 l 1,51,-1
 953 1528 l 1,52,-1
 775 1723 l 1,53,-1
 597 1528 l 1,54,-1
 427 1528 l 1,48,-1
EndSplineSet
EndChar

